


<svg width="22" height="22" viewBox="0 0 22 22" fill="none" xmlns="http://www.w3.org/2000/svg">
<path d="M16.2605 9.98004L12.0205 5.74005L14.1405 0.790039L21.2105 7.86005L16.2605 9.98004Z" fill="#9E9E9E"/>
<path d="M14.14 7.86023L12.02 5.74023L4.95 7.15024L0.46001 20.4702L0 22.0002L1.52 21.5302L14.85 17.0502L16.26 9.98022L14.14 7.86023Z" fill="white"/>
<path d="M11.31 10.6901C11.1243 10.5041 10.9037 10.3566 10.6609 10.256C10.4181 10.1553 10.1578 10.1035 9.895 10.1035C9.6322 10.1035 9.3719 10.1553 9.1291 10.256C8.8863 10.3566 8.6657 10.5041 8.48 10.6901C8.2005 10.9722 8.0113 11.3311 7.93646 11.7211C7.86166 12.1111 7.90467 12.5146 8.06 12.8801L0.45999 20.4801L0 22.0001L1.51999 21.5401L9.12 13.9401C9.4855 14.0954 9.8889 14.1384 10.279 14.0636C10.669 13.9888 11.0279 13.7996 11.31 13.5201C11.496 13.3343 11.6435 13.1138 11.7441 12.871C11.8448 12.6282 11.8966 12.3679 11.8966 12.1051C11.8966 11.8422 11.8448 11.582 11.7441 11.3392C11.6435 11.0964 11.496 10.8758 11.31 10.6901Z" fill="#9E9E9E"/>
</svg>
