<svg width="24" height="24" viewBox="0 0 24 24" fill="none" xmlns="http://www.w3.org/2000/svg">
<path d="M4.54004 3.91016C4.00961 3.91016 3.5009 4.1209 3.12582 4.49597C2.75075 4.87105 2.54004 5.37972 2.54004 5.91016V8.48016H21.54V7.91016C21.54 7.37972 21.3293 6.87105 20.9543 6.49597C20.5792 6.1209 20.0705 5.91016 19.54 5.91016H10.54L9.12004 4.49017C8.74506 4.11825 8.23818 3.90974 7.71004 3.91016H4.54004Z" fill="#FF570E"/>
<path d="M2.5 8.5H21.5V17C21.5 17.5304 21.2893 18.0391 20.9142 18.4142C20.5392 18.7893 20.0304 19 19.5 19H4.5C3.96957 19 3.46089 18.7893 3.08582 18.4142C2.71074 18.0391 2.5 17.5304 2.5 17V8.5Z" fill="#E0E0E0"/>
</svg>
