<svg width="18" height="18" viewBox="0 0 18 18" fill="none" xmlns="http://www.w3.org/2000/svg">
<path d="M4.5 6.75C5.29565 6.75 6.0587 7.06607 6.62131 7.6287C7.18392 8.19128 7.5 8.95433 7.5 9.75V13.5C7.5 13.6989 7.42098 13.8897 7.28033 14.0303C7.13968 14.1709 6.94891 14.25 6.75 14.25H2.25C2.05109 14.25 1.86032 14.1709 1.71967 14.0303C1.57902 13.8897 1.5 13.6989 1.5 13.5V9.75C1.5 8.95433 1.81607 8.19128 2.37868 7.6287C2.94129 7.06607 3.70435 6.75 4.5 6.75Z" fill="#E0E0E0"/>
<path d="M4.5 6C5.53553 6 6.375 5.16053 6.375 4.125C6.375 3.08947 5.53553 2.25 4.5 2.25C3.46447 2.25 2.625 3.08947 2.625 4.125C2.625 5.16053 3.46447 6 4.5 6Z" fill="#E0E0E0"/>
<path d="M15.75 14.25H11.25C11.0511 14.25 10.8603 14.1709 10.7197 14.0303C10.579 13.8897 10.5 13.6989 10.5 13.5V9.75C10.5 8.95433 10.8161 8.19128 11.3787 7.6287C11.9413 7.06607 12.7043 6.75 13.5 6.75C14.2957 6.75 15.0587 7.06607 15.6213 7.6287C16.1839 8.19128 16.5 8.95433 16.5 9.75V13.5C16.5 13.6989 16.4209 13.8897 16.2803 14.0303C16.1397 14.1709 15.9489 14.25 15.75 14.25Z" fill="#E0E0E0"/>
<path d="M13.5 6C14.5355 6 15.375 5.16053 15.375 4.125C15.375 3.08947 14.5355 2.25 13.5 2.25C12.4645 2.25 11.625 3.08947 11.625 4.125C11.625 5.16053 12.4645 6 13.5 6Z" fill="#E0E0E0"/>
<path d="M8.34032 9H9.65282C10.4485 9 11.2115 9.31605 11.7741 9.8787C12.3368 10.4413 12.6528 11.2043 12.6528 12V15.75C12.6528 15.9489 12.5738 16.1397 12.4331 16.2803C12.2925 16.4209 12.1017 16.5 11.9028 16.5H6.09033C5.89142 16.5 5.70065 16.4209 5.56 16.2803C5.41934 16.1397 5.34033 15.9489 5.34033 15.75V12C5.34033 11.2043 5.6564 10.4413 6.21901 9.8787C6.78161 9.31605 7.54472 9 8.34032 9Z" fill="#FF570E"/>
<path d="M9 8.25C10.0355 8.25 10.875 7.41053 10.875 6.375C10.875 5.33947 10.0355 4.5 9 4.5C7.96448 4.5 7.125 5.33947 7.125 6.375C7.125 7.41053 7.96448 8.25 9 8.25Z" fill="#FF570E"/>
</svg>
