<svg width="20" height="20" viewBox="0 0 20 20" fill="none" xmlns="http://www.w3.org/2000/svg">
<path d="M3.33317 5H6.6665V11.6667H3.33317C2.89115 11.6667 2.46725 11.4911 2.15469 11.1785C1.84212 10.8659 1.6665 10.442 1.6665 10V6.66667C1.6665 6.22464 1.84212 5.80072 2.15469 5.48815C2.46725 5.17559 2.89115 5 3.33317 5Z" fill="#FF1515"/>
<path d="M5.20833 11.6667H3.125V17.5001H5.20833V11.6667Z" fill="#FF1515"/>
<path d="M15.8335 5.83325C16.4965 5.83325 17.1324 6.09664 17.6012 6.56549C18.0701 7.03433 18.3335 7.67021 18.3335 8.33325C18.3335 8.99625 18.0701 9.63217 17.6012 10.101C17.1324 10.5698 16.4965 10.8333 15.8335 10.8333V5.83325Z" fill="#FF1515"/>
<path d="M15.2415 15.5744L6.6665 11.6744V5.00771L15.2415 1.14937C15.3048 1.1201 15.3743 1.10716 15.4438 1.11174C15.5134 1.11631 15.5807 1.13826 15.6396 1.17557C15.6984 1.21288 15.747 1.26437 15.7808 1.32531C15.8147 1.38625 15.8327 1.45469 15.8332 1.52439V15.2327C15.8274 15.2996 15.8056 15.364 15.7696 15.4206C15.7336 15.4772 15.6845 15.5242 15.6264 15.5578C15.5683 15.5913 15.503 15.6103 15.436 15.6132C15.369 15.6161 15.3023 15.6028 15.2415 15.5744Z" fill="#CBDFFF"/>
</svg>
