<svg width="24" height="24" viewBox="0 0 24 24" fill="none" xmlns="http://www.w3.org/2000/svg">
<path d="M14.7914 7.78906L7.79102 14.7894L9.20523 16.2036L16.2056 9.20327L14.7914 7.78906Z" fill="#BDBDBD"/>
<path d="M9.20523 7.78906L7.79102 9.20328L14.7913 16.2036L16.2056 14.7894L9.20523 7.78906Z" fill="#BDBDBD"/>
<path d="M12 4C16.41 4 20 7.59 20 12C20 16.41 16.41 20 12 20C7.59 20 4 16.41 4 12C4 7.59 7.59 4 12 4ZM12 2C6.48 2 2 6.48 2 12C2 17.52 6.48 22 12 22C17.52 22 22 17.52 22 12C22 6.48 17.52 2 12 2Z" fill="#BDBDBD"/>
</svg>
