<svg width="80" height="80" viewBox="0 0 80 80" fill="none" xmlns="http://www.w3.org/2000/svg">
<path d="M44.8195 78.0485C61.5876 78.0485 75.1809 76.192 75.1809 73.9022C75.1809 71.6124 61.5876 69.7559 44.8195 69.7559C28.0513 69.7559 14.458 71.6124 14.458 73.9022C14.458 76.192 28.0513 78.0485 44.8195 78.0485Z" fill="#9E9E9E"/>
<path d="M57.1066 59.2604C56.3003 59.1701 56.1167 59.6667 54.8569 59.8838C53.5239 60.114 52.7726 59.7213 52.5711 60.0555C52.3557 60.4213 53.0338 61.2564 53.6246 61.7896C55.3244 63.316 57.5692 63.4696 59.736 63.5916C61.0372 63.6638 61.7061 63.6955 62.4757 63.3838C64.1707 62.7018 65.334 60.936 65.0044 60.4755C64.8531 60.2633 64.4685 60.4525 63.1764 60.6155C61.3485 60.8413 60.1485 60.9901 59.0304 60.4755C57.9678 59.9877 57.9904 59.3599 57.0974 59.2604H57.1066Z" fill="white"/>
<path d="M40.8025 61.5827C40.2447 62.2476 40.677 62.5096 40.082 63.4408C39.566 64.2525 39.064 64.3276 38.4365 65.3964C38.1065 65.9598 38.0832 66.2169 38.0739 66.3281C38.0414 67.0023 38.4876 67.8135 39.2035 67.9954C39.2964 68.0179 39.659 68.0974 40.1285 67.8979C40.9884 67.5301 41.1929 66.6608 41.7228 65.4988C42.3457 64.1325 43.1081 63.0637 44.0888 61.6803C44.9255 60.5047 45.4369 59.9725 45.2695 59.773C45.2137 59.7066 45.0464 59.6447 43.0104 60.4559C41.2162 61.1701 40.9884 61.3608 40.8025 61.5827Z" fill="white"/>
<path d="M26.9013 35.5722C26.718 35.2555 26.3604 35.4072 25.5692 35.0994C25.4307 35.0458 24.0942 34.5061 23.37 33.2705C22.8202 32.3293 23.0124 31.6557 22.5118 31.4684C22.2704 31.3792 21.8994 31.5487 21.1618 31.8877C20.3305 32.2713 19.9103 32.472 19.803 32.7531C19.5929 33.3062 20.174 33.9887 20.6612 34.5552C21.3541 35.3626 21.7742 35.4964 23.7455 36.848C24.8943 37.6331 25.1133 37.8383 25.5156 37.7758C26.4722 37.6286 27.2545 36.1789 26.9013 35.5722Z" fill="white"/>
<path d="M39.0581 71.4946C39.9088 71.0741 39.9669 69.4239 39.1878 67.8088C38.4087 66.1941 37.0874 65.2263 36.2367 65.6473C35.3859 66.0683 35.3279 67.7185 36.1069 69.3331C36.8861 70.9478 38.2073 71.9156 39.0581 71.4946Z" fill="white" stroke="#757575" stroke-miterlimit="10"/>
<path d="M68.8333 35.9164C68.6121 34.9247 67.9611 34.3345 67.0338 33.5176C66.2859 32.8612 65.3264 32.0112 63.8401 31.5626C62.3909 31.1235 62.0729 31.5626 60.1577 31.0149C59.096 30.7127 58.4088 30.3538 58.3211 30.5049C58.2333 30.6607 58.9114 31.1093 60.1297 32.4315C60.7851 33.1445 60.762 33.2059 61.0343 33.3948C62.0035 34.0747 62.6449 33.5601 63.7943 33.9237C64.9384 34.2873 65.7047 35.2411 66.9692 36.823C67.7533 37.8005 67.9982 38.3387 68.3259 38.2679C68.7827 38.1687 69.0642 36.941 68.8333 35.9164Z" fill="white"/>
<path d="M65.1555 55.1323C66.8846 54.8625 67.9839 52.6557 67.6104 50.203C67.2374 47.7501 65.5328 45.9805 63.8042 46.2503C62.075 46.5201 60.9757 48.7271 61.3492 51.1801C61.7222 53.6328 63.4263 55.402 65.1555 55.1323Z" fill="#EEEEEE" stroke="#757575" stroke-miterlimit="10"/>
<path d="M27.5218 56.0777C27.6315 55.3347 27.7824 54.3347 28.4911 53.2928C28.8889 52.7089 29.2319 52.2045 29.8903 51.9191C30.8506 51.5035 31.8108 51.8401 32.1766 51.966C33.242 52.3396 33.3426 52.8865 34.4355 53.4143C35.35 53.8538 36.1593 53.9001 36.7126 53.9284C38.4227 54.0216 39.3281 53.3582 41.3126 52.6201C41.6509 52.4938 44.0881 51.6065 46.8271 51.3308C49.7536 51.0411 49.5753 51.7977 51.8567 51.4333C53.9878 51.0923 55.675 50.186 58.3131 48.761C59.022 48.3779 59.8177 47.948 60.8557 47.2799C62.0996 46.481 63.3704 45.5419 63.4071 45.5933C63.4485 45.6494 61.6374 46.5277 61.0659 48.3498C60.796 49.2094 60.9107 49.9479 61.0201 50.686C61.1165 51.326 61.3907 53.1343 62.7762 54.4611C63.7454 55.386 64.6008 55.4469 64.5777 55.9001C64.555 56.3904 63.5213 56.6196 61.8066 57.2455C59.1594 58.2128 59.5295 58.4367 57.6548 59.0304C56.0591 59.5347 54.5454 60.0162 52.6066 59.8621C50.7367 59.7123 50.2384 59.1094 48.5006 59.3104C47.4809 59.4274 46.9276 59.7172 45.7388 60.1889C45.4278 60.3152 42.7163 61.385 40.2152 61.9455C37.2156 62.6182 34.5589 63.2162 32.8991 61.7962C32.14 61.1465 32.1858 60.5767 31.1066 59.8899C30.0641 59.2216 29.3874 59.3479 28.3905 58.4323C27.8281 57.9138 27.5903 57.4508 27.5035 57.0118C27.4623 56.7923 27.4486 56.5538 27.5218 56.0777Z" fill="#EEEEEE" stroke="#757575" stroke-miterlimit="10"/>
<path d="M22.1256 61.4684C22.4405 61.3079 22.8466 61.2118 23.3668 61.2025C26.2278 61.1474 28.3587 62.7621 29.6135 63.7435C33.5651 66.8264 34.6465 70.9684 35.2488 73.2713C36.0336 76.285 35.5089 77.1108 35.2488 77.4274C34.0031 78.9089 30.9961 78.0143 30.7132 77.9274C29.2576 77.4777 27.9936 75.6108 25.4794 72.0465C23.9052 69.8172 23.1112 68.4504 22.7143 67.7391C21.9248 66.3308 20.0997 62.5191 22.1348 61.4733L22.1256 61.4684Z" fill="#EEEEEE"/>
<path d="M48.4981 5.94653C49.7275 5.01556 50.3169 3.66819 49.955 2.69978C49.5006 1.49278 47.7281 1.32436 46.7353 1.23079C45.0698 1.07173 43.7661 1.58167 42.5413 2.08224C40.4536 2.92902 39.0989 4.07052 38.7834 4.34654C37.0947 5.80619 36.1204 7.43892 34.9606 9.88565C33.6383 12.6646 32.8125 14.9336 31.5367 18.7042C28.7159 27.0363 28.2102 29.3708 28.02 32.2012C27.9737 32.9122 27.9644 33.7637 27.9551 35.4759C27.8855 45.4548 29.0686 44.5612 28.6092 49.0573C28.5165 49.9554 28.2659 52.0046 29.0082 52.3412C29.4675 52.5519 29.848 51.8919 30.8733 51.911C31.6434 51.9246 32.2558 52.3134 33.1744 52.8934C33.977 53.4032 33.9863 53.5671 34.5476 53.8568C35.508 54.3578 36.4266 54.3671 36.8581 54.3715C39.0293 54.3949 39.9989 52.9495 42.4717 52.1446C43.5806 51.7846 43.4692 52.051 48.5121 51.7988C51.5001 51.649 52.9941 51.5788 53.6249 51.4334C56.8909 50.6944 56.4736 49.5856 61.1222 47.8407C62.4162 47.3542 63.5208 47.0407 63.943 46.0256C64.2909 45.1881 64.0032 44.2852 63.5343 43.2092C62.115 39.9671 61.0432 39.8174 59.9343 37.5204C58.4962 34.545 59.6003 33.3427 57.754 30.4561C57.1415 29.5018 56.9931 29.586 55.9444 28.0796C55.5642 27.5322 54.3579 25.7638 53.2538 23.3451C51.4721 19.4481 51.9266 18.2037 50.1868 14.3909C49.5049 12.8985 48.823 11.7523 48.396 11.0786L48.4981 5.93248V5.94653Z" fill="#F5F5F5"/>
<path d="M33.918 63.0336C36.0435 63.2624 38.1875 63.1594 40.2853 62.7302C42.3832 62.3009 44.2689 61.3541 46.3022 60.7614C48.4693 60.1316 50.6129 60.5936 52.8173 60.6029C54.8134 60.6073 56.8284 60.2902 58.7281 59.6648C59.6732 59.3526 60.5999 58.9653 61.4896 58.5126C62.3797 58.0599 63.1725 57.4351 64.104 57.1316C64.9754 56.8468 65.9252 56.7955 66.7228 56.3058C67.3035 55.9512 67.7599 55.4004 68.092 54.8082C68.8207 53.5063 69.1113 51.8594 68.7792 50.3946C68.4472 48.9292 67.451 47.6697 66.4876 46.5779C65.7778 45.7754 65.0539 44.9636 64.519 44.0305C63.8963 42.9528 63.371 41.8144 62.8129 40.7039C61.6558 38.4178 60.4337 36.1456 59.424 33.7848L59.1754 34.7413C60.4891 33.8968 62.0891 34.3867 63.357 35.1005C64.625 35.8144 65.9021 36.8968 66.6626 38.2125C67.1146 38.987 68.3088 38.2872 67.8568 37.508C66.93 35.9077 65.3994 34.5827 63.7811 33.7429C62.1628 32.9031 60.1296 32.4785 58.479 33.5329C58.1329 33.7522 58.078 34.1301 58.2298 34.4894C59.0737 36.4629 60.079 38.3665 61.0472 40.2794C62.0153 42.1923 62.7758 44.1332 64.0211 45.7708C64.9059 46.9419 66.0312 47.9496 66.7686 49.2282C67.1421 49.8716 67.4741 50.5297 67.5204 51.2858C67.5667 51.9809 67.4606 52.6668 67.239 53.3243C67.0457 53.9077 66.7368 54.4955 66.2756 54.9063C65.6438 55.4614 64.7031 55.4941 63.9286 55.718C63.0481 55.9697 62.292 56.4643 61.4987 56.917C60.706 57.3697 59.8158 57.7892 58.9262 58.1112C57.1233 58.7692 55.2284 59.1424 53.3151 59.1892C51.2539 59.2404 49.1975 58.7926 47.146 59.1238C44.9282 59.4877 42.9226 60.6355 40.7464 61.1814C38.5701 61.7273 36.2003 61.8716 33.9134 61.6243C33.0282 61.5268 33.0374 62.9312 33.9134 63.0243L33.918 63.0336Z" fill="#757575"/>
<path d="M17.4836 32.5572C16.7777 32.3855 16.0717 32.8033 15.3566 32.9425C14.6415 33.0818 12.7803 33.9916 12.432 32.107C12.1661 30.6633 14.4994 30.5194 14.4994 30.5194C15.595 29.2661 13.8393 28.5559 12.9958 27.9664C11.561 26.973 10.392 25.6222 9.50271 24.1135C8.74175 22.8231 7.44902 20.6877 8.1137 19.1745C8.30165 18.7474 8.66382 18.3992 9.10844 18.2739C10.2499 17.9536 11.0842 19.0631 11.5014 20.089C11.8818 21.0266 12.9958 23.1573 13.8805 23.6308C13.9859 23.6865 14.1052 23.7329 14.2243 23.7329C14.4123 23.7329 14.5773 23.6169 14.7332 23.5147C16.6264 22.2892 18.4509 21.2633 20.3258 22.526C21.4351 23.2733 22.297 24.4617 22.4803 25.7986C22.6178 26.7919 22.3382 27.855 21.7148 28.6209" fill="white"/>
<path d="M17.663 31.8889C16.3428 31.6615 15.1921 32.4553 13.9086 32.5806C13.4915 32.6223 13.0559 32.4553 13.0926 31.926C13.1156 31.6058 13.4594 31.4758 13.7298 31.383C13.9224 31.3179 14.1195 31.2762 14.3212 31.2391C14.3899 31.2251 14.3441 31.2437 14.4954 31.2205C15.1509 31.1044 15.5497 30.3524 15.5359 29.7072C15.5039 28.3564 13.849 27.7808 12.9597 27.0937C11.6028 26.0447 10.608 24.6753 9.75999 23.1992C9.23281 22.2847 7.87589 20.0705 8.98987 19.1189C10.1771 18.1069 11.0389 20.8039 11.4148 21.5188C11.9329 22.5121 12.8451 24.3457 14.1332 24.42C14.6833 24.4525 15.1096 24.0951 15.5543 23.8165C16.0402 23.5148 16.5353 23.2131 17.0625 22.9903C18.0572 22.5632 19.052 22.5075 19.9825 23.1296C21.5641 24.1833 22.5038 26.4625 21.2294 28.1289C21.0002 28.4307 20.9452 28.8206 21.2294 29.113C21.4632 29.3544 21.9767 29.4101 22.2013 29.113C24.0716 26.6667 23.031 23.3059 20.4868 21.8066C19.1345 21.0081 17.6355 21.1938 16.2649 21.8298C15.8798 22.0108 15.5085 22.2151 15.1417 22.4379C14.9584 22.5493 14.4495 23.0181 14.2249 23.0135C13.9269 23.0135 13.5052 22.3125 13.3448 22.0712C12.6892 21.101 12.3362 19.9869 11.7265 19.0121C11.0573 17.9445 9.87001 17.1414 8.61397 17.7263C7.35792 18.3112 7.10577 19.662 7.31667 20.8736C7.52751 22.0851 8.20139 23.2781 8.83859 24.3504C9.65454 25.7337 10.663 27.0056 11.9099 28.0175C12.4279 28.4353 12.9826 28.7649 13.5327 29.1316C13.8719 29.3591 14.3532 29.6143 14.0141 30.0321L14.4999 29.8279C12.9139 29.9346 11.149 30.9419 11.9283 32.8034C12.3362 33.7828 13.276 34.0799 14.2524 33.9314C14.6237 33.8757 14.9721 33.7597 15.3343 33.6668C15.9211 33.5136 16.6958 33.1283 17.3009 33.2351C18.1673 33.3836 18.5385 32.0421 17.6676 31.8936L17.663 31.8889Z" fill="#757575"/>
<path d="M36.7158 39.4641C38.9939 39.419 40.7644 35.4345 40.6704 30.5644C40.5764 25.6944 38.6534 21.7829 36.3752 21.828C34.0971 21.8731 32.3265 25.8577 32.4206 30.7278C32.5146 35.5978 34.4376 39.5092 36.7158 39.4641Z" fill="#F9F9F9" stroke="#757575" stroke-miterlimit="10"/>
<path d="M43.5878 39.3235C45.8659 39.2784 47.6365 35.2938 47.5425 30.4238C47.4484 25.5537 45.5254 21.6423 43.2473 21.6874C40.9692 21.7325 39.1986 25.717 39.2926 30.5871C39.3867 35.4572 41.3097 39.3686 43.5878 39.3235Z" fill="#F9F9F9" stroke="#757575" stroke-miterlimit="10"/>
<path d="M35.4218 32.6667L38.2139 30.8513C37.5864 28.2612 36.1758 26.4367 34.7506 26.5742C33.0579 26.7392 31.9926 29.5998 32.3623 32.9647C32.732 36.3295 34.4053 38.9196 36.0931 38.7546C37.742 38.5941 38.7976 35.8665 38.5057 32.6117L35.4218 32.6621V32.6667Z" fill="#757575"/>
<path d="M42.4094 32.4229L44.9866 30.5349C44.4074 27.8412 43.1053 25.9437 41.7898 26.0867C40.2273 26.2583 39.2439 29.2333 39.5852 32.7328C39.9265 36.2322 41.471 38.9259 43.029 38.7543C44.5511 38.5874 45.5254 35.7507 45.256 32.3656L42.4094 32.4181V32.4229Z" fill="#757575"/>
<path d="M36.4966 43.1237C39.0625 44.3126 42.0743 44.4657 44.7367 43.4749C46.1069 42.966 47.2933 42.1914 48.3648 41.2141C49.4361 40.2368 50.6318 39.1109 51.0549 37.6472C51.2983 36.8095 49.9648 36.4492 49.7257 37.2869C49.3715 38.5074 48.3093 39.4216 47.3899 40.2593C46.4702 41.097 45.408 41.8086 44.2033 42.2319C41.9363 43.0291 39.3797 42.9705 37.1956 41.9572C36.3955 41.5879 35.6965 42.7499 36.5012 43.1237H36.4966Z" fill="#757575"/>
<path d="M48.7699 36.3305C49.2971 37.5036 50.4272 38.4093 51.6908 38.7414C52.0277 38.8277 52.4262 38.6336 52.5106 38.2885C52.5949 37.9435 52.4041 37.5856 52.045 37.4907C51.912 37.4562 51.7838 37.413 51.6552 37.3656C51.6108 37.3483 51.4956 37.2923 51.6773 37.3742C51.6417 37.357 51.6108 37.344 51.5752 37.3311C51.5178 37.3052 51.4643 37.2794 51.407 37.2492C51.2875 37.1844 51.1675 37.1155 51.0523 37.0421C51.0214 37.0206 50.9901 36.999 50.9593 36.9775C50.9193 36.9516 50.8306 36.8653 50.9728 36.9904C50.9236 36.9473 50.8662 36.9084 50.8132 36.861C50.7111 36.7747 50.6089 36.6798 50.5159 36.5806C50.4672 36.5332 50.4229 36.4815 50.3785 36.4297C50.3564 36.4038 50.3342 36.3693 50.3077 36.3435C50.3434 36.3737 50.3964 36.4556 50.3342 36.3737C50.166 36.1537 50.0287 35.9165 49.9135 35.6663C49.8513 35.5283 49.6605 35.4076 49.5144 35.3687C49.3549 35.3256 49.1419 35.3472 49.0002 35.4334C48.8585 35.5197 48.7342 35.6534 48.6942 35.8216C48.6499 36.0027 48.6855 36.1537 48.7607 36.3219L48.7699 36.3305Z" fill="#757575"/>
<path d="M28.8605 35.5123C28.9066 28.8528 31.2229 22.4199 33.3873 16.2089C34.465 13.1197 35.584 9.86854 37.4629 7.16771C39.0425 4.90166 41.4095 3.25527 44.062 2.52458C45.4252 2.14998 50.1637 1.37766 49.0538 4.19408C48.6717 5.16527 47.9165 5.95147 47.5619 6.93186C47.1475 8.08805 47.1613 9.47083 47.4837 10.6455C47.8935 12.1346 48.8008 13.4157 49.5975 14.7105C50.3941 16.0055 50.9146 17.3512 51.2876 18.8358C51.6606 20.3202 51.983 21.8464 52.623 23.2616C53.263 24.6767 54.1565 25.93 54.9348 27.2526C55.2938 27.8631 55.6119 28.4782 55.8509 29.1487C56.0447 29.6806 56.2288 30.2217 56.5975 30.6564C57.0071 31.142 57.5734 31.3732 58.195 31.438C59.0885 31.5304 59.9912 31.5443 60.8847 31.66C62.4919 31.8634 64.1358 32.2473 65.5406 33.0844C66.7652 33.815 67.7281 34.8741 68.557 36.021C69.0726 36.7378 70.2746 36.0441 69.7493 35.3227C68.9714 34.2451 68.1146 33.2416 67.0509 32.4369C65.8905 31.5628 64.5411 31.0079 63.1411 30.6656C62.3999 30.4853 61.6447 30.365 60.8847 30.2725C60.0235 30.1662 59.1483 30.1754 58.2919 30.0598C57.2649 29.9211 57.1362 28.5244 56.7724 27.7428C56.1001 26.3 55.1237 25.0189 54.3546 23.6315C53.5854 22.2442 53.1478 20.6486 52.7613 19.0531C52.3975 17.5408 51.969 16.0656 51.2047 14.706C50.4403 13.3463 49.344 12.0098 48.8697 10.4559C48.5199 9.31357 48.515 7.94469 49.0818 6.94113C49.6481 5.93757 50.3526 5.05888 50.5599 3.93972C50.7854 2.70956 50.21 1.65514 49.0861 1.13718C47.8889 0.591469 46.5442 0.665464 45.2732 0.845825C42.4917 1.24355 39.8391 2.57082 37.8405 4.5548C35.5471 6.83015 34.2623 9.94254 33.111 12.9116C31.7111 16.5281 30.4723 20.2463 29.3901 23.9691C28.2987 27.7197 27.4928 31.5767 27.4697 35.4984C27.4652 36.391 28.8467 36.391 28.8513 35.4984L28.8605 35.5123Z" fill="#757575"/>
<path d="M46.3488 51.445C46.2891 51.1162 46.257 50.7733 46.2662 50.4255C46.3213 47.7012 48.5191 45.5406 51.1808 45.5922C53.842 45.6486 55.9528 47.8986 55.9022 50.623" fill="#F5F5F5"/>
<path d="M46.3488 51.445C46.2891 51.1162 46.257 50.7733 46.2662 50.4255C46.3213 47.7012 48.5191 45.5406 51.1808 45.5922C53.842 45.6486 55.9528 47.8986 55.9022 50.623" stroke="#757575" stroke-width="2" stroke-miterlimit="10"/>
<path d="M65.4721 54.3177C64.6919 54.7406 63.6345 54.1158 63.0948 53.564C62.4254 52.884 62.0235 51.9787 61.8206 51.0597C61.4095 49.2309 62.3651 47.2043 64.1425 46.4783L63.6071 45.2192C60.8972 46.5472 58.5565 48.5783 55.7541 49.727C52.6471 51.0001 49.3232 50.4992 46.0593 50.6601C44.4343 50.7426 42.8692 51.0182 41.3596 51.6387C39.9608 52.2177 38.5943 53.0079 37.0892 53.2884C36.3875 53.4216 35.6581 53.3894 34.9979 53.1045C34.3377 52.8197 33.7422 52.2914 33.1282 51.8821C32.0756 51.184 30.6814 50.7933 29.4672 51.3265C28.8393 51.6021 28.3961 52.2133 27.953 52.7138C27.4266 53.3162 26.965 53.9592 26.7111 54.727C26.4387 55.5587 26.4571 56.4636 26.6511 57.3094C26.7434 57.7231 26.8634 58.1597 27.0943 58.5177C27.302 58.8489 27.6206 59.0923 27.8329 59.4187C28.3131 60.1631 29.5133 59.4689 29.0286 58.7245C28.8439 58.4353 28.6039 58.2055 28.3915 57.9436C28.193 57.6997 28.1191 57.447 28.0407 57.1484C27.8329 56.3582 27.8191 55.5265 28.1745 54.7772C28.4377 54.2167 28.867 53.7572 29.2779 53.307C29.7211 52.8197 29.9797 52.466 30.6814 52.4611C32.071 52.4611 32.9804 53.624 34.1346 54.2119C35.3857 54.8509 36.7522 54.846 38.0818 54.465C39.476 54.065 40.741 53.3436 42.089 52.8245C43.5664 52.2499 45.1083 52.0523 46.6825 52.0158C49.7666 51.9372 52.915 52.2777 55.8649 51.1562C58.8148 50.0348 61.4051 47.8339 64.3088 46.4094C65.0013 46.0693 64.5073 44.8516 63.7733 45.1502C61.2066 46.1979 59.8538 48.9138 60.5184 51.5836C60.8235 52.8104 61.4649 54.0377 62.4529 54.8509C63.4408 55.664 64.955 56.165 66.1647 55.5079C66.9449 55.0806 66.2476 53.8904 65.4673 54.3177H65.4721Z" fill="#757575"/>
<path d="M52.0479 29.8165C53.0951 29.151 54.3515 28.8605 55.6464 29.0761C58.6107 29.5775 60.6358 32.5724 60.1751 35.7687C59.7712 38.5385 57.6329 40.5491 55.138 40.7132" fill="#EEEEEE"/>
<path d="M52.0479 29.8165C53.0951 29.151 54.3515 28.8605 55.6464 29.0761C58.6107 29.5775 60.6358 32.5724 60.1751 35.7687C59.7712 38.5385 57.6329 40.5491 55.138 40.7132" stroke="#757575" stroke-miterlimit="10" stroke-linecap="round"/>
<path d="M33.7352 46.1671C32.3198 47.0708 30.5167 47.3315 28.8083 46.7291C25.8783 45.6905 24.3457 42.4757 25.387 39.5488C26.1443 37.4221 28.0555 36.0328 30.1697 35.835" fill="#EEEEEE"/>
<path d="M33.7352 46.1671C32.3198 47.0708 30.5167 47.3315 28.8083 46.7291C25.8783 45.6905 24.3457 42.4757 25.387 39.5488C26.1443 37.4221 28.0555 36.0328 30.1697 35.835" stroke="#757575" stroke-miterlimit="10" stroke-linecap="round"/>
<path d="M46.2646 15.3474C48.9263 15.3474 51.0839 13.1635 51.0839 10.4694C51.0839 7.77531 48.9263 5.59131 46.2646 5.59131C43.603 5.59131 41.4453 7.77531 41.4453 10.4694C41.4453 13.1635 43.603 15.3474 46.2646 15.3474Z" fill="#F5F5F5" stroke="#757575" stroke-miterlimit="10"/>
<path d="M33.7353 19.7375C35.3323 19.7375 36.6269 18.3179 36.6269 16.5667C36.6269 14.8156 35.3323 13.396 33.7353 13.396C32.1384 13.396 30.8438 14.8156 30.8438 16.5667C30.8438 18.3179 32.1384 19.7375 33.7353 19.7375Z" fill="#F5F5F5" stroke="#757575" stroke-miterlimit="10"/>
<path d="M30.1204 40.2251C30.5196 40.2251 30.8432 39.8975 30.8432 39.4934C30.8432 39.0893 30.5196 38.7617 30.1204 38.7617C29.7211 38.7617 29.3975 39.0893 29.3975 39.4934C29.3975 39.8975 29.7211 40.2251 30.1204 40.2251Z" fill="#757575"/>
<path d="M28.9155 44.128C29.1817 44.128 29.3974 43.8004 29.3974 43.3963C29.3974 42.9922 29.1817 42.6646 28.9155 42.6646C28.6494 42.6646 28.4336 42.9922 28.4336 43.3963C28.4336 43.8004 28.6494 44.128 28.9155 44.128Z" fill="#757575"/>
<path d="M32.0481 43.1524C32.4473 43.1524 32.771 42.8248 32.771 42.4207C32.771 42.0166 32.4473 41.689 32.0481 41.689C31.6489 41.689 31.3252 42.0166 31.3252 42.4207C31.3252 42.8248 31.6489 43.1524 32.0481 43.1524Z" fill="#757575"/>
<path d="M53.4936 33.396C53.7597 33.396 53.9756 33.0684 53.9756 32.6643C53.9756 32.2602 53.7597 31.9326 53.4936 31.9326C53.2276 31.9326 53.0117 32.2602 53.0117 32.6643C53.0117 33.0684 53.2276 33.396 53.4936 33.396Z" fill="#757575"/>
<path d="M56.6262 35.835C57.0252 35.835 57.3491 35.5074 57.3491 35.1033C57.3491 34.6992 57.0252 34.3716 56.6262 34.3716C56.2272 34.3716 55.9033 34.6992 55.9033 35.1033C55.9033 35.5074 56.2272 35.835 56.6262 35.835Z" fill="#757575"/>
<path d="M53.7346 37.7862C54.1336 37.7862 54.4575 37.4586 54.4575 37.0545C54.4575 36.6504 54.1336 36.3228 53.7346 36.3228C53.3356 36.3228 53.0117 36.6504 53.0117 37.0545C53.0117 37.4586 53.3356 37.7862 53.7346 37.7862Z" fill="#757575"/>
<path d="M72.1869 36.6932C73.1498 36.4054 74.1811 36.5076 75.1667 36.6932C75.639 36.7861 76.1064 36.8975 76.5513 37.0832C78.1831 37.7609 79.3426 39.4831 79.3566 41.2702C79.3701 43.0574 78.2289 44.8028 76.5922 45.4759C74.598 46.2928 72.6452 45.2763 71.1691 43.8744C71.0043 44.2225 70.8896 44.5846 70.7566 44.9467C70.6101 45.3552 70.3166 45.7683 69.8949 45.8147C69.5146 45.8565 69.1662 45.5826 68.9325 45.2763C67.9464 43.9951 68.3132 42.4493 68.4144 40.9778" fill="white"/>
<path d="M72.3699 37.3664C73.2687 37.1251 74.1853 37.2086 75.0885 37.3897C75.8909 37.5522 76.6562 37.7981 77.2841 38.3459C78.3111 39.2464 78.8976 40.6855 78.5954 42.0548C78.2928 43.4242 77.2615 44.6311 75.886 44.9839C74.3044 45.3878 72.7781 44.4315 71.6595 43.3871C71.366 43.1132 70.7704 43.0993 70.5776 43.5263C70.4629 43.7863 70.3578 44.0462 70.2566 44.3155C70.1834 44.5151 70.1236 44.8354 69.968 44.9979C69.6104 45.3692 69.2253 44.5104 69.1246 44.218C68.7578 43.2014 69.0239 42.0316 69.1015 40.9825C69.1704 40.0866 67.795 40.0913 67.7265 40.9825C67.5978 42.6583 67.3 44.4547 68.501 45.8381C69.0239 46.4415 69.8441 46.734 70.5641 46.3022C71.2836 45.8705 71.4393 44.9607 71.7651 44.2319L70.6832 44.3712C71.8427 45.4528 73.2412 46.344 74.8547 46.4601C76.4682 46.5761 77.8894 45.8148 78.8427 44.6172C80.7819 42.1895 80.2133 38.6569 77.6692 36.9069C76.8899 36.3731 75.9685 36.1271 75.047 35.9692C74.0248 35.7975 73.007 35.7464 71.9988 36.0203C71.1463 36.2524 71.5082 37.5939 72.3656 37.3618L72.3699 37.3664Z" fill="#757575"/>
<path d="M56.2262 60.1017C59.033 61.9324 62.6228 62.1729 65.6797 60.8568C66.0291 60.7056 66.1091 60.1914 65.9346 59.8895C65.7226 59.5261 65.3168 59.4836 64.9674 59.6348C62.3732 60.748 59.2879 60.4134 56.9433 58.8797C56.179 58.3797 55.4667 59.6065 56.231 60.1017H56.2262Z" fill="#757575"/>
<path d="M50.9017 60.5914C54.2429 63.028 58.3359 64.3427 62.4665 64.0992C63.3523 64.048 63.3571 62.6446 62.4665 62.6963C58.5576 62.93 54.7687 61.6905 51.6034 59.3802C50.8786 58.8519 50.1865 60.0675 50.9065 60.5914H50.9017Z" fill="#757575"/>
<path d="M61.6841 65.4594C60.0571 65.5384 58.393 65.6267 56.8845 66.2579C55.3809 66.8891 54.0378 68.1794 53.7949 69.8091C53.6759 70.6257 53.8363 71.4613 54.0927 72.2413C54.7072 74.0843 56.0137 75.8062 57.8566 76.3682C59.7862 76.9574 61.9226 76.1404 63.4354 74.7896C64.9481 73.4389 65.9612 71.6194 66.9467 69.8369C68.3496 67.2974 69.8484 64.6287 68.7761 61.653C68.5973 61.1516 68.3496 60.6687 67.978 60.2882C67.4739 59.7682 66.658 59.4296 65.966 59.7545" fill="#F5F5F5"/>
<path d="M61.6841 64.7634C58.7226 64.9117 55.06 65.302 53.5564 68.3424C52.2455 70.9927 53.8132 74.5439 56.032 76.201C58.6311 78.1459 62.0465 77.12 64.2147 75.0176C65.3376 73.9263 66.1949 72.5849 66.9699 71.2249C67.7809 69.8 68.6152 68.3654 69.2065 66.8288C69.8667 65.1205 70.0822 63.222 69.4499 61.4673C68.9135 59.9912 67.5197 58.4083 65.7959 59.0815C64.98 59.4019 65.3332 60.7478 66.1626 60.4229C67.46 59.9171 68.1434 61.6581 68.354 62.6371C68.6335 63.9278 68.354 65.2459 67.8817 66.4532C67.4099 67.66 66.7173 68.8434 66.0759 69.9995C65.434 71.1551 64.7694 72.3112 63.912 73.3137C62.4084 75.0683 59.901 76.5912 57.5814 75.5185C56.5501 75.0405 55.7752 74.1449 55.2388 73.1512C54.6614 72.0741 54.2166 70.7098 54.5694 69.4937C55.4316 66.5317 59.1906 66.2717 61.6841 66.1468C62.5641 66.1049 62.5689 64.7122 61.6841 64.7541V64.7634Z" fill="#757575"/>
<path d="M43.9763 60.0664C42.2565 62.8025 40.6401 65.5986 39.1223 68.4499C38.7041 69.2377 39.9211 69.9377 40.3394 69.1455C41.8571 66.2942 43.4735 63.4981 45.1933 60.7621C45.6679 60.0021 44.4509 59.3064 43.9763 60.0664Z" fill="#757575"/>
<path d="M38.3339 72.0066C38.3155 71.929 38.2925 71.8515 38.2694 71.7695C37.6062 69.5339 36.372 67.1383 35.2759 65.0715C34.2442 63.1276 32.8534 61.2617 30.767 60.3534C29.2748 59.7056 27.58 59.6237 25.9681 59.8563C24.4943 60.0705 23.0067 60.5724 21.9521 61.6129C21.206 62.3476 20.6257 63.4427 20.7362 64.5056C20.8007 65.149 21.054 65.7602 21.3441 66.3398C22.5508 68.7627 24.2641 71.0441 25.8299 73.2476C27.1379 75.091 28.5702 76.9573 30.5782 78.0202C32.2684 78.9193 34.3041 79.0788 35.9851 78.0661C38.2234 76.7154 38.9695 74.4251 38.3385 72.0022L38.3339 72.0066Z" fill="#F5F5F5" stroke="#757575" stroke-miterlimit="10"/>
<path d="M39.7584 61.6963C39.7257 61.7865 39.6931 61.8724 39.6604 61.9577C39.6808 61.9036 39.6768 61.9173 39.6482 61.9943C39.6318 62.0392 39.6155 62.0797 39.5951 62.1251C39.5257 62.2968 39.4522 62.4685 39.3746 62.6397C39.2236 62.9787 39.0602 63.3129 38.8847 63.6377C38.5417 64.2792 38.1457 64.8977 37.766 65.4124C37.5619 65.6836 37.5047 66.108 37.766 66.3699C37.9906 66.6002 38.4152 66.6631 38.6316 66.3699C39.6033 65.0646 40.3708 63.629 40.9342 62.0573C41.0526 61.7275 40.8036 61.2987 40.5055 61.2221C40.1504 61.1314 39.8809 61.3436 39.7502 61.6963H39.7584Z" fill="#757575"/>
<path d="M22.2529 62.4874C24.0197 61.5182 26.2608 62.5391 27.8231 63.4845C29.3853 64.4304 30.6871 65.7411 31.7426 67.2162C33.556 69.7396 35.2856 72.9699 35.267 76.1772C35.267 76.7201 35.2205 77.3382 34.9136 77.8016C34.6068 78.265 34.0999 78.3542 33.5606 78.326C32.6632 78.2742 32.6679 79.6791 33.5606 79.7304C37.0431 79.9318 36.899 75.7933 36.2852 73.4196C35.6715 71.046 34.6161 68.9952 33.3188 67.0474C32.1285 65.2635 30.6546 63.6484 28.8506 62.4782C26.7769 61.1299 23.9035 59.9874 21.5508 61.2796C20.7604 61.7103 21.4671 62.9274 22.2529 62.4923V62.4874Z" fill="#757575"/>
<path d="M28.1951 34.8771C25.5952 34.988 23.7786 32.8587 22.5579 30.8161C22.0821 30.0164 20.8326 30.7438 21.3132 31.5435C22.7886 34.0148 25.0713 36.4525 28.1951 36.3175C28.5843 36.3031 28.9159 35.9996 28.9159 35.5949C28.9159 35.2144 28.5843 34.8579 28.1951 34.8723V34.8771Z" fill="#757575"/>
<path d="M19.8451 33.9623C21.2666 36.2154 23.3218 37.9064 25.7153 38.7261C26.5074 38.9978 26.8457 37.6394 26.0579 37.3724C23.9983 36.6698 22.1829 35.1942 20.9583 33.255C20.7614 32.9412 20.3931 32.8006 20.0806 33.002C19.798 33.1847 19.6524 33.6484 19.8494 33.9623H19.8451Z" fill="#757575"/>
<path d="M17.5437 32.4643C17.5575 32.4226 17.5712 32.3761 17.5804 32.3344C17.9013 31.3224 18.4789 30.3754 19.304 29.7163C20.1291 29.0571 21.211 28.709 22.2516 28.8668C22.7284 28.9411 23.2188 29.136 23.5031 29.5306C23.9798 30.1944 23.471 31.1553 22.7146 31.2621C22.2699 31.3271 21.9307 31.3085 21.5089 31.5313C21.1331 31.7309 20.7939 32.0094 20.4821 32.3018C20.1658 32.599 19.8312 32.9239 19.6707 33.337C19.4369 33.9405 19.6432 34.6646 18.8043 34.855C18.2451 34.9803 17.6995 34.5393 17.507 34.0287C17.3237 33.532 17.3924 32.975 17.5391 32.4643H17.5437Z" fill="white"/>
<path d="M18.2081 32.6503C18.5198 31.5919 19.1479 30.5846 20.1013 30.009C20.5735 29.7212 21.1144 29.5401 21.6691 29.5262C22.0954 29.5169 22.7005 29.5726 22.9618 29.9486C22.9801 29.9718 23.0031 30.074 23.0031 30.0136C23.0031 30.06 23.0077 30.1111 23.0031 30.1575C23.0077 30.0461 22.9985 30.19 22.9893 30.2179C22.9481 30.3525 22.8885 30.4314 22.7785 30.5103C22.618 30.6264 22.8197 30.5103 22.7143 30.5474C22.7097 30.5474 22.5768 30.5846 22.6134 30.5799C22.5126 30.6031 22.3613 30.6078 22.2421 30.6217C21.8571 30.6681 21.5133 30.7517 21.1649 30.9327C20.6056 31.2205 20.0922 31.6801 19.6613 32.1443C19.2304 32.6084 18.9874 33.082 18.8866 33.6854C18.8682 33.7922 18.8499 33.9036 18.8224 34.0057C18.8132 34.0475 18.7995 34.0846 18.7857 34.1264C18.8361 33.9918 18.7765 34.1543 18.749 34.1775L18.7765 34.131C18.8269 34.0985 18.8315 34.0985 18.7857 34.1218C18.749 34.1403 18.7444 34.1449 18.7857 34.1357C18.7444 34.1496 18.7078 34.1635 18.6619 34.1728C18.584 34.1867 18.5382 34.1775 18.474 34.1496C17.9331 33.8989 18.0706 33.133 18.2035 32.6503C18.4419 31.7868 17.1171 31.4155 16.8787 32.2789C16.6403 33.1423 16.6174 34.1589 17.2409 34.9016C17.7726 35.5422 18.7215 35.7882 19.4504 35.3472C20.0417 34.9898 20.1151 34.4096 20.2572 33.7875C20.3855 33.2259 20.9998 32.6966 21.4903 32.3578C21.7929 32.1489 22.068 32.0329 22.4209 31.9911C22.8151 31.9447 23.1865 31.9029 23.5257 31.6708C24.14 31.253 24.4792 30.4964 24.3371 29.7537C24.1812 28.9599 23.4386 28.4353 22.7005 28.2497C21.9258 28.0501 21.0732 28.1104 20.326 28.375C18.584 28.9877 17.3921 30.5242 16.8787 32.2743C16.6266 33.133 17.9514 33.5044 18.2035 32.6456L18.2081 32.6503Z" fill="#757575"/>
<path d="M71.7373 36.2616C71.7373 36.308 71.7373 36.3498 71.7282 36.3963C71.6549 37.4592 71.3157 38.513 70.6646 39.3532C70.0135 40.1934 69.0463 40.7922 68.001 40.8897C67.52 40.9361 66.9971 40.8618 66.6304 40.5462C66.0116 40.017 66.2819 38.9586 66.988 38.6754C67.4053 38.5083 67.7398 38.4433 68.0974 38.123C68.4183 37.8352 68.6795 37.4871 68.9181 37.1297C69.1561 36.7629 69.4039 36.3684 69.4636 35.9274C69.5504 35.2868 69.1793 34.6323 69.9542 34.247C70.4675 33.9917 71.1046 34.2888 71.4072 34.739C71.7007 35.1801 71.7648 35.7324 71.7417 36.2709L71.7373 36.2616Z" fill="white"/>
<path d="M71.0495 36.2619C70.9946 37.3899 70.5912 38.5272 69.7705 39.3163C69.4037 39.6691 68.9546 39.943 68.464 40.0869C68.0558 40.2076 67.4461 40.319 67.0842 40.0173C66.9054 39.8687 66.9372 39.6134 67.0934 39.4231C67.1849 39.3117 67.4187 39.2467 67.6066 39.1724C67.9324 39.0471 68.2211 38.9032 68.4914 38.6804C69.0047 38.2579 69.4129 37.6684 69.7382 37.0928C70.064 36.5172 70.183 35.988 70.1416 35.3567C70.1324 35.2407 70.1281 35.1293 70.1281 35.0132C70.1281 34.8925 70.1098 35.1014 70.1281 34.9854C70.1372 34.9389 70.197 34.86 70.1464 34.9204C70.2013 34.8507 70.3661 34.809 70.5223 34.8739C71.0404 35.0828 71.0587 35.7791 71.0447 36.2573C71.0172 37.1532 72.3926 37.1532 72.4201 36.2573C72.4476 35.4356 72.2779 34.5304 71.636 33.9641C70.9946 33.3978 70.1232 33.2585 69.4269 33.7367C68.73 34.2148 68.7575 34.86 68.7801 35.5981C68.7984 36.248 68.276 36.9211 67.8543 37.376C67.5975 37.6545 67.3502 37.7891 67.0018 37.9191C66.6534 38.0491 66.3184 38.2022 66.0664 38.4993C65.5989 39.0517 65.4524 39.8362 65.7546 40.5047C66.4789 42.1061 68.7801 41.6652 69.9536 40.9132C71.5261 39.9058 72.3237 38.0955 72.4153 36.2573C72.4611 35.3614 71.0861 35.366 71.0404 36.2573L71.0495 36.2619Z" fill="#757575"/>
<path d="M20.7502 65.0828C20.6531 64.1579 20.7965 63.2286 21.4393 62.5296C22.97 60.8686 26.2766 62.0233 27.9276 62.9574C32.1406 65.3359 37.3941 72.2272 35.8773 77.4072C35.6784 78.0833 35.2437 78.7135 34.6009 79.0081C31.9649 80.2228 28.0108 76.5467 26.3876 74.8676C24.2649 72.6735 22.4428 70.0418 21.3052 67.2033C21.0554 66.5779 20.8196 65.8281 20.741 65.0828H20.7502Z" fill="#EEEEEE" stroke="#757575" stroke-miterlimit="10"/>
<path d="M27.9521 47.2408C28.1835 48.8162 28.4903 50.3781 28.8826 51.9269C28.9731 52.2816 29.4308 52.4923 29.813 52.3981C30.2203 52.2991 30.4316 51.9269 30.3411 51.5679C29.9789 50.1406 29.6772 48.6771 29.466 47.2408C29.4157 46.8952 29.1541 46.5496 28.7116 46.5676C28.3495 46.581 27.9018 46.8683 27.9572 47.2408H27.9521Z" fill="#757575"/>
<path d="M65.6678 60.6506C65.6861 60.0145 65.5531 58.8867 64.7097 58.7843C63.5955 58.6497 63.3758 60.3765 63.0914 61.0731C62.8852 61.5838 62.5825 62.057 62.1974 62.4609C61.9271 62.7487 61.6109 62.9902 61.2808 63.2082C60.9734 63.4077 60.6249 63.5609 60.4235 63.877C60.1391 64.318 60.3546 64.8516 60.7628 65.1345C61.2852 65.4921 62.0095 65.3667 62.5873 65.2228C63.2519 65.056 63.77 64.6287 64.2008 64.1228C64.4071 63.8814 64.595 63.6306 64.7782 63.3755C65.342 62.5863 65.6355 61.6253 65.663 60.655L65.6678 60.6506Z" fill="white"/>
<path d="M66.3553 60.6506C66.3644 60.0565 66.2863 59.3877 65.9702 58.8774C65.5847 58.2599 64.8651 57.935 64.1591 58.1389C62.9813 58.4779 62.8343 59.8706 62.4492 60.8409C62.202 61.4721 61.6473 62.1218 61.0285 62.5399C60.35 62.9994 59.5567 63.4218 59.6165 64.3872C59.6714 65.2462 60.3866 65.8867 61.1933 66.0165C62.0001 66.1467 62.8941 65.9467 63.5861 65.5477C64.4112 65.0789 65.0671 64.2482 65.5572 63.4448C66.0478 62.6418 66.3182 61.6252 66.3553 60.6457C66.3871 59.7501 65.0116 59.7501 64.9798 60.6457C64.9292 61.9316 64.3244 63.0691 63.4165 63.9462C63.0039 64.3452 62.5182 64.5589 61.9586 64.6379C61.7114 64.675 60.9688 64.7121 60.9822 64.2853C60.9822 64.3453 61.0054 64.2389 61.0237 64.2199C61.0878 64.1457 61.1567 64.095 61.2439 64.0389C61.496 63.8765 61.748 63.7282 61.9866 63.5472C62.5639 63.1155 63.0589 62.5906 63.4213 61.955C63.6642 61.5326 63.8198 61.0867 63.9577 60.6228C64.0126 60.437 64.0675 60.256 64.1365 60.075C64.1316 60.0887 64.2141 59.8799 64.1774 59.9682C64.1408 60.0565 64.2324 59.8521 64.228 59.8657C64.2738 59.7687 64.3288 59.6755 64.3928 59.5872C64.2878 59.7311 64.5533 59.3833 64.4343 59.5316C64.4483 59.5131 64.5124 59.476 64.5307 59.4716C64.3837 59.5316 64.5533 59.4623 64.5808 59.4574C64.4757 59.4623 64.6545 59.4667 64.6729 59.4716C64.5856 59.4389 64.682 59.4716 64.7003 59.4852C64.8145 59.5457 64.6912 59.4531 64.7688 59.5457C64.6912 59.4482 64.8835 59.7638 64.8377 59.657C64.8835 59.7687 64.9157 59.8892 64.9384 60.0096C64.975 60.1726 64.9615 60.1028 64.975 60.2882C64.9842 60.4043 64.9842 60.5253 64.9798 60.6413C64.9615 61.537 66.3365 61.537 66.3553 60.6413V60.6506Z" fill="#757575"/>
</svg>
