<svg width="277" height="174" viewBox="0 0 277 174" fill="none" xmlns="http://www.w3.org/2000/svg">
<path d="M172 0H8C3.58172 0 0 3.58172 0 8V112C0 116.418 3.58172 120 8 120H172C176.418 120 180 116.418 180 112V8C180 3.58172 176.418 0 172 0Z" fill="#FFC6A6"/>
<path d="M140 18H20C18.3431 18 17 19.3431 17 21C17 22.6569 18.3431 24 20 24H140C141.657 24 143 22.6569 143 21C143 19.3431 141.657 18 140 18Z" fill="#FF843E"/>
<path d="M104 30H20C18.3431 30 17 31.3431 17 33C17 34.6569 18.3431 36 20 36H104C105.657 36 107 34.6569 107 33C107 31.3431 105.657 30 104 30Z" fill="#FF843E"/>
<path d="M54 42H20C18.3431 42 17 43.3431 17 45C17 46.6569 18.3431 48 20 48H54C55.6569 48 57 46.6569 57 45C57 43.3431 55.6569 42 54 42Z" fill="#FF843E"/>
<path d="M155 54H25C20.5817 54 17 57.5817 17 62V94C17 98.4183 20.5817 102 25 102H155C159.418 102 163 98.4183 163 94V62C163 57.5817 159.418 54 155 54Z" fill="#FF843E"/>
<path d="M269 54H105C100.582 54 97 57.5817 97 62V166C97 170.418 100.582 174 105 174H269C273.418 174 277 170.418 277 166V62C277 57.5817 273.418 54 269 54Z" fill="#FFA6A6"/>
<path d="M237 72H117C115.343 72 114 73.3431 114 75C114 76.6569 115.343 78 117 78H237C238.657 78 240 76.6569 240 75C240 73.3431 238.657 72 237 72Z" fill="#FF3E3E"/>
<path d="M201 84H117C115.343 84 114 85.3431 114 87C114 88.6569 115.343 90 117 90H201C202.657 90 204 88.6569 204 87C204 85.3431 202.657 84 201 84Z" fill="#FF3E3E"/>
<path d="M151 96H117C115.343 96 114 97.3431 114 99C114 100.657 115.343 102 117 102H151C152.657 102 154 100.657 154 99C154 97.3431 152.657 96 151 96Z" fill="#FF3E3E"/>
<path d="M252 108H122C117.582 108 114 111.582 114 116V148C114 152.418 117.582 156 122 156H252C256.418 156 260 152.418 260 148V116C260 111.582 256.418 108 252 108Z" fill="#FF3E3E"/>
</svg>
