<svg width="18" height="18" viewBox="0 0 18 18" fill="none" xmlns="http://www.w3.org/2000/svg">
<path d="M3.7168 14.2835L14.3502 3.65015L3.7168 14.2835Z" fill="#FF1515"/>
<path d="M3.7168 14.2835L14.3502 3.65015" stroke="#FF1515" stroke-width="2.5" stroke-miterlimit="10"/>
<path d="M6.00216 1.76304L6.00215 1.76304C5.05177 2.15669 4.18823 2.73369 3.46083 3.46108C1.9918 4.93012 1.1665 6.92256 1.1665 9.00008C1.1665 11.0776 1.9918 13.07 3.46084 14.5391C4.18823 15.2665 5.05176 15.8435 6.00214 16.2371C6.95254 16.6308 7.97117 16.8334 8.99984 16.8334C11.0774 16.8334 13.0698 16.0081 14.5389 14.5391C14.5389 14.5391 14.5389 14.5391 14.5389 14.5391M6.00216 1.76304L14.8924 3.10753C16.4552 4.67033 17.3332 6.78995 17.3332 9.00008C17.3332 11.2102 16.4552 13.3298 14.8924 14.8927L14.5389 14.5391M6.00216 1.76304C6.95254 1.36937 7.97117 1.16675 8.99984 1.16675C11.0774 1.16675 13.0698 1.99205 14.5389 3.46108M6.00216 1.76304L14.5389 3.46108M14.5389 14.5391C16.0079 13.07 16.8332 11.0776 16.8332 9.00008C16.8332 6.92256 16.0079 4.93012 14.5389 3.46108M14.5389 14.5391L14.5389 3.46108M15.7498 9.00008V8.99943C15.7475 7.21011 15.0356 5.49478 13.7704 4.22956L13.7704 4.22955C12.5051 2.96432 10.7898 2.25247 9.0005 2.25008L8.99917 2.25008C7.20988 2.25247 5.49453 2.96432 4.2293 4.22955C2.96407 5.49478 2.25222 7.21012 2.24984 8.99941V9.00008C2.24984 10.7903 2.961 12.5072 4.22687 13.7731C5.49273 15.0389 7.20964 15.7501 8.99984 15.7501C10.79 15.7501 12.507 15.0389 13.7728 13.7731C15.0387 12.5072 15.7498 10.7903 15.7498 9.00008Z" fill="#FF1515" stroke="#FF1515"/>
</svg>
