<svg width="76" height="78" viewBox="0 0 76 78" fill="none" xmlns="http://www.w3.org/2000/svg">
<path d="M6.85769 16.1982H14.214C17.1879 16.1982 19.599 18.6099 19.599 21.585V36.7926C19.599 39.7678 17.1879 42.1794 14.214 42.1794H6.85769C3.88376 42.1794 1.47266 39.7678 1.47266 36.7926V21.585C1.47266 18.6099 3.88376 16.1982 6.85769 16.1982Z" fill="#424242" stroke="#424242"/>
<path d="M37.9997 78.0003C58.9906 78.0003 76.0072 60.9787 76.0072 39.9814C76.0072 18.9841 58.9906 1.9624 37.9997 1.9624C17.0087 1.9624 -0.0078125 18.9841 -0.0078125 39.9814C-0.0078125 60.9787 17.0087 78.0003 37.9997 78.0003Z" fill="#FF7439"/>
<path d="M16.4266 35.5267C14.6316 35.5267 13.0182 34.8742 11.8362 33.6576C11.4684 33.2799 11.4782 32.6814 11.8559 32.3135C12.2335 31.9505 12.8318 31.9554 13.1996 32.3331C14.102 33.2603 15.3918 33.7165 16.8238 33.6135C18.3196 33.5105 19.7908 32.8237 20.9629 31.6806C21.3406 31.3176 21.9389 31.3225 22.3067 31.7003C22.6745 32.078 22.6647 32.6765 22.2871 33.0444C20.7913 34.5014 18.8983 35.3795 16.9562 35.512C16.7797 35.5218 16.6031 35.5316 16.4315 35.5316L16.4266 35.5267Z" fill="black"/>
<path d="M23.0075 33.9621C21.3204 33.9621 19.9473 32.3972 19.9473 30.479C19.9473 29.9541 20.3739 29.5273 20.8987 29.5273C21.4234 29.5273 21.8501 29.9541 21.8501 30.479C21.8501 31.3375 22.3797 32.0636 23.0124 32.0636C23.5371 32.0636 23.9638 32.4904 23.9638 33.0153C23.9638 33.5402 23.5371 33.967 23.0124 33.967L23.0075 33.9621Z" fill="black"/>
<path d="M25.332 28.9089C25.2241 28.9089 25.1113 28.8893 25.0034 28.85L18.8585 26.5934C18.4907 26.461 18.2455 26.1127 18.2356 25.7202C18.2258 25.3278 18.4612 24.9746 18.8192 24.8225L24.9642 22.2617C25.4497 22.0606 26.0039 22.2912 26.205 22.7719C26.406 23.2576 26.1755 23.8119 25.6949 24.0131L21.7863 25.6417L25.6557 27.0595C26.1461 27.241 26.4011 27.7855 26.2197 28.281C26.0775 28.6636 25.7145 28.904 25.3271 28.904L25.332 28.9089Z" fill="black"/>
<path d="M46.5823 18.6509H53.9386C56.9125 18.6509 59.3236 21.0625 59.3236 24.0377V39.2453C59.3236 42.2205 56.9125 44.6321 53.9386 44.6321H46.5823C43.6084 44.6321 41.1973 42.2205 41.1973 39.2453V24.0377C41.1973 21.0625 43.6084 18.6509 46.5823 18.6509Z" fill="#424242" stroke="#424242"/>
<path d="M53.0997 28.4435C52.9558 28.4435 52.7611 28.2981 52.7611 28.0261C52.7611 13.3951 42.6919 1.33963 30.1432 1.33963C21.5119 1.33963 13.5397 7.30743 9.7801 16.4436C9.78011 16.4436 9.78008 16.4436 9.78002 16.4437C9.77748 16.4474 9.71912 16.5322 9.49064 16.5787C9.28893 16.6197 9.10341 16.5966 9.01106 16.5605C9.01612 16.5198 9.02996 16.4608 9.05821 16.377C9.08949 16.2842 9.13032 16.184 9.17931 16.0646C13.0946 6.57108 21.3444 0.5 30.1481 0.5C42.9169 0.5 53.4383 12.7694 53.4383 28.0261C53.4383 28.3 53.2467 28.4435 53.0997 28.4435Z" fill="#424242" stroke="#424242"/>
<path d="M16.2816 19.0268C20.1016 14.9959 21.9043 10.5014 20.3082 8.98783C18.7121 7.47431 14.3215 9.51498 10.5016 13.5458C6.68164 17.5766 4.87887 22.0712 6.47498 23.5847C8.0711 25.0982 12.4617 23.0576 16.2816 19.0268Z" fill="#FF7439"/>
<path d="M15.9209 26.0293H15.9111L9.25122 25.9655C8.72647 25.9606 8.30471 25.5289 8.30961 25.004C8.31452 24.484 8.74118 24.0621 9.26103 24.0621H9.27083L13.5032 24.1063L10.5067 21.2806C10.1242 20.9225 10.1095 20.3191 10.4675 19.9364C10.8255 19.5538 11.4287 19.5391 11.8112 19.8972L16.5732 24.3908C16.8576 24.6606 16.9508 25.0727 16.8037 25.4357C16.6565 25.7938 16.3084 26.0293 15.9209 26.0293Z" fill="black"/>
<path d="M54.2998 47.6802C55.1318 47.6802 55.8145 47.7975 56.3478 48.0322C56.8811 48.2668 57.3025 48.6295 57.6118 49.1202C57.8251 49.4508 57.9905 49.8295 58.1078 50.2562C58.2251 50.6722 58.2838 51.1468 58.2838 51.6802C58.2838 52.1282 58.2411 52.5868 58.1558 53.0562C58.0705 53.5255 57.9478 53.9788 57.7878 54.4162C57.6278 54.8535 57.4358 55.2695 57.2118 55.6642C56.9985 56.0482 56.7585 56.3842 56.4918 56.6722C56.0118 57.2055 55.4625 57.5842 54.8438 57.8082C54.2251 58.0215 53.4731 58.1282 52.5878 58.1282C51.7345 58.1282 51.0411 58.0322 50.5078 57.8402C49.9851 57.6482 49.5691 57.3388 49.2598 56.9122C49.0038 56.6028 48.8118 56.2135 48.6838 55.7442C48.5665 55.2642 48.5078 54.7095 48.5078 54.0802C48.5078 53.5148 48.5611 52.9655 48.6678 52.4322C48.7745 51.8882 48.9291 51.3815 49.1318 50.9122C49.3451 50.4428 49.6011 50.0162 49.8998 49.6322C50.1985 49.2482 50.5398 48.9228 50.9238 48.6562C51.3718 48.3362 51.8678 48.0962 52.4118 47.9362C52.9665 47.7655 53.5958 47.6802 54.2998 47.6802ZM52.5558 57.0082C52.7691 57.0082 52.9718 56.8962 53.1638 56.6722C53.3665 56.4482 53.5531 56.1548 53.7238 55.7922C53.8945 55.4188 54.0438 54.9975 54.1718 54.5282C54.3105 54.0482 54.4278 53.5575 54.5238 53.0562C54.6198 52.5442 54.6945 52.0482 54.7478 51.5682C54.8011 51.0775 54.8278 50.6295 54.8278 50.2242C54.8278 49.6802 54.7798 49.3068 54.6838 49.1042C54.5878 48.8908 54.4491 48.7842 54.2678 48.7842C54.0438 48.7842 53.8305 48.8962 53.6278 49.1202C53.4251 49.3335 53.2385 49.6215 53.0678 49.9842C52.8971 50.3362 52.7371 50.7468 52.5878 51.2162C52.4491 51.6855 52.3265 52.1655 52.2198 52.6562C52.1238 53.1468 52.0491 53.6322 51.9958 54.1122C51.9425 54.5922 51.9158 55.0295 51.9158 55.4242C51.9158 56.0215 51.9745 56.4375 52.0918 56.6722C52.2091 56.8962 52.3638 57.0082 52.5558 57.0082Z" fill="#FFC6A6"/>
<path d="M42.6287 49.4883C43.29 49.3923 43.8873 49.195 44.4207 48.8963C44.9647 48.5977 45.3967 48.2457 45.7167 47.8403H48.1647L45.9887 58.0003H42.5327L44.1167 50.5603H42.3887L42.6287 49.4883Z" fill="#FFC6A6"/>
</svg>
