<svg width="76" height="78" viewBox="0 0 76 78" fill="none" xmlns="http://www.w3.org/2000/svg">
<path d="M6.85769 16.1982H14.214C17.1879 16.1982 19.599 18.6099 19.599 21.585V36.7926C19.599 39.7678 17.1879 42.1794 14.214 42.1794H6.85769C3.88376 42.1794 1.47266 39.7678 1.47266 36.7926V21.585C1.47266 18.6099 3.88376 16.1982 6.85769 16.1982Z" fill="#424242" stroke="#424242"/>
<path d="M37.9997 78.0003C58.9906 78.0003 76.0072 60.9787 76.0072 39.9814C76.0072 18.9841 58.9906 1.9624 37.9997 1.9624C17.0087 1.9624 -0.0078125 18.9841 -0.0078125 39.9814C-0.0078125 60.9787 17.0087 78.0003 37.9997 78.0003Z" fill="#FF1515"/>
<path d="M16.4266 35.5267C14.6316 35.5267 13.0182 34.8742 11.8362 33.6576C11.4684 33.2799 11.4782 32.6814 11.8559 32.3135C12.2335 31.9505 12.8318 31.9554 13.1996 32.3331C14.102 33.2603 15.3918 33.7165 16.8238 33.6135C18.3196 33.5105 19.7908 32.8237 20.9629 31.6806C21.3406 31.3176 21.9389 31.3225 22.3067 31.7003C22.6745 32.078 22.6647 32.6765 22.2871 33.0444C20.7913 34.5014 18.8983 35.3795 16.9562 35.512C16.7797 35.5218 16.6031 35.5316 16.4315 35.5316L16.4266 35.5267Z" fill="black"/>
<path d="M23.0075 33.9621C21.3204 33.9621 19.9473 32.3972 19.9473 30.479C19.9473 29.9541 20.3739 29.5273 20.8987 29.5273C21.4234 29.5273 21.8501 29.9541 21.8501 30.479C21.8501 31.3375 22.3797 32.0636 23.0124 32.0636C23.5371 32.0636 23.9638 32.4904 23.9638 33.0153C23.9638 33.5402 23.5371 33.967 23.0124 33.967L23.0075 33.9621Z" fill="black"/>
<path d="M25.332 28.9089C25.2241 28.9089 25.1113 28.8893 25.0034 28.85L18.8585 26.5934C18.4907 26.461 18.2455 26.1127 18.2356 25.7202C18.2258 25.3278 18.4612 24.9746 18.8192 24.8225L24.9642 22.2617C25.4497 22.0606 26.0039 22.2912 26.205 22.7719C26.406 23.2576 26.1755 23.8119 25.6949 24.0131L21.7863 25.6417L25.6557 27.0595C26.1461 27.241 26.4011 27.7855 26.2197 28.281C26.0775 28.6636 25.7145 28.904 25.3271 28.904L25.332 28.9089Z" fill="black"/>
<path d="M46.5823 18.6509H53.9386C56.9125 18.6509 59.3236 21.0625 59.3236 24.0377V39.2453C59.3236 42.2205 56.9125 44.6321 53.9386 44.6321H46.5823C43.6084 44.6321 41.1973 42.2205 41.1973 39.2453V24.0377C41.1973 21.0625 43.6084 18.6509 46.5823 18.6509Z" fill="#424242" stroke="#424242"/>
<path d="M53.0997 28.4435C52.9558 28.4435 52.7611 28.2981 52.7611 28.0261C52.7611 13.3951 42.6919 1.33963 30.1432 1.33963C21.5119 1.33963 13.5397 7.30743 9.7801 16.4436C9.78011 16.4436 9.78008 16.4436 9.78002 16.4437C9.77748 16.4474 9.71912 16.5322 9.49064 16.5787C9.28893 16.6197 9.10341 16.5966 9.01106 16.5605C9.01612 16.5198 9.02996 16.4608 9.05821 16.377C9.08949 16.2842 9.13032 16.184 9.17931 16.0646C13.0946 6.57108 21.3444 0.5 30.1481 0.5C42.9169 0.5 53.4383 12.7694 53.4383 28.0261C53.4383 28.3 53.2467 28.4435 53.0997 28.4435Z" fill="#424242" stroke="#424242"/>
<path d="M16.2816 19.0268C20.1016 14.9959 21.9043 10.5014 20.3082 8.98783C18.7121 7.47431 14.3215 9.51498 10.5016 13.5458C6.68164 17.5766 4.87887 22.0712 6.47498 23.5847C8.0711 25.0982 12.4617 23.0576 16.2816 19.0268Z" fill="#FF1515"/>
<path d="M15.9209 26.0293H15.9111L9.25122 25.9655C8.72647 25.9606 8.30471 25.5289 8.30961 25.004C8.31452 24.484 8.74118 24.0621 9.26103 24.0621H9.27083L13.5032 24.1063L10.5067 21.2806C10.1242 20.9225 10.1095 20.3191 10.4675 19.9364C10.8255 19.5538 11.4287 19.5391 11.8112 19.8972L16.5732 24.3908C16.8576 24.6606 16.9508 25.0727 16.8037 25.4357C16.6565 25.7938 16.3084 26.0293 15.9209 26.0293Z" fill="black"/>
<path d="M56.4483 47.6802C57.2803 47.6802 57.9629 47.7975 58.4963 48.0322C59.0296 48.2668 59.4509 48.6295 59.7603 49.1202C59.9736 49.4508 60.1389 49.8295 60.2562 50.2562C60.3736 50.6722 60.4323 51.1468 60.4323 51.6802C60.4323 52.1282 60.3896 52.5868 60.3042 53.0562C60.2189 53.5255 60.0962 53.9788 59.9362 54.4162C59.7762 54.8535 59.5842 55.2695 59.3602 55.6642C59.1469 56.0482 58.9069 56.3842 58.6403 56.6722C58.1603 57.2055 57.6109 57.5842 56.9922 57.8082C56.3736 58.0215 55.6216 58.1282 54.7363 58.1282C53.8829 58.1282 53.1896 58.0322 52.6562 57.8402C52.1336 57.6482 51.7176 57.3388 51.4082 56.9122C51.1522 56.6028 50.9602 56.2135 50.8322 55.7442C50.7149 55.2642 50.6562 54.7095 50.6562 54.0802C50.6562 53.5148 50.7096 52.9655 50.8162 52.4322C50.9229 51.8882 51.0776 51.3815 51.2802 50.9122C51.4936 50.4428 51.7496 50.0162 52.0483 49.6322C52.3469 49.2482 52.6883 48.9228 53.0723 48.6562C53.5203 48.3362 54.0163 48.0962 54.5603 47.9362C55.1149 47.7655 55.7443 47.6802 56.4483 47.6802ZM54.7043 57.0082C54.9176 57.0082 55.1203 56.8962 55.3123 56.6722C55.5149 56.4482 55.7016 56.1548 55.8723 55.7922C56.0429 55.4188 56.1923 54.9975 56.3203 54.5282C56.4589 54.0482 56.5762 53.5575 56.6722 53.0562C56.7682 52.5442 56.8429 52.0482 56.8963 51.5682C56.9496 51.0775 56.9763 50.6295 56.9763 50.2242C56.9763 49.6802 56.9282 49.3068 56.8322 49.1042C56.7362 48.8908 56.5976 48.7842 56.4162 48.7842C56.1922 48.7842 55.9789 48.8962 55.7762 49.1202C55.5736 49.3335 55.3869 49.6215 55.2163 49.9842C55.0456 50.3362 54.8856 50.7468 54.7363 51.2162C54.5976 51.6855 54.4749 52.1655 54.3683 52.6562C54.2723 53.1468 54.1976 53.6322 54.1442 54.1122C54.0909 54.5922 54.0642 55.0295 54.0642 55.4242C54.0642 56.0215 54.1229 56.4375 54.2403 56.6722C54.3576 56.8962 54.5123 57.0082 54.7043 57.0082Z" fill="#FFC6A6"/>
<path d="M44.0722 58.1282C43.3149 58.1282 42.6482 58.0322 42.0722 57.8402C41.4962 57.6375 40.9415 57.2855 40.4082 56.7842L40.9202 54.3842H43.6242C43.6242 54.3735 43.6135 54.4108 43.5922 54.4962C43.5815 54.5815 43.5655 54.6935 43.5442 54.8322C43.5335 54.9708 43.5175 55.1255 43.4962 55.2962C43.4855 55.4668 43.4802 55.6322 43.4802 55.7922C43.4802 56.2295 43.5335 56.5442 43.6402 56.7362C43.7575 56.9175 43.9175 57.0082 44.1202 57.0082C44.3442 57.0082 44.5522 56.9335 44.7442 56.7842C44.9469 56.6348 45.1175 56.4482 45.2562 56.2242C45.3949 56.0002 45.5015 55.7548 45.5762 55.4882C45.6615 55.2108 45.7042 54.9442 45.7042 54.6882C45.7042 54.1975 45.5762 53.8348 45.3202 53.6002C45.0749 53.3548 44.7709 53.2322 44.4082 53.2322C44.4402 53.0295 44.4775 52.8482 44.5202 52.6882C44.5522 52.5495 44.5789 52.4268 44.6002 52.3202C44.6322 52.2028 44.6482 52.1388 44.6482 52.1282C45.0002 52.1282 45.2935 52.0748 45.5282 51.9682C45.7735 51.8508 45.9709 51.6962 46.1202 51.5042C46.2802 51.3015 46.3922 51.0668 46.4562 50.8002C46.5202 50.5228 46.5522 50.2295 46.5522 49.9202C46.5522 49.7922 46.5415 49.6642 46.5202 49.5362C46.5095 49.3975 46.4829 49.2748 46.4402 49.1682C46.3975 49.0508 46.3335 48.9602 46.2482 48.8962C46.1735 48.8215 46.0669 48.7842 45.9282 48.7842C45.6402 48.7842 45.3575 48.9548 45.0802 49.2962C44.8135 49.6375 44.5735 50.2188 44.3602 51.0402H41.6082L42.0882 48.7842C42.4082 48.5815 42.7762 48.4002 43.1922 48.2402C43.5442 48.1015 43.9655 47.9735 44.4562 47.8562C44.9575 47.7388 45.5282 47.6802 46.1682 47.6802C46.5842 47.6802 47.0002 47.7175 47.4162 47.7922C47.8322 47.8562 48.2055 47.9788 48.5362 48.1602C48.8775 48.3415 49.1495 48.5868 49.3522 48.8962C49.5655 49.2055 49.6722 49.6002 49.6722 50.0802C49.6722 50.4428 49.6082 50.7628 49.4802 51.0402C49.3629 51.3068 49.1869 51.5468 48.9522 51.7602C48.7175 51.9735 48.4349 52.1655 48.1042 52.3362C47.7842 52.5068 47.4162 52.6668 47.0002 52.8162C47.3202 52.8482 47.6189 52.9122 47.8962 53.0082C48.1735 53.1042 48.4135 53.2375 48.6162 53.4082C48.8295 53.5788 48.9949 53.7868 49.1122 54.0322C49.2402 54.2775 49.3042 54.5708 49.3042 54.9122C49.3042 55.3708 49.1815 55.7975 48.9362 56.1922C48.6909 56.5868 48.3389 56.9282 47.8802 57.2162C47.4322 57.5042 46.8829 57.7282 46.2322 57.8882C45.5922 58.0482 44.8722 58.1282 44.0722 58.1282Z" fill="#FFC6A6"/>
</svg>
