<svg width="197" height="245" viewBox="0 0 197 245" fill="none" xmlns="http://www.w3.org/2000/svg">
<g clip-path="url(#clip0_1_3)">
<path d="M33.3318 166.84C32.3474 164.064 24.9 166.845 22.4353 165.671C19.9706 164.496 17.438 156.961 14.6624 157.945C11.8868 158.93 14.6676 166.377 13.4934 168.842C12.3187 171.305 4.7837 173.839 5.76803 176.615C6.75236 179.39 14.1998 176.609 16.6645 177.784C19.1292 178.958 21.6617 186.493 24.4374 185.509C27.213 184.525 24.4322 177.077 25.6064 174.613C26.7806 172.148 34.3161 169.615 33.3318 166.84Z" fill="#FF9810"/>
</g>
<rect x="23" width="151" height="42" rx="8" fill="white"/>
<path d="M55.71 25.7266H44.417V24.4551H55.71V25.7266ZM54.7188 17.2295H45.333V15.999H54.7188V17.2295ZM54.6709 22.3701H45.3809V21.1533H54.6709V22.3701ZM48.6416 21.2832H47.1172V17.1064H48.6416V21.2832ZM52.9141 21.2832H51.417V17.1064H52.9141V21.2832ZM105.824 27.2031H104.32V14.8574H105.824V27.2031ZM107.731 21.0371H105.482V19.7861H107.731V21.0371ZM103.363 17.9746H96.083V16.751H103.363V17.9746ZM99.7607 18.7744C100.358 18.7744 100.891 18.8997 101.36 19.1504C101.834 19.3965 102.206 19.7406 102.475 20.1826C102.743 20.6247 102.878 21.126 102.878 21.6865C102.878 22.2425 102.743 22.7438 102.475 23.1904C102.206 23.6325 101.834 23.9766 101.36 24.2227C100.891 24.4688 100.358 24.5918 99.7607 24.5918C99.1683 24.5918 98.6351 24.4688 98.1611 24.2227C97.6872 23.9766 97.3158 23.6325 97.0469 23.1904C96.7826 22.7438 96.6504 22.2425 96.6504 21.6865C96.6504 21.126 96.7826 20.6247 97.0469 20.1826C97.3158 19.7406 97.6872 19.3965 98.1611 19.1504C98.6351 18.8997 99.1683 18.7744 99.7607 18.7744ZM99.7607 20.0254C99.4463 20.0254 99.1615 20.0938 98.9062 20.2305C98.6556 20.3672 98.4574 20.5609 98.3115 20.8115C98.1702 21.0622 98.0996 21.3538 98.0996 21.6865C98.0996 22.0146 98.1702 22.304 98.3115 22.5547C98.4574 22.8053 98.6556 22.999 98.9062 23.1357C99.1615 23.2679 99.4463 23.334 99.7607 23.334C100.084 23.334 100.371 23.2679 100.622 23.1357C100.873 22.999 101.069 22.8053 101.21 22.5547C101.351 22.304 101.422 22.0146 101.422 21.6865C101.422 21.3538 101.351 21.0622 101.21 20.8115C101.069 20.5609 100.873 20.3672 100.622 20.2305C100.371 20.0938 100.084 20.0254 99.7607 20.0254ZM100.513 17.2432H99.002V15.0352H100.513V17.2432ZM112.366 18.3574C112.366 19.2689 112.223 20.1598 111.936 21.0303C111.653 21.9007 111.247 22.6755 110.719 23.3545C110.19 24.029 109.577 24.5326 108.88 24.8652L107.984 23.6689C108.622 23.3636 109.181 22.9261 109.659 22.3564C110.138 21.7868 110.507 21.1533 110.767 20.4561C111.031 19.7588 111.163 19.0592 111.163 18.3574V16.7305H112.366V18.3574ZM112.681 18.3574C112.681 19.0091 112.801 19.6631 113.043 20.3193C113.289 20.9756 113.647 21.5749 114.116 22.1172C114.586 22.6549 115.135 23.0697 115.764 23.3613L114.909 24.5576C114.212 24.2295 113.604 23.7441 113.084 23.1016C112.564 22.4544 112.166 21.7184 111.888 20.8936C111.61 20.0687 111.471 19.2233 111.471 18.3574V16.7305H112.681V18.3574ZM115.265 17.3252H108.463V16.0811H115.265V17.3252ZM117.924 27.2031H116.406V14.8574H117.924V27.2031ZM119.831 20.9482H117.582V19.6699H119.831V20.9482Z" fill="#FF1515"/>
<path d="M67.8096 25.7812H56.5166V24.5303H67.8096V25.7812ZM62.8809 25.0635H61.3838V22.0898H62.8809V25.0635ZM66.4629 19.6699H59.3672V21.9121H57.8496V18.4736H64.9658V16.9287H57.8291V15.6982H66.4629V19.6699ZM66.7568 22.5068H57.8496V21.2695H66.7568V22.5068ZM75.8281 19.1982H73.75V17.9609H75.8281V19.1982ZM76.7441 22.3154H75.2881V15.1172H76.7441V22.3154ZM72.1436 17.5098C72.1436 18.1979 72.0387 18.8519 71.8291 19.4717C71.624 20.0869 71.3096 20.6361 70.8857 21.1191C70.4665 21.5977 69.9424 21.9668 69.3135 22.2266L68.5137 21.0371C69.056 20.8229 69.5094 20.5312 69.874 20.1621C70.2386 19.7884 70.5075 19.3737 70.6807 18.918C70.8584 18.4622 70.9473 17.9928 70.9473 17.5098V16.6143H72.1436V17.5098ZM72.4238 17.5166C72.4238 17.9723 72.5081 18.4121 72.6768 18.8359C72.8499 19.2552 73.1097 19.638 73.4561 19.9844C73.8024 20.3262 74.2308 20.5996 74.7412 20.8047L73.9688 21.9668C73.3672 21.7298 72.8613 21.3835 72.4512 20.9277C72.0456 20.472 71.7448 19.9525 71.5488 19.3691C71.3529 18.7858 71.2549 18.1683 71.2549 17.5166V16.6143H72.4238V17.5166ZM74.3789 17.0176H68.8623V15.7939H74.3789V17.0176ZM79.1777 22.4043H77.7285V14.8574H79.1777V22.4043ZM79.1777 27.2031H77.6738V24.0928H70.7148V22.876H79.1777V27.2031ZM90.751 22.5479H82.083V21.3447H90.751V22.5479ZM92.0088 25.7129H80.7158V24.4756H92.0088V25.7129ZM90.6416 17.0654H83.6279V21.6729H82.083V15.8213H90.6416V17.0654ZM90.3613 19.7383H83.1699V18.542H90.3613V19.7383ZM121.608 28.8574H120.31L121.014 25.0225H122.757L121.608 28.8574ZM131.466 17.0928H124.767V15.8623H131.466V17.0928ZM124.432 20.5518C125.79 20.5563 127.111 20.5358 128.396 20.4902C129.686 20.4447 130.885 20.3512 131.992 20.21L132.095 21.3037C130.978 21.5088 129.8 21.6432 128.561 21.707C127.321 21.7708 126.002 21.8027 124.603 21.8027L124.432 20.5518ZM127.303 21.0781H125.84V16.7852H127.303V21.0781ZM130.372 21.0781H128.909V16.7852H130.372V21.0781ZM134.515 23.2041H132.99V14.8574H134.515V23.2041ZM130.878 22.7529C130.878 23.4912 130.682 24.168 130.29 24.7832C129.898 25.3939 129.349 25.902 128.643 26.3076C127.936 26.7178 127.116 26.998 126.182 27.1484L125.573 25.9795C126.389 25.8473 127.1 25.624 127.706 25.3096C128.312 24.9951 128.775 24.6169 129.094 24.1748C129.417 23.7327 129.579 23.2588 129.579 22.7529V22.541H130.878V22.7529ZM131.172 22.7529C131.172 23.2588 131.331 23.7327 131.65 24.1748C131.969 24.6169 132.43 24.9951 133.031 25.3096C133.637 25.624 134.346 25.8473 135.157 25.9795L134.583 27.1484C133.644 26.998 132.819 26.7178 132.108 26.3076C131.397 25.902 130.846 25.3939 130.454 24.7832C130.067 24.168 129.873 23.4912 129.873 22.7529V22.541H131.172V22.7529ZM140.448 18.3574C140.448 19.2689 140.305 20.1598 140.018 21.0303C139.735 21.9007 139.329 22.6755 138.801 23.3545C138.272 24.029 137.659 24.5326 136.962 24.8652L136.066 23.6689C136.704 23.3636 137.263 22.9261 137.741 22.3564C138.22 21.7868 138.589 21.1533 138.849 20.4561C139.113 19.7588 139.245 19.0592 139.245 18.3574V16.7305H140.448V18.3574ZM140.763 18.3574C140.763 19.0091 140.883 19.6631 141.125 20.3193C141.371 20.9756 141.729 21.5749 142.198 22.1172C142.668 22.6549 143.217 23.0697 143.846 23.3613L142.991 24.5576C142.294 24.2295 141.686 23.7441 141.166 23.1016C140.646 22.4544 140.248 21.7184 139.97 20.8936C139.692 20.0687 139.553 19.2233 139.553 18.3574V16.7305H140.763V18.3574ZM143.347 17.3252H136.545V16.0811H143.347V17.3252ZM146.006 27.2031H144.488V14.8574H146.006V27.2031ZM147.913 20.9482H145.664V19.6699H147.913V20.9482ZM150.812 23.0947H149.267L149.116 16.1016H150.969L150.812 23.0947ZM150.046 26.1094C149.854 26.1094 149.677 26.0615 149.513 25.9658C149.349 25.8656 149.219 25.7357 149.123 25.5762C149.032 25.4121 148.986 25.2344 148.986 25.043C148.986 24.8561 149.032 24.6829 149.123 24.5234C149.219 24.3594 149.349 24.2318 149.513 24.1406C149.677 24.0449 149.854 23.9971 150.046 23.9971C150.233 23.9971 150.406 24.0449 150.565 24.1406C150.729 24.2318 150.859 24.3594 150.955 24.5234C151.051 24.6829 151.099 24.8561 151.099 25.043C151.099 25.2344 151.051 25.4121 150.955 25.5762C150.859 25.7357 150.729 25.8656 150.565 25.9658C150.406 26.0615 150.233 26.1094 150.046 26.1094Z" fill="#424242"/>
<path d="M98 56L88.4737 39.5L107.526 39.5L98 56Z" fill="white"/>
<g clip-path="url(#clip1_1_3)">
<path d="M3.85126 130.582L1.194 115.967L74.7997 102.533L77.4569 117.148L3.85126 130.582ZM4.41017 101.249L12.7937 89.3286L74.3139 132.268L65.9791 144.457L4.41017 101.249ZM25.43 81.2037L39.7532 78.5895L53.1614 152.338L38.8382 154.952L25.43 81.2037ZM54.5699 81.7038L66.6103 89.8965L24.2029 152.082L12.0894 143.487L54.5699 81.7038Z" fill="#FF9559"/>
<ellipse cx="98.6049" cy="209.366" rx="93.6532" ry="34.0498" fill="#FFC6A6"/>
<path d="M113.36 100.883H44.9103C34.1903 100.883 25.5 109.59 25.5 120.331V188.335C25.5 199.076 34.1903 207.783 44.9103 207.783H113.36C124.08 207.783 132.77 199.076 132.77 188.335V120.331C132.77 109.59 124.08 100.883 113.36 100.883Z" fill="#EAEAEA"/>
<path d="M45.8824 100.091H112.032C123.476 100.091 132.77 109.403 132.77 120.869V132.557H25.5V120.513C25.5 109.245 34.6361 100.091 45.8824 100.091Z" fill="#53ACFF"/>
<path d="M46.3803 140.476H37.0229C35.0238 140.476 33.4032 142.099 33.4032 144.102V153.478C33.4032 155.481 35.0238 157.105 37.0229 157.105H46.3803C48.3794 157.105 50 155.481 50 153.478V144.102C50 142.099 48.3794 140.476 46.3803 140.476Z" fill="#C6C6C6"/>
<path d="M67.719 140.476H58.3616C56.3625 140.476 54.7419 142.099 54.7419 144.102V153.478C54.7419 155.481 56.3625 157.105 58.3616 157.105H67.719C69.7181 157.105 71.3387 155.481 71.3387 153.478V144.102C71.3387 142.099 69.7181 140.476 67.719 140.476Z" fill="#C6C6C6"/>
<path d="M89.0577 140.476H79.7002C77.7012 140.476 76.0806 142.099 76.0806 144.102V153.478C76.0806 155.481 77.7012 157.105 79.7002 157.105H89.0577C91.0568 157.105 92.6773 155.481 92.6773 153.478V144.102C92.6773 142.099 91.0568 140.476 89.0577 140.476Z" fill="#C6C6C6"/>
<path d="M46.3803 160.271H37.0229C35.0238 160.271 33.4032 161.895 33.4032 163.898V173.274C33.4032 175.277 35.0238 176.9 37.0229 176.9H46.3803C48.3794 176.9 50 175.277 50 173.274V163.898C50 161.895 48.3794 160.271 46.3803 160.271Z" fill="#C6C6C6"/>
<path d="M46.3803 181.652H37.0229C35.0238 181.652 33.4032 183.276 33.4032 185.279V194.655C33.4032 196.658 35.0238 198.281 37.0229 198.281H46.3803C48.3794 198.281 50 196.658 50 194.655V185.279C50 183.276 48.3794 181.652 46.3803 181.652Z" fill="#C6C6C6"/>
<path d="M67.719 160.271H58.3616C56.3625 160.271 54.7419 161.895 54.7419 163.898V173.274C54.7419 175.277 56.3625 176.9 58.3616 176.9H67.719C69.7181 176.9 71.3387 175.277 71.3387 173.274V163.898C71.3387 161.895 69.7181 160.271 67.719 160.271Z" fill="#C6C6C6"/>
<path d="M95.0484 95.3398H83.1936C77.9558 95.3398 73.7097 99.5942 73.7097 104.842V129.39C73.7097 134.638 77.9558 138.892 83.1936 138.892H95.0484C100.286 138.892 104.532 134.638 104.532 129.39V104.842C104.532 99.5942 100.286 95.3398 95.0484 95.3398Z" fill="black"/>
<path d="M133.379 195.905C167.206 195.905 194.629 168.429 194.629 134.536C194.629 100.643 167.206 73.167 133.379 73.167C99.5516 73.167 72.129 100.643 72.129 134.536C72.129 168.429 99.5516 195.905 133.379 195.905Z" fill="#FF1515"/>
<path d="M98.6128 127.347C95.7202 127.347 93.12 126.294 91.2154 124.33C90.6226 123.72 90.6384 122.754 91.247 122.16C91.8555 121.574 92.8197 121.582 93.4125 122.192C94.8667 123.689 96.9452 124.425 99.2529 124.259C101.663 124.092 104.034 122.984 105.923 121.139C106.532 120.553 107.496 120.561 108.089 121.17C108.681 121.78 108.666 122.746 108.057 123.34C105.647 125.692 102.596 127.109 99.4663 127.323C99.1818 127.339 98.8973 127.355 98.6207 127.355L98.6128 127.347Z" fill="black"/>
<path d="M109.219 124.82C106.5 124.82 104.287 122.294 104.287 119.198C104.287 118.351 104.975 117.662 105.821 117.662C106.666 117.662 107.354 118.351 107.354 119.198C107.354 120.584 108.207 121.756 109.227 121.756C110.073 121.756 110.76 122.445 110.76 123.292C110.76 124.139 110.073 124.828 109.227 124.828L109.219 124.82Z" fill="black"/>
<path d="M112.965 116.664C112.791 116.664 112.609 116.633 112.435 116.569L102.533 112.927C101.94 112.713 101.545 112.151 101.529 111.517C101.513 110.884 101.893 110.314 102.47 110.068L112.372 105.935C113.155 105.61 114.048 105.982 114.372 106.758C114.696 107.542 114.324 108.437 113.55 108.762L107.251 111.391L113.487 113.679C114.277 113.972 114.688 114.851 114.395 115.651C114.166 116.269 113.581 116.657 112.957 116.657L112.965 116.664Z" fill="black"/>
<path d="M159.065 99.2988H147.21C141.972 99.2988 137.726 103.553 137.726 108.801V133.349C137.726 138.597 141.972 142.851 147.21 142.851H159.065C164.302 142.851 168.548 138.597 168.548 133.349V108.801C168.548 103.553 164.302 99.2988 159.065 99.2988Z" fill="black"/>
<path d="M157.713 116.719C156.97 116.719 156.362 116.054 156.362 115.239C156.362 91.9344 140.373 72.9695 120.718 72.9695C107.196 72.9695 94.6058 82.345 88.6468 96.8518C88.3386 97.5962 86.9476 97.7783 86.2679 97.4378C85.5882 97.0973 85.8807 96.3767 86.1889 95.6244C92.5984 80.0566 106.152 70 120.726 70C141.867 70 159.065 90.2952 159.065 115.239C159.065 116.054 158.464 116.719 157.713 116.719Z" fill="black"/>
<path d="M98.3804 100.712C104.536 94.2054 107.442 86.9504 104.869 84.5073C102.297 82.0643 95.2217 85.3582 89.0657 91.8646C82.9098 98.371 80.0046 105.626 82.5768 108.069C85.149 110.512 92.2245 107.218 98.3804 100.712Z" fill="#FF1515"/>
<path d="M97.7987 112.016H97.7829L87.0503 111.913C86.2047 111.905 85.525 111.208 85.5329 110.361C85.5408 109.521 86.2284 108.84 87.0661 108.84H87.0819L93.9024 108.912L89.0736 104.351C88.4571 103.772 88.4334 102.798 89.0103 102.181C89.5873 101.563 90.5594 101.539 91.1758 102.118L98.8498 109.371C99.3082 109.806 99.4584 110.472 99.2213 111.058C98.9842 111.636 98.4231 112.016 97.7987 112.016Z" fill="black"/>
<path d="M78.0565 231.538C99.2259 231.538 116.387 214.344 116.387 193.133C116.387 171.923 99.2259 154.729 78.0565 154.729C56.887 154.729 39.7258 171.923 39.7258 193.133C39.7258 214.344 56.887 231.538 78.0565 231.538Z" fill="#FF570E"/>
<path d="M59.3812 187.781C59.2705 187.781 59.1678 187.765 59.0571 187.733C58.4249 187.551 58.0613 186.894 58.2431 186.268L59.5946 181.493C59.7763 180.86 60.4323 180.496 61.0567 180.678C61.6889 180.86 62.0525 181.517 61.8707 182.143L60.5192 186.918C60.3691 187.44 59.8949 187.781 59.3812 187.781Z" fill="black"/>
<path d="M64.7632 188.858C64.6526 188.858 64.5499 188.842 64.4392 188.81C63.807 188.628 63.4434 187.971 63.6252 187.345L64.9766 182.571C65.1584 181.937 65.8065 181.573 66.4387 181.755C67.071 181.937 67.4345 182.594 67.2528 183.22L65.9013 187.995C65.7511 188.517 65.277 188.858 64.7632 188.858Z" fill="black"/>
<path d="M56.9312 193.506C59.7684 196.428 64.8502 196.071 68.2881 192.714" stroke="black" stroke-width="2" stroke-miterlimit="10" stroke-linecap="round"/>
<path d="M67.3871 190.362C67.3871 192.112 68.5647 193.53 70.0189 193.53" stroke="black" stroke-width="2" stroke-miterlimit="10" stroke-linecap="round"/>
<path d="M94.5785 190.374L93.7453 189.101L107.861 174.855L89.1299 167.73L89.3631 166.226L109.289 164.926L102.149 146.339L103.42 145.505L117.722 159.518L124.749 140.88L126.251 141.114L127.549 161.079L146.099 153.925L146.932 155.198L133.03 169.398L151.547 176.569L151.314 178.074L131.472 179.244L138.528 197.96L137.257 198.795L123.168 184.735L115.928 203.419L114.426 203.185L113.258 183.304L94.5785 190.374Z" fill="#F3FF5C"/>
<g clip-path="url(#clip2_1_3)">
<path d="M129.321 218.186C142.215 218.186 152.668 207.526 152.668 194.376C152.668 181.226 142.215 170.565 129.321 170.565C116.426 170.565 105.974 181.226 105.974 194.376C105.974 207.526 116.426 218.186 129.321 218.186Z" fill="#FF9810"/>
<path d="M124.997 190.555C124.997 191.848 123.959 192.906 122.691 192.906C121.423 192.906 120.385 191.848 120.385 190.555" stroke="black" stroke-width="2" stroke-miterlimit="10" stroke-linecap="round"/>
<path d="M133.644 190.555C133.644 191.848 132.606 192.906 131.338 192.906C130.07 192.906 129.032 191.848 129.032 190.555" stroke="black" stroke-width="2" stroke-miterlimit="10" stroke-linecap="round"/>
<path d="M123.135 197.592C125.205 199.761 128.911 199.497 131.419 197.004" stroke="black" stroke-width="2" stroke-miterlimit="10" stroke-linecap="round"/>
<path d="M130.762 195.258C130.762 196.557 131.621 197.609 132.681 197.609" stroke="black" stroke-width="2" stroke-miterlimit="10" stroke-linecap="round"/>
<path d="M105.397 213.867L108.608 217.118C109.715 218.235 111.214 218.864 112.782 218.864H145.842C147.41 218.864 148.909 218.235 150.016 217.118L152.668 214.437" stroke="black" stroke-width="3" stroke-linecap="round" stroke-linejoin="round"/>
<path d="M117.422 225.114C118.81 225.114 119.936 223.966 119.936 222.551C119.936 221.135 118.81 219.987 117.422 219.987C116.034 219.987 114.909 221.135 114.909 222.551C114.909 223.966 116.034 225.114 117.422 225.114Z" stroke="black" stroke-width="3" stroke-miterlimit="10"/>
<path d="M141.057 225.114C142.446 225.114 143.571 223.966 143.571 222.551C143.571 221.135 142.446 219.987 141.057 219.987C139.669 219.987 138.544 221.135 138.544 222.551C138.544 223.966 139.669 225.114 141.057 225.114Z" stroke="black" stroke-width="3" stroke-miterlimit="10"/>
</g>
</g>
<defs>
<clipPath id="clip0_1_3">
<rect width="29.2457" height="29.2457" fill="white" transform="matrix(0.942489 -0.334237 -0.334237 -0.942489 10.6555 190.396)"/>
</clipPath>
<clipPath id="clip1_1_3">
<rect width="196" height="175" fill="white" transform="translate(1 70)"/>
</clipPath>
<clipPath id="clip2_1_3">
<rect width="52.1613" height="57.8054" fill="white" transform="translate(102.952 170.565)"/>
</clipPath>
</defs>
</svg>
