<svg width="197" height="246" viewBox="0 0 197 246" fill="none" xmlns="http://www.w3.org/2000/svg">
<rect x="14" width="170" height="44" rx="16" fill="white"/>
<path d="M48.6172 27.6875H35.7109V26.2344H48.6172V27.6875ZM47.4844 17.9766H36.7578V16.5703H47.4844V17.9766ZM47.4297 23.8516H36.8125V22.4609H47.4297V23.8516ZM40.5391 22.6094H38.7969V17.8359H40.5391V22.6094ZM45.4219 22.6094H43.7109V17.8359H45.4219V22.6094ZM62.4453 27.75H49.5391V26.3203H62.4453V27.75ZM56.8125 26.9297H55.1016V23.5312H56.8125V26.9297ZM60.9062 20.7656H52.7969V23.3281H51.0625V19.3984H59.1953V17.6328H51.0391V16.2266H60.9062V20.7656ZM61.2422 24.0078H51.0625V22.5938H61.2422V24.0078ZM71.6094 20.2266H69.2344V18.8125H71.6094V20.2266ZM72.6562 23.7891H70.9922V15.5625H72.6562V23.7891ZM67.3984 18.2969C67.3984 19.0833 67.2786 19.8307 67.0391 20.5391C66.8047 21.2422 66.4453 21.8698 65.9609 22.4219C65.4818 22.9688 64.8828 23.3906 64.1641 23.6875L63.25 22.3281C63.8698 22.0833 64.388 21.75 64.8047 21.3281C65.2214 20.901 65.5286 20.4271 65.7266 19.9062C65.9297 19.3854 66.0312 18.849 66.0312 18.2969V17.2734H67.3984V18.2969ZM67.7188 18.3047C67.7188 18.8255 67.8151 19.3281 68.0078 19.8125C68.2057 20.2917 68.5026 20.7292 68.8984 21.125C69.2943 21.5156 69.7839 21.8281 70.3672 22.0625L69.4844 23.3906C68.7969 23.1198 68.2188 22.724 67.75 22.2031C67.2865 21.6823 66.9427 21.0885 66.7188 20.4219C66.4948 19.7552 66.3828 19.0495 66.3828 18.3047V17.2734H67.7188V18.3047ZM69.9531 17.7344H63.6484V16.3359H69.9531V17.7344ZM75.4375 23.8906H73.7812V15.2656H75.4375V23.8906ZM75.4375 29.375H73.7188V25.8203H65.7656V24.4297H75.4375V29.375ZM88.6641 24.0547H78.7578V22.6797H88.6641V24.0547ZM90.1016 27.6719H77.1953V26.2578H90.1016V27.6719ZM88.5391 17.7891H80.5234V23.0547H78.7578V16.3672H88.5391V17.7891ZM88.2188 20.8438H80V19.4766H88.2188V20.8438ZM105.891 29.375H104.172V15.2656H105.891V29.375ZM108.07 22.3281H105.5V20.8984H108.07V22.3281ZM103.078 18.8281H94.7578V17.4297H103.078V18.8281ZM98.9609 19.7422C99.6432 19.7422 100.253 19.8854 100.789 20.1719C101.331 20.4531 101.755 20.8464 102.062 21.3516C102.37 21.8568 102.523 22.4297 102.523 23.0703C102.523 23.7057 102.37 24.2786 102.062 24.7891C101.755 25.2943 101.331 25.6875 100.789 25.9688C100.253 26.25 99.6432 26.3906 98.9609 26.3906C98.2839 26.3906 97.6745 26.25 97.1328 25.9688C96.5911 25.6875 96.1667 25.2943 95.8594 24.7891C95.5573 24.2786 95.4062 23.7057 95.4062 23.0703C95.4062 22.4297 95.5573 21.8568 95.8594 21.3516C96.1667 20.8464 96.5911 20.4531 97.1328 20.1719C97.6745 19.8854 98.2839 19.7422 98.9609 19.7422ZM98.9609 21.1719C98.6016 21.1719 98.276 21.25 97.9844 21.4062C97.6979 21.5625 97.4714 21.7839 97.3047 22.0703C97.1432 22.3568 97.0625 22.6901 97.0625 23.0703C97.0625 23.4453 97.1432 23.776 97.3047 24.0625C97.4714 24.349 97.6979 24.5703 97.9844 24.7266C98.276 24.8776 98.6016 24.9531 98.9609 24.9531C99.3307 24.9531 99.6589 24.8776 99.9453 24.7266C100.232 24.5703 100.456 24.349 100.617 24.0625C100.779 23.776 100.859 23.4453 100.859 23.0703C100.859 22.6901 100.779 22.3568 100.617 22.0703C100.456 21.7839 100.232 21.5625 99.9453 21.4062C99.6589 21.25 99.3307 21.1719 98.9609 21.1719ZM99.8203 17.9922H98.0938V15.4688H99.8203V17.9922ZM113.367 19.2656C113.367 20.3073 113.203 21.3255 112.875 22.3203C112.552 23.3151 112.089 24.2005 111.484 24.9766C110.88 25.7474 110.18 26.3229 109.383 26.7031L108.359 25.3359C109.089 24.987 109.727 24.487 110.273 23.8359C110.82 23.1849 111.242 22.4609 111.539 21.6641C111.841 20.8672 111.992 20.0677 111.992 19.2656V17.4062H113.367V19.2656ZM113.727 19.2656C113.727 20.0104 113.865 20.7578 114.141 21.5078C114.422 22.2578 114.831 22.9427 115.367 23.5625C115.904 24.1771 116.531 24.651 117.25 24.9844L116.273 26.3516C115.477 25.9766 114.781 25.4219 114.188 24.6875C113.594 23.9479 113.138 23.1068 112.82 22.1641C112.503 21.2214 112.344 20.2552 112.344 19.2656V17.4062H113.727V19.2656ZM116.68 18.0859H108.906V16.6641H116.68V18.0859ZM119.719 29.375H117.984V15.2656H119.719V29.375ZM121.898 22.2266H119.328V20.7656H121.898V22.2266ZM125.211 24.6797H123.445L123.273 16.6875H125.391L125.211 24.6797ZM124.336 28.125C124.117 28.125 123.914 28.0703 123.727 27.9609C123.539 27.8464 123.391 27.6979 123.281 27.5156C123.177 27.3281 123.125 27.125 123.125 26.9062C123.125 26.6927 123.177 26.4948 123.281 26.3125C123.391 26.125 123.539 25.9792 123.727 25.875C123.914 25.7656 124.117 25.7109 124.336 25.7109C124.549 25.7109 124.747 25.7656 124.93 25.875C125.117 25.9792 125.266 26.125 125.375 26.3125C125.484 26.4948 125.539 26.6927 125.539 26.9062C125.539 27.125 125.484 27.3281 125.375 27.5156C125.266 27.6979 125.117 27.8464 124.93 27.9609C124.747 28.0703 124.549 28.125 124.336 28.125ZM139.211 17.8203H131.555V16.4141H139.211V17.8203ZM131.172 21.7734C132.724 21.7786 134.234 21.7552 135.703 21.7031C137.177 21.651 138.547 21.5443 139.812 21.3828L139.93 22.6328C138.654 22.8672 137.307 23.0208 135.891 23.0938C134.474 23.1667 132.966 23.2031 131.367 23.2031L131.172 21.7734ZM134.453 22.375H132.781V17.4688H134.453V22.375ZM137.961 22.375H136.289V17.4688H137.961V22.375ZM142.695 24.8047H140.953V15.2656H142.695V24.8047ZM138.539 24.2891C138.539 25.1328 138.315 25.9062 137.867 26.6094C137.419 27.3073 136.792 27.888 135.984 28.3516C135.177 28.8203 134.24 29.1406 133.172 29.3125L132.477 27.9766C133.409 27.8255 134.221 27.5703 134.914 27.2109C135.607 26.8516 136.135 26.4193 136.5 25.9141C136.87 25.4089 137.055 24.8672 137.055 24.2891V24.0469H138.539V24.2891ZM138.875 24.2891C138.875 24.8672 139.057 25.4089 139.422 25.9141C139.786 26.4193 140.312 26.8516 141 27.2109C141.693 27.5703 142.503 27.8255 143.43 27.9766L142.773 29.3125C141.701 29.1406 140.758 28.8203 139.945 28.3516C139.133 27.888 138.503 27.3073 138.055 26.6094C137.612 25.9062 137.391 25.1328 137.391 24.2891V24.0469H138.875V24.2891ZM149.477 19.2656C149.477 20.3073 149.312 21.3255 148.984 22.3203C148.661 23.3151 148.198 24.2005 147.594 24.9766C146.99 25.7474 146.289 26.3229 145.492 26.7031L144.469 25.3359C145.198 24.987 145.836 24.487 146.383 23.8359C146.93 23.1849 147.352 22.4609 147.648 21.6641C147.951 20.8672 148.102 20.0677 148.102 19.2656V17.4062H149.477V19.2656ZM149.836 19.2656C149.836 20.0104 149.974 20.7578 150.25 21.5078C150.531 22.2578 150.94 22.9427 151.477 23.5625C152.013 24.1771 152.641 24.651 153.359 24.9844L152.383 26.3516C151.586 25.9766 150.891 25.4219 150.297 24.6875C149.703 23.9479 149.247 23.1068 148.93 22.1641C148.612 21.2214 148.453 20.2552 148.453 19.2656V17.4062H149.836V19.2656ZM152.789 18.0859H145.016V16.6641H152.789V18.0859ZM155.828 29.375H154.094V15.2656H155.828V29.375ZM158.008 22.2266H155.438V20.7656H158.008V22.2266ZM161.32 24.6797H159.555L159.383 16.6875H161.5L161.32 24.6797ZM160.445 28.125C160.227 28.125 160.023 28.0703 159.836 27.9609C159.648 27.8464 159.5 27.6979 159.391 27.5156C159.286 27.3281 159.234 27.125 159.234 26.9062C159.234 26.6927 159.286 26.4948 159.391 26.3125C159.5 26.125 159.648 25.9792 159.836 25.875C160.023 25.7656 160.227 25.7109 160.445 25.7109C160.659 25.7109 160.857 25.7656 161.039 25.875C161.227 25.9792 161.375 26.125 161.484 26.3125C161.594 26.4948 161.648 26.6927 161.648 26.9062C161.648 27.125 161.594 27.3281 161.484 27.5156C161.375 27.6979 161.227 27.8464 161.039 27.9609C160.857 28.0703 160.659 28.125 160.445 28.125Z" fill="#141414"/>
<path d="M48 55L38.4737 38.5L57.5263 38.5L48 55Z" fill="white"/>
<g clip-path="url(#clip0_1_3)">
<path d="M3.85126 131.582L1.194 116.967L74.7997 103.533L77.4569 118.148L3.85126 131.582ZM4.41017 102.249L12.7937 90.3286L74.3139 133.268L65.9791 145.457L4.41017 102.249ZM25.43 82.2037L39.7532 79.5895L53.1614 153.338L38.8382 155.952L25.43 82.2037ZM54.5699 82.7038L66.6103 90.8965L24.2029 153.082L12.0894 144.487L54.5699 82.7038Z" fill="#FF9559"/>
<ellipse cx="98.6049" cy="210.366" rx="93.6532" ry="34.0498" fill="#FFC6A6"/>
<path d="M113.36 101.883H44.9103C34.1903 101.883 25.5 110.59 25.5 121.331V189.335C25.5 200.076 34.1903 208.783 44.9103 208.783H113.36C124.08 208.783 132.77 200.076 132.77 189.335V121.331C132.77 110.59 124.08 101.883 113.36 101.883Z" fill="#EAEAEA"/>
<path d="M45.8824 101.091H112.032C123.476 101.091 132.77 110.403 132.77 121.869V133.557H25.5V121.513C25.5 110.245 34.6361 101.091 45.8824 101.091Z" fill="#53ACFF"/>
<path d="M46.3803 141.476H37.0229C35.0238 141.476 33.4032 143.099 33.4032 145.102V154.478C33.4032 156.481 35.0238 158.105 37.0229 158.105H46.3803C48.3794 158.105 50 156.481 50 154.478V145.102C50 143.099 48.3794 141.476 46.3803 141.476Z" fill="#C6C6C6"/>
<path d="M67.719 141.476H58.3616C56.3625 141.476 54.7419 143.099 54.7419 145.102V154.478C54.7419 156.481 56.3625 158.105 58.3616 158.105H67.719C69.7181 158.105 71.3387 156.481 71.3387 154.478V145.102C71.3387 143.099 69.7181 141.476 67.719 141.476Z" fill="#C6C6C6"/>
<path d="M89.0577 141.476H79.7002C77.7012 141.476 76.0806 143.099 76.0806 145.102V154.478C76.0806 156.481 77.7012 158.105 79.7002 158.105H89.0577C91.0568 158.105 92.6773 156.481 92.6773 154.478V145.102C92.6773 143.099 91.0568 141.476 89.0577 141.476Z" fill="#C6C6C6"/>
<path d="M46.3803 161.271H37.0229C35.0238 161.271 33.4032 162.895 33.4032 164.898V174.274C33.4032 176.277 35.0238 177.9 37.0229 177.9H46.3803C48.3794 177.9 50 176.277 50 174.274V164.898C50 162.895 48.3794 161.271 46.3803 161.271Z" fill="#C6C6C6"/>
<path d="M46.3803 182.652H37.0229C35.0238 182.652 33.4032 184.276 33.4032 186.279V195.655C33.4032 197.658 35.0238 199.281 37.0229 199.281H46.3803C48.3794 199.281 50 197.658 50 195.655V186.279C50 184.276 48.3794 182.652 46.3803 182.652Z" fill="#C6C6C6"/>
<path d="M67.719 161.271H58.3616C56.3625 161.271 54.7419 162.895 54.7419 164.898V174.274C54.7419 176.277 56.3625 177.9 58.3616 177.9H67.719C69.7181 177.9 71.3387 176.277 71.3387 174.274V164.898C71.3387 162.895 69.7181 161.271 67.719 161.271Z" fill="#C6C6C6"/>
<path d="M95.0484 96.3398H83.1936C77.9558 96.3398 73.7097 100.594 73.7097 105.842V130.39C73.7097 135.638 77.9558 139.892 83.1936 139.892H95.0484C100.286 139.892 104.532 135.638 104.532 130.39V105.842C104.532 100.594 100.286 96.3398 95.0484 96.3398Z" fill="black"/>
<path d="M133.379 196.905C167.206 196.905 194.629 169.429 194.629 135.536C194.629 101.643 167.206 74.167 133.379 74.167C99.5516 74.167 72.129 101.643 72.129 135.536C72.129 169.429 99.5516 196.905 133.379 196.905Z" fill="#FF1515"/>
<path d="M98.6128 128.347C95.7202 128.347 93.12 127.294 91.2154 125.33C90.6226 124.72 90.6384 123.754 91.247 123.16C91.8555 122.574 92.8197 122.582 93.4125 123.192C94.8667 124.689 96.9452 125.425 99.2529 125.259C101.663 125.092 104.034 123.984 105.923 122.139C106.532 121.553 107.496 121.561 108.089 122.17C108.681 122.78 108.666 123.746 108.057 124.34C105.647 126.692 102.596 128.109 99.4663 128.323C99.1818 128.339 98.8973 128.355 98.6207 128.355L98.6128 128.347Z" fill="black"/>
<path d="M109.219 125.82C106.5 125.82 104.287 123.294 104.287 120.198C104.287 119.351 104.975 118.662 105.821 118.662C106.666 118.662 107.354 119.351 107.354 120.198C107.354 121.584 108.207 122.756 109.227 122.756C110.073 122.756 110.76 123.445 110.76 124.292C110.76 125.139 110.073 125.828 109.227 125.828L109.219 125.82Z" fill="black"/>
<path d="M112.965 117.664C112.791 117.664 112.609 117.633 112.435 117.569L102.533 113.927C101.94 113.713 101.545 113.151 101.529 112.517C101.513 111.884 101.893 111.314 102.47 111.068L112.372 106.935C113.155 106.61 114.048 106.982 114.372 107.758C114.696 108.542 114.324 109.437 113.55 109.762L107.251 112.391L113.487 114.679C114.277 114.972 114.688 115.851 114.395 116.651C114.166 117.269 113.581 117.657 112.957 117.657L112.965 117.664Z" fill="black"/>
<path d="M159.065 100.299H147.21C141.972 100.299 137.726 104.553 137.726 109.801V134.349C137.726 139.597 141.972 143.851 147.21 143.851H159.065C164.302 143.851 168.548 139.597 168.548 134.349V109.801C168.548 104.553 164.302 100.299 159.065 100.299Z" fill="black"/>
<path d="M157.713 117.719C156.97 117.719 156.362 117.054 156.362 116.239C156.362 92.9344 140.373 73.9695 120.718 73.9695C107.196 73.9695 94.6058 83.345 88.6468 97.8518C88.3386 98.5962 86.9476 98.7783 86.2679 98.4378C85.5882 98.0973 85.8807 97.3767 86.1889 96.6244C92.5984 81.0566 106.152 71 120.726 71C141.867 71 159.065 91.2952 159.065 116.239C159.065 117.054 158.464 117.719 157.713 117.719Z" fill="black"/>
<path d="M98.3804 101.712C104.536 95.2054 107.442 87.9504 104.869 85.5073C102.297 83.0643 95.2217 86.3582 89.0657 92.8646C82.9098 99.371 80.0046 106.626 82.5768 109.069C85.149 111.512 92.2245 108.218 98.3804 101.712Z" fill="#FF1515"/>
<path d="M97.7987 113.016H97.7829L87.0503 112.913C86.2047 112.905 85.525 112.208 85.5329 111.361C85.5408 110.521 86.2284 109.84 87.0661 109.84H87.0819L93.9024 109.912L89.0736 105.351C88.4571 104.772 88.4334 103.798 89.0103 103.181C89.5873 102.563 90.5594 102.539 91.1758 103.118L98.8498 110.371C99.3082 110.806 99.4584 111.472 99.2213 112.058C98.9842 112.636 98.4231 113.016 97.7987 113.016Z" fill="black"/>
<path d="M78.0565 232.538C99.2259 232.538 116.387 215.344 116.387 194.133C116.387 172.923 99.2259 155.729 78.0565 155.729C56.887 155.729 39.7258 172.923 39.7258 194.133C39.7258 215.344 56.887 232.538 78.0565 232.538Z" fill="#FF570E"/>
<path d="M59.3812 188.781C59.2705 188.781 59.1678 188.765 59.0571 188.733C58.4249 188.551 58.0613 187.894 58.2431 187.268L59.5946 182.493C59.7763 181.86 60.4323 181.496 61.0567 181.678C61.6889 181.86 62.0525 182.517 61.8707 183.143L60.5192 187.918C60.3691 188.44 59.8949 188.781 59.3812 188.781Z" fill="black"/>
<path d="M64.7632 189.858C64.6526 189.858 64.5499 189.842 64.4392 189.81C63.807 189.628 63.4434 188.971 63.6252 188.345L64.9766 183.571C65.1584 182.937 65.8065 182.573 66.4387 182.755C67.071 182.937 67.4345 183.594 67.2528 184.22L65.9013 188.995C65.7511 189.517 65.277 189.858 64.7632 189.858Z" fill="black"/>
<path d="M56.9312 194.506C59.7684 197.428 64.8502 197.071 68.2881 193.714" stroke="black" stroke-width="2" stroke-miterlimit="10" stroke-linecap="round"/>
<path d="M67.3871 191.362C67.3871 193.112 68.5647 194.53 70.0189 194.53" stroke="black" stroke-width="2" stroke-miterlimit="10" stroke-linecap="round"/>
<path d="M94.5785 191.374L93.7453 190.101L107.861 175.855L89.1299 168.73L89.3631 167.226L109.289 165.926L102.149 147.339L103.42 146.505L117.722 160.518L124.749 141.88L126.251 142.114L127.549 162.079L146.099 154.925L146.932 156.198L133.03 170.398L151.547 177.569L151.314 179.074L131.472 180.244L138.528 198.96L137.257 199.795L123.168 185.735L115.928 204.419L114.426 204.185L113.258 184.304L94.5785 191.374Z" fill="#F3FF5C"/>
<g clip-path="url(#clip1_1_3)">
<path d="M129.321 219.186C142.215 219.186 152.668 208.526 152.668 195.376C152.668 182.226 142.215 171.565 129.321 171.565C116.426 171.565 105.974 182.226 105.974 195.376C105.974 208.526 116.426 219.186 129.321 219.186Z" fill="#FF9810"/>
<path d="M124.997 191.555C124.997 192.848 123.959 193.906 122.691 193.906C121.423 193.906 120.385 192.848 120.385 191.555" stroke="black" stroke-width="2" stroke-miterlimit="10" stroke-linecap="round"/>
<path d="M133.644 191.555C133.644 192.848 132.606 193.906 131.338 193.906C130.07 193.906 129.032 192.848 129.032 191.555" stroke="black" stroke-width="2" stroke-miterlimit="10" stroke-linecap="round"/>
<path d="M123.135 198.592C125.205 200.761 128.911 200.497 131.419 198.004" stroke="black" stroke-width="2" stroke-miterlimit="10" stroke-linecap="round"/>
<path d="M130.762 196.258C130.762 197.557 131.621 198.609 132.681 198.609" stroke="black" stroke-width="2" stroke-miterlimit="10" stroke-linecap="round"/>
<path d="M105.397 214.867L108.608 218.118C109.715 219.235 111.214 219.864 112.782 219.864H145.842C147.41 219.864 148.909 219.235 150.016 218.118L152.668 215.437" stroke="black" stroke-width="3" stroke-linecap="round" stroke-linejoin="round"/>
<path d="M117.422 226.114C118.81 226.114 119.936 224.966 119.936 223.551C119.936 222.135 118.81 220.987 117.422 220.987C116.034 220.987 114.909 222.135 114.909 223.551C114.909 224.966 116.034 226.114 117.422 226.114Z" stroke="black" stroke-width="3" stroke-miterlimit="10"/>
<path d="M141.057 226.114C142.446 226.114 143.571 224.966 143.571 223.551C143.571 222.135 142.446 220.987 141.057 220.987C139.669 220.987 138.544 222.135 138.544 223.551C138.544 224.966 139.669 226.114 141.057 226.114Z" stroke="black" stroke-width="3" stroke-miterlimit="10"/>
</g>
</g>
<g clip-path="url(#clip2_1_3)">
<path d="M33.3318 167.84C32.3474 165.064 24.9 167.845 22.4353 166.671C19.9706 165.496 17.438 157.961 14.6624 158.945C11.8868 159.93 14.6676 167.377 13.4934 169.842C12.3187 172.305 4.7837 174.839 5.76803 177.615C6.75236 180.39 14.1998 177.609 16.6645 178.784C19.1292 179.958 21.6617 187.493 24.4374 186.509C27.213 185.525 24.4322 178.077 25.6064 175.613C26.7806 173.148 34.3161 170.615 33.3318 167.84Z" fill="#FF9810"/>
</g>
<defs>
<clipPath id="clip0_1_3">
<rect width="196" height="175" fill="white" transform="translate(1 71)"/>
</clipPath>
<clipPath id="clip1_1_3">
<rect width="52.1613" height="57.8054" fill="white" transform="translate(102.952 171.565)"/>
</clipPath>
<clipPath id="clip2_1_3">
<rect width="29.2457" height="29.2457" fill="white" transform="matrix(0.942489 -0.334237 -0.334237 -0.942489 10.6555 191.396)"/>
</clipPath>
</defs>
</svg>
