<svg width="50" height="50" viewBox="0 0 50 50" fill="none" xmlns="http://www.w3.org/2000/svg">
<rect x="1" y="1" width="48" height="48" rx="7" fill="white"/>
<rect x="1" y="1" width="48" height="48" rx="7" stroke="#E0E0E0" stroke-width="2"/>
<path d="M32.9997 11.6667H16.9997C15.5269 11.6667 14.333 12.8607 14.333 14.3334V35.6667C14.333 37.1395 15.5269 38.3334 16.9997 38.3334H32.9997C34.4725 38.3334 35.6663 37.1395 35.6663 35.6667V14.3334C35.6663 12.8607 34.4725 11.6667 32.9997 11.6667Z" fill="#F5F5F5"/>
<path d="M22.9867 19.6667H17.6667C17.2985 19.6667 17 19.9652 17 20.3334V21.6667C17 22.0349 17.2985 22.3334 17.6667 22.3334H22.9867C23.3548 22.3334 23.6533 22.0349 23.6533 21.6667V20.3334C23.6533 19.9652 23.3548 19.6667 22.9867 19.6667Z" fill="#FAFAFA"/>
<path fill-rule="evenodd" clip-rule="evenodd" d="M29.0001 20.4478L32.0573 17.3906L33.9429 19.2763L29.0001 24.219L25.3906 20.6096L27.2762 18.724L29.0001 20.4478Z" fill="#E0E0E0"/>
<path fill-rule="evenodd" clip-rule="evenodd" d="M29.0001 28.4478L32.0573 25.3906L33.9429 27.2762L29.0001 32.219L25.3906 28.6096L27.2762 26.724L29.0001 28.4478Z" fill="#E0E0E0"/>
<path d="M22.9994 27.6667H17.6794C17.3112 27.6667 17.0127 27.9653 17.0127 28.3334V29.7067C17.0127 30.0749 17.3112 30.3734 17.6794 30.3734H22.9994C23.3675 30.3734 23.6661 30.0749 23.6661 29.7067V28.3334C23.6661 27.9653 23.3675 27.6667 22.9994 27.6667Z" fill="#FAFAFA"/>
</svg>
