<svg width="50" height="50" viewBox="0 0 50 50" fill="none" xmlns="http://www.w3.org/2000/svg">
<rect x="1" y="1" width="48" height="48" rx="7" fill="white"/>
<rect x="1" y="1" width="48" height="48" rx="7" stroke="#FF570E" stroke-width="2"/>
<path d="M30.3337 22.0001C30.3337 19.0546 27.9458 16.6667 25.0003 16.6667C22.0548 16.6667 19.667 19.0546 19.667 22.0001V27.3334C19.667 30.2789 22.0548 32.6667 25.0003 32.6667C27.9458 32.6667 30.3337 30.2789 30.3337 27.3334V22.0001Z" fill="#E7ECEF"/>
<path d="M24.9997 15.3333C26.4725 15.3333 27.6663 14.1394 27.6663 12.6667C27.6663 11.1939 26.4725 10 24.9997 10C23.5269 10 22.333 11.1939 22.333 12.6667C22.333 14.1394 23.5269 15.3333 24.9997 15.3333Z" fill="#FF843E"/>
<path d="M24.9997 39.3333C26.4725 39.3333 27.6663 38.1395 27.6663 36.6667C27.6663 35.1939 26.4725 34 24.9997 34C23.5269 34 22.333 35.1939 22.333 36.6667C22.333 38.1395 23.5269 39.3333 24.9997 39.3333Z" fill="#FF843E"/>
<path d="M34.3337 22.0001C35.8065 22.0001 37.0003 20.8062 37.0003 19.3334C37.0003 17.8607 35.8065 16.6667 34.3337 16.6667C32.8609 16.6667 31.667 17.8607 31.667 19.3334C31.667 20.8062 32.8609 22.0001 34.3337 22.0001Z" fill="#FF843E"/>
<path d="M34.3337 32.6668C35.8065 32.6668 37.0003 31.473 37.0003 30.0002C37.0003 28.5274 35.8065 27.3335 34.3337 27.3335C32.8609 27.3335 31.667 28.5274 31.667 30.0002C31.667 31.473 32.8609 32.6668 34.3337 32.6668Z" fill="#FF843E"/>
<path d="M15.6667 22.0001C17.1394 22.0001 18.3333 20.8062 18.3333 19.3334C18.3333 17.8607 17.1394 16.6667 15.6667 16.6667C14.1939 16.6667 13 17.8607 13 19.3334C13 20.8062 14.1939 22.0001 15.6667 22.0001Z" fill="#FF843E"/>
<path d="M15.6667 32.6668C17.1394 32.6668 18.3333 31.473 18.3333 30.0002C18.3333 28.5274 17.1394 27.3335 15.6667 27.3335C14.1939 27.3335 13 28.5274 13 30.0002C13 31.473 14.1939 32.6668 15.6667 32.6668Z" fill="#FF843E"/>
</svg>
