<svg width="50" height="50" viewBox="0 0 50 50" fill="none" xmlns="http://www.w3.org/2000/svg">
<rect x="1" y="1" width="48" height="48" rx="7" fill="white"/>
<rect x="1" y="1" width="48" height="48" rx="7" stroke="#E0E0E0" stroke-width="2"/>
<path d="M29.5867 15.7605L16.3867 28.9605L21.1067 33.6672L34.3067 20.4672L29.5867 15.7605Z" fill="#E0E0E0"/>
<path d="M15.3331 30.0143L14.4531 32.6676L17.3731 35.5876L20.0531 34.7209L21.1065 33.6676L16.3865 28.9609L15.3331 30.0143Z" fill="#F0F0F0"/>
<path d="M13 37.0001L17.3733 35.5867L14.4533 32.6667L13 37.0001Z" fill="#BDBDBD"/>
<path d="M36.1869 14.8143L35.2402 13.8809C34.7406 13.3843 34.0648 13.1055 33.3602 13.1055C32.6558 13.1055 31.9798 13.3843 31.4802 13.8809L29.5869 15.7609L34.307 20.4809L36.1869 18.5876C36.4349 18.3399 36.6316 18.0458 36.7658 17.7221C36.9 17.3984 36.969 17.0514 36.969 16.7009C36.969 16.3505 36.9 16.0035 36.7658 15.6797C36.6316 15.356 36.4349 15.0619 36.1869 14.8143Z" fill="#BDBDBD"/>
</svg>
