<svg width="50" height="50" viewBox="0 0 50 50" fill="none" xmlns="http://www.w3.org/2000/svg">
<rect x="1" y="1" width="48" height="48" rx="7" fill="white"/>
<rect x="1" y="1" width="48" height="48" rx="7" stroke="#E0E0E0" stroke-width="2"/>
<path d="M35.6663 18.3334V35.6667C35.6663 36.3739 35.3854 37.0522 34.8853 37.5523C34.3851 38.0525 33.7069 38.3334 32.9997 38.3334H16.9997C16.2924 38.3334 15.6142 38.0525 15.114 37.5523C14.614 37.0522 14.333 36.3739 14.333 35.6667V14.3334C14.333 13.6262 14.614 12.9479 15.114 12.4477C15.6142 11.9477 16.2924 11.6667 16.9997 11.6667H28.9997L35.6663 18.3334Z" fill="#E0E0E0"/>
<path d="M30.3333 18.3334H35.6667L29 11.6667V17.0001C29 17.3537 29.1405 17.6928 29.3905 17.9429C29.6405 18.1929 29.9797 18.3334 30.3333 18.3334Z" fill="#BDBDBD"/>
<path d="M30.9997 23.6667H18.9997C18.6315 23.6667 18.333 23.9653 18.333 24.3334V25.6667C18.333 26.0349 18.6315 26.3334 18.9997 26.3334H30.9997C31.3678 26.3334 31.6663 26.0349 31.6663 25.6667V24.3334C31.6663 23.9653 31.3678 23.6667 30.9997 23.6667Z" fill="white"/>
<path d="M30.9997 29H18.9997C18.6315 29 18.333 29.2985 18.333 29.6667V31C18.333 31.3681 18.6315 31.6667 18.9997 31.6667H30.9997C31.3678 31.6667 31.6663 31.3681 31.6663 31V29.6667C31.6663 29.2985 31.3678 29 30.9997 29Z" fill="white"/>
</svg>
