<svg width="50" height="50" viewBox="0 0 50 50" fill="none" xmlns="http://www.w3.org/2000/svg">
<rect x="1" y="1" width="48" height="48" rx="7" fill="white"/>
<rect x="1" y="1" width="48" height="48" rx="7" stroke="#E0E0E0" stroke-width="2"/>
<path fill-rule="evenodd" clip-rule="evenodd" d="M23.333 30.3333V18.3333H26.6663V30.3333H23.333Z" fill="#E7ECEF"/>
<path fill-rule="evenodd" clip-rule="evenodd" d="M17.3333 25.3463V30.3332H14V24.3463C14 23.7276 14.2456 23.134 14.6834 22.6963C15.1212 22.2585 15.7148 22.0129 16.3333 22.0129H33.6667C34.2855 22.0129 34.8789 22.2587 35.3165 22.6963C35.754 23.1338 36 23.7272 36 24.3463V30.3332H32.6667V25.3463H17.3333Z" fill="#E7ECEF"/>
<path d="M17.8886 30.3333H13.4441C12.8305 30.3333 12.333 30.8307 12.333 31.4443V35.8889C12.333 36.5025 12.8305 36.9999 13.4441 36.9999H17.8886C18.5022 36.9999 18.9997 36.5025 18.9997 35.8889V31.4443C18.9997 30.8307 18.5022 30.3333 17.8886 30.3333Z" fill="#E0E0E0"/>
<path d="M27.2226 30.3333H22.7781C22.1645 30.3333 21.667 30.8307 21.667 31.4443V35.8889C21.667 36.5025 22.1645 36.9999 22.7781 36.9999H27.2226C27.8362 36.9999 28.3337 36.5025 28.3337 35.8889V31.4443C28.3337 30.8307 27.8362 30.3333 27.2226 30.3333Z" fill="#E0E0E0"/>
<path d="M27.2226 11.6667H22.7781C22.1645 11.6667 21.667 12.1642 21.667 12.7779V17.2223C21.667 17.8359 22.1645 18.3334 22.7781 18.3334H27.2226C27.8362 18.3334 28.3337 17.8359 28.3337 17.2223V12.7779C28.3337 12.1642 27.8362 11.6667 27.2226 11.6667Z" fill="#E0E0E0"/>
<path d="M36.5556 30.3333H32.1111C31.4975 30.3333 31 30.8307 31 31.4443V35.8889C31 36.5025 31.4975 36.9999 32.1111 36.9999H36.5556C37.1692 36.9999 37.6667 36.5025 37.6667 35.8889V31.4443C37.6667 30.8307 37.1692 30.3333 36.5556 30.3333Z" fill="#E0E0E0"/>
</svg>
