<svg width="50" height="50" viewBox="0 0 50 50" fill="none" xmlns="http://www.w3.org/2000/svg">
<rect x="1" y="1" width="48" height="48" rx="7" fill="white"/>
<rect x="1" y="1" width="48" height="48" rx="7" stroke="#E0E0E0" stroke-width="2"/>
<path d="M15 22.3333H35V29.6666C35 32.3187 33.9464 34.8623 32.0711 36.7377C30.1957 38.613 27.6521 39.6666 25 39.6666C22.3479 39.6666 19.8043 38.613 17.9289 36.7377C16.0536 34.8623 15 32.3187 15 29.6666V22.3333Z" fill="#E0E0E0"/>
<path d="M25 10.3333C27.6521 10.3333 30.1957 11.3868 32.0711 13.2622C33.9464 15.1375 35 17.6811 35 20.3333V22.3333H15V20.3333C15 17.6811 16.0536 15.1375 17.9289 13.2622C19.8043 11.3868 22.3479 10.3333 25 10.3333Z" fill="#E7ECEF"/>
<path d="M25.333 13.6667H24.6663C23.9299 13.6667 23.333 14.2637 23.333 15.0001V19.0001C23.333 19.7365 23.9299 20.3334 24.6663 20.3334H25.333C26.0694 20.3334 26.6663 19.7365 26.6663 19.0001V15.0001C26.6663 14.2637 26.0694 13.6667 25.333 13.6667Z" fill="#E0E0E0"/>
</svg>
