<svg width="50" height="50" viewBox="0 0 50 50" fill="none" xmlns="http://www.w3.org/2000/svg">
<rect x="1" y="1" width="48" height="48" rx="7" fill="white"/>
<rect x="1" y="1" width="48" height="48" rx="7" stroke="#E0E0E0" stroke-width="2"/>
<path d="M14.3337 14.3333H35.667C36.3742 14.3333 37.0525 14.6142 37.5526 15.1143C38.0527 15.6144 38.3337 16.2927 38.3337 16.9999V30.3333C38.3337 30.6869 38.1931 31.0261 37.9431 31.2761C37.6931 31.5261 37.3539 31.6666 37.0003 31.6666H13.0003C12.6467 31.6666 12.3076 31.5261 12.0575 31.2761C11.8075 31.0261 11.667 30.6869 11.667 30.3333V16.9999C11.667 16.2927 11.9479 15.6144 12.448 15.1143C12.9481 14.6142 13.6264 14.3333 14.3337 14.3333Z" fill="#EEEEEE"/>
<path d="M10.333 31.6667H39.6663V33.0001C39.6663 33.3537 39.5258 33.6929 39.2758 33.9429C39.0258 34.1929 38.6866 34.3334 38.333 34.3334H11.6663C11.3127 34.3334 10.9736 34.1929 10.7236 33.9429C10.4735 33.6929 10.333 33.3537 10.333 33.0001V31.6667Z" fill="#EEEEEE"/>
<path d="M35.6663 17H14.333V29H35.6663V17Z" fill="#E0E0E0"/>
</svg>
