<svg width="50" height="50" viewBox="0 0 50 50" fill="none" xmlns="http://www.w3.org/2000/svg">
<rect x="1" y="1" width="48" height="48" rx="7" fill="white"/>
<rect x="1" y="1" width="48" height="48" rx="7" stroke="#E0E0E0" stroke-width="2"/>
<path d="M35.667 14.3333H14.3337C12.8609 14.3333 11.667 15.5272 11.667 16.9999V32.9999C11.667 34.4727 12.8609 35.6666 14.3337 35.6666H35.667C37.1398 35.6666 38.3337 34.4727 38.3337 32.9999V16.9999C38.3337 15.5272 37.1398 14.3333 35.667 14.3333Z" fill="#E0E0E0"/>
<path d="M26.0799 17L21.2666 33H23.9333L28.7466 17H26.0799Z" fill="white"/>
<path d="M17.7463 19.6667H20.2796L17.493 25.0001L20.2796 30.3334H17.7463L14.9463 25.0001L17.7463 19.6667Z" fill="white"/>
<path d="M32.1599 19.6667H29.6133L32.4133 25.0001L29.6133 30.3334H32.1599L34.9599 25.0001L32.1599 19.6667Z" fill="white"/>
</svg>
