<svg width="50" height="50" viewBox="0 0 50 50" fill="none" xmlns="http://www.w3.org/2000/svg">
<rect x="1" y="1" width="48" height="48" rx="7" fill="white"/>
<rect x="1" y="1" width="48" height="48" rx="7" stroke="#E0E0E0" stroke-width="2"/>
<path d="M23.0003 31.9467C27.9415 31.9467 31.9471 27.9413 31.9471 23.0001C31.9471 18.059 27.9415 14.0535 23.0003 14.0535C18.0593 14.0535 14.0537 18.059 14.0537 23.0001C14.0537 27.9413 18.0593 31.9467 23.0003 31.9467Z" fill="#EFF7FF"/>
<path d="M23.0003 15.0001C25.1221 15.0001 27.1569 15.8429 28.6571 17.3432C30.1574 18.8435 31.0003 20.8783 31.0003 23.0001C31.0003 25.1218 30.1574 27.1566 28.6571 28.6569C27.1569 30.1573 25.1221 31.0001 23.0003 31.0001C20.8786 31.0001 18.8438 30.1573 17.3435 28.6569C15.8432 27.1566 15.0003 25.1218 15.0003 23.0001C15.0003 20.8783 15.8432 18.8435 17.3435 17.3432C18.8438 15.8429 20.8786 15.0001 23.0003 15.0001ZM23.0003 11.6667C19.9956 11.6703 17.115 12.8655 14.9903 14.9901C12.8657 17.1148 11.6705 19.9954 11.667 23.0001C11.667 24.4883 11.9601 25.9621 12.5297 27.3371C13.0992 28.7122 13.9341 29.9615 14.9864 31.014C16.0388 32.0663 17.2882 32.9011 18.6632 33.4707C20.0383 34.0402 21.512 34.3334 23.0003 34.3334C24.4891 34.3351 25.9637 34.0433 27.3395 33.4743C28.7153 32.9054 29.9654 32.0706 31.0181 31.0178C32.0709 29.9651 32.9057 28.715 33.4746 27.3393C34.0435 25.9634 34.3354 24.4889 34.3337 23.0001C34.3337 19.9943 33.1397 17.1116 31.0142 14.9862C28.8887 12.8608 26.0061 11.6667 23.0003 11.6667Z" fill="#E0E0E0"/>
<path fill-rule="evenodd" clip-rule="evenodd" d="M30.9803 28.6091L38.1803 35.8225L35.8211 38.1773L28.6211 30.9639L30.9803 28.6091Z" fill="#E0E0E0"/>
</svg>
