<svg width="50" height="50" viewBox="0 0 50 50" fill="none" xmlns="http://www.w3.org/2000/svg">
<rect x="1" y="1" width="48" height="48" rx="7" fill="white"/>
<rect x="1" y="1" width="48" height="48" rx="7" stroke="#E0E0E0" stroke-width="2"/>
<path d="M14.3337 14.3333H35.667C37.1398 14.3333 38.3337 15.5272 38.3337 16.9999V30.3333C38.3337 31.8061 37.1398 32.9999 35.667 32.9999H25.0003L18.3337 39.6666V32.9999H14.3337C12.8609 32.9999 11.667 31.8061 11.667 30.3333V16.9999C11.667 15.5272 12.8609 14.3333 14.3337 14.3333Z" fill="#E0E0E0"/>
<path d="M20.3337 22H18.3337C17.9655 22 17.667 22.2985 17.667 22.6667V24.6667C17.667 25.0348 17.9655 25.3333 18.3337 25.3333H20.3337C20.7018 25.3333 21.0003 25.0348 21.0003 24.6667V22.6667C21.0003 22.2985 20.7018 22 20.3337 22Z" fill="white"/>
<path d="M25.9997 22H23.9997C23.6315 22 23.333 22.2985 23.333 22.6667V24.6667C23.333 25.0348 23.6315 25.3333 23.9997 25.3333H25.9997C26.3678 25.3333 26.6663 25.0348 26.6663 24.6667V22.6667C26.6663 22.2985 26.3678 22 25.9997 22Z" fill="white"/>
<path d="M31.6667 22H29.6667C29.2985 22 29 22.2985 29 22.6667V24.6667C29 25.0348 29.2985 25.3333 29.6667 25.3333H31.6667C32.0348 25.3333 32.3333 25.0348 32.3333 24.6667V22.6667C32.3333 22.2985 32.0348 22 31.6667 22Z" fill="white"/>
</svg>
