<svg width="133" height="26" viewBox="0 0 133 26" fill="none" xmlns="http://www.w3.org/2000/svg">
<g clip-path="url(#clip0_141_1696)">
<path d="M4.94843 16.8224C2.5152 15.8624 0.855591 13.9461 0.855591 11.7392C0.855591 8.56964 4.27801 6 8.50004 6C12.7221 6 16.1445 8.56964 16.1445 11.7392C16.1445 14.9087 12.7221 17.4783 8.50004 17.4783C7.91035 17.4788 7.32155 17.4276 6.73914 17.3252L3.88164 20L4.94843 16.8224Z" fill="#3B1E1E"/>
</g>
<path d="M31.8262 7.37256C31.8262 8.83252 31.6577 10.1436 31.3208 11.3057C30.9888 12.4678 30.3833 13.5518 29.5044 14.5576C28.6255 15.5586 27.4048 16.4497 25.8423 17.231L24.9487 16.0005C26.3062 15.3315 27.3706 14.582 28.1421 13.752C28.9185 12.917 29.4629 12.0063 29.7754 11.02C30.0879 10.0288 30.2441 8.88135 30.2441 7.57764V7.37256H31.8262ZM31.2109 8.69092H25.7471V7.37256H31.2109V8.69092ZM25.271 12.353L25.0586 10.9468L30.2002 10.6318V11.8843L25.271 12.353ZM35.3125 19.2817H33.6865V6.06152H35.3125V19.2817ZM37.2754 12.5874H34.895V11.2397H37.2754V12.5874ZM44.79 7.37256C44.79 8.83252 44.6216 10.1436 44.2847 11.3057C43.9526 12.4678 43.3472 13.5518 42.4683 14.5576C41.5894 15.5586 40.3687 16.4497 38.8062 17.231L37.9126 16.0005C39.27 15.3315 40.3345 14.582 41.106 13.752C41.8823 12.917 42.4268 12.0063 42.7393 11.02C43.0518 10.0288 43.208 8.88135 43.208 7.57764V7.37256H44.79ZM44.1748 8.69092H38.7109V7.37256H44.1748V8.69092ZM38.2349 12.353L38.0225 10.9468L43.1641 10.6318V11.8843L38.2349 12.353ZM48.2764 19.2817H46.6504V6.06152H48.2764V19.2817ZM50.2393 12.5874H47.8589V11.2397H50.2393V12.5874ZM57.6953 16.6377H56.0913V13.5029H57.6953V16.6377ZM56.9043 6.80127C57.8418 6.80127 58.6841 6.9502 59.4312 7.24805C60.1831 7.5459 60.7715 7.96582 61.1963 8.50781C61.6211 9.0498 61.8335 9.67236 61.8335 10.3755C61.8335 11.0981 61.6211 11.7305 61.1963 12.2725C60.7715 12.8145 60.1855 13.2344 59.4385 13.5322C58.6914 13.8252 57.8467 13.9717 56.9043 13.9717C55.9619 13.9717 55.1147 13.8252 54.3628 13.5322C53.6157 13.2344 53.0298 12.8145 52.605 12.2725C52.1851 11.7305 51.9751 11.0981 51.9751 10.3755C51.9751 9.67236 52.1851 9.0498 52.605 8.50781C53.0298 7.96582 53.6157 7.5459 54.3628 7.24805C55.1147 6.9502 55.9619 6.80127 56.9043 6.80127ZM56.9043 8.1123C56.2598 8.1123 55.6836 8.20508 55.1758 8.39062C54.668 8.57617 54.2725 8.83984 53.9893 9.18164C53.7109 9.52344 53.5718 9.92139 53.5718 10.3755C53.5718 10.8442 53.7109 11.252 53.9893 11.5986C54.2725 11.9453 54.6655 12.2114 55.1685 12.397C55.6714 12.5776 56.25 12.6704 56.9043 12.6753C57.5586 12.6704 58.1348 12.5776 58.6328 12.397C59.1357 12.2114 59.5264 11.9453 59.8047 11.5986C60.0879 11.252 60.2295 10.8442 60.2295 10.3755C60.2295 9.92139 60.0879 9.52344 59.8047 9.18164C59.5264 8.83984 59.1357 8.57617 58.6328 8.39062C58.1299 8.20508 57.5537 8.1123 56.9043 8.1123ZM62.9761 17.6997H50.8765V16.3594H62.9761V17.6997ZM75.9399 17.7656H63.8403V16.4253H75.9399V17.7656ZM70.6592 16.9966H69.0552V13.8105H70.6592V16.9966ZM74.4971 11.2178H66.8945V13.6201H65.2686V9.93604H72.8931V8.28076H65.2466V6.9624H74.4971V11.2178ZM74.812 14.2573H65.2686V12.9316H74.812V14.2573ZM85.0732 9.24023C85.0732 10.3438 84.9219 11.3862 84.6191 12.3677C84.3213 13.3442 83.8843 14.2036 83.3081 14.9458C82.7319 15.688 82.0386 16.252 81.228 16.6377L80.2319 15.2754C80.9497 14.958 81.5723 14.4917 82.0996 13.8765C82.627 13.2563 83.0298 12.5459 83.3081 11.7451C83.5913 10.9395 83.7329 10.1045 83.7329 9.24023V7.12354H85.0732V9.24023ZM85.3735 9.24023C85.3735 10.0605 85.5103 10.854 85.7837 11.6206C86.0571 12.3872 86.4526 13.0708 86.9702 13.6714C87.4927 14.272 88.103 14.7236 88.8013 15.0264L87.8345 16.3301C87.0532 15.9639 86.3745 15.4243 85.7983 14.7114C85.2222 13.9937 84.7827 13.166 84.48 12.2285C84.1772 11.291 84.0259 10.2949 84.0259 9.24023V7.12354H85.3735V9.24023ZM91.3867 19.3257H89.7388V6.06152H91.3867V19.3257ZM97.7734 8.354C97.7734 9.18408 97.6294 9.96045 97.3413 10.6831C97.0532 11.4058 96.6309 12.0356 96.0742 12.5728C95.5176 13.105 94.8438 13.5078 94.0527 13.7812L93.1885 12.5215C93.877 12.2871 94.4653 11.9551 94.9536 11.5254C95.4468 11.0908 95.8179 10.6001 96.0669 10.0532C96.3208 9.50635 96.4478 8.93994 96.4478 8.354V7.42383H97.7734V8.354ZM98.0884 8.36865C98.0884 8.92041 98.2056 9.45264 98.4399 9.96533C98.6792 10.478 99.0332 10.937 99.502 11.3423C99.9756 11.7476 100.549 12.0625 101.223 12.2871L100.396 13.5469C99.624 13.2881 98.9648 12.8999 98.418 12.3823C97.8711 11.8647 97.4561 11.2617 97.1729 10.5732C96.8945 9.88477 96.7554 9.1499 96.7554 8.36865V7.42383H98.0884V8.36865ZM100.835 8.2002H93.6499V6.89648H100.835V8.2002ZM103.779 14.0449H102.153V6.06152H103.779V14.0449ZM105.632 10.7344H103.318V9.37207H105.632V10.7344ZM103.779 19.2891H102.153V15.9565H94.9536V14.6528H103.779V19.2891ZM116.67 19.2891H115.059V6.06152H116.67V19.2891ZM118.713 12.6826H116.304V11.3423H118.713V12.6826ZM114.033 9.40137H106.233V8.09033H114.033V9.40137ZM110.173 10.2583C110.813 10.2583 111.384 10.3926 111.887 10.6611C112.395 10.9248 112.793 11.2935 113.081 11.7671C113.369 12.2407 113.513 12.7778 113.513 13.3784C113.513 13.9741 113.369 14.5112 113.081 14.9897C112.793 15.4634 112.395 15.832 111.887 16.0957C111.384 16.3594 110.813 16.4912 110.173 16.4912C109.539 16.4912 108.967 16.3594 108.459 16.0957C107.952 15.832 107.554 15.4634 107.266 14.9897C106.982 14.5112 106.841 13.9741 106.841 13.3784C106.841 12.7778 106.982 12.2407 107.266 11.7671C107.554 11.2935 107.952 10.9248 108.459 10.6611C108.967 10.3926 109.539 10.2583 110.173 10.2583ZM110.173 11.5986C109.836 11.5986 109.531 11.6719 109.258 11.8184C108.989 11.9648 108.777 12.1724 108.621 12.4409C108.469 12.7095 108.394 13.022 108.394 13.3784C108.394 13.73 108.469 14.04 108.621 14.3086C108.777 14.5771 108.989 14.7847 109.258 14.9312C109.531 15.0728 109.836 15.1436 110.173 15.1436C110.52 15.1436 110.828 15.0728 111.096 14.9312C111.365 14.7847 111.575 14.5771 111.726 14.3086C111.877 14.04 111.953 13.73 111.953 13.3784C111.953 13.022 111.877 12.7095 111.726 12.4409C111.575 12.1724 111.365 11.9648 111.096 11.8184C110.828 11.6719 110.52 11.5986 110.173 11.5986ZM110.979 8.61768H109.36V6.25195H110.979V8.61768ZM130.322 19.2891H128.674V6.06152H130.322V19.2891ZM126.375 7.46777C126.375 8.84961 126.174 10.1167 125.774 11.269C125.378 12.4165 124.727 13.4736 123.818 14.4404C122.91 15.4023 121.707 16.2397 120.208 16.9526L119.343 15.6489C120.618 15.0435 121.653 14.355 122.449 13.5835C123.245 12.812 123.828 11.9453 124.199 10.9834C124.57 10.0215 124.756 8.94238 124.756 7.74609V7.46777H126.375ZM125.488 8.75684H120.017V7.46777H125.488V8.75684Z" fill="black"/>
<defs>
<clipPath id="clip0_141_1696">
<rect width="15.2889" height="14" fill="white" transform="translate(0.855591 6)"/>
</clipPath>
</defs>
</svg>
