<svg width="100" height="26" viewBox="0 0 100 26" fill="none" xmlns="http://www.w3.org/2000/svg">
<path d="M22.0017 10.2172C22.0017 16.817 17.9869 20.2702 10.5828 19.8936V24.5594H0V0.228027H9.55512C18.4528 0.228027 22.0017 2.81308 22.0017 10.2172ZM15.4082 11.5512V10.6831C13.0721 10.6831 9.46576 10.0002 7.94026 9.06188L7.37857 9.84059C9.12108 10.9576 13.0721 11.5512 15.4082 11.5512Z" fill="#FF1515"/>
<path d="M30.2927 25.7723H24.1333C22.7354 25.7723 21.9248 25.2106 21.9248 23.7809V17.6533H30.2927V25.7723Z" fill="#FF1515"/>
<path d="M41.6801 6.8534H32.5335V0.228027H51.8289V6.8534L41.5589 20.0148L42.2099 20.2957L44.2333 17.9021H52.5118V24.5275H32.0356V19.0829L41.6801 6.8534Z" fill="#FF1515"/>
<path d="M63.2153 6.8534H54.0687V0.228027H73.364V6.8534L63.094 20.0148L63.7451 20.2957L65.7684 17.9021H74.047V24.5275H53.5708V19.0829L63.2153 6.8534Z" fill="#FF1515"/>
<path d="M85.6833 24.5275H74.4814L81.9494 0.228027H92.5321L100 24.5275H88.7982L87.2408 19.4851L85.6833 24.5275ZM83.6919 11.5831L83.1302 12.4256C85.4982 13.5426 88.6705 13.8235 91.6258 13.8235V12.8916C88.6705 12.8916 85.8365 12.515 83.6919 11.5831Z" fill="#FF1515"/>
</svg>
