<svg width="148" height="92" viewBox="0 0 148 92" fill="none" xmlns="http://www.w3.org/2000/svg">
<path d="M65.4169 45L64.3483 44.5251L67.5541 29.4459L52.4749 32.6517L52 31.5831L64.3483 22.4406L52 13.4169L52.4749 12.3483L67.5541 15.4354L64.3483 0.474935L65.4169 0L74.5594 12.3483L83.5831 0L84.6517 0.474935L81.5646 15.4354L96.5251 12.3483L97 13.4169L84.6517 22.4406L97 31.5831L96.5251 32.6517L81.5646 29.4459L84.6517 44.5251L83.5831 45L74.5594 32.6517L65.4169 45Z" fill="#53ACFF"/>
<path d="M65.9302 91.8182C77.9685 91.8182 87.7275 82.0248 87.7275 69.9439C87.7275 57.8631 77.9685 48.0696 65.9302 48.0696C53.8918 48.0696 44.1328 57.8631 44.1328 69.9439C44.1328 82.0248 53.8918 91.8182 65.9302 91.8182Z" fill="#FF1515"/>
<path d="M115.292 70.8128C133.127 70.8128 147.585 56.304 147.585 38.4064C147.585 20.5088 133.127 6 115.292 6C97.4578 6 83 20.5088 83 38.4064C83 56.304 97.4578 70.8128 115.292 70.8128Z" fill="#FF570E"/>
<path d="M26.103 54.0107C40.5193 54.0107 52.206 42.2827 52.206 27.8155C52.206 13.3483 40.5193 1.62036 26.103 1.62036C11.6867 1.62036 0 13.3483 0 27.8155C0 42.2827 11.6867 54.0107 26.103 54.0107Z" fill="#FF9810"/>
<path d="M59.7409 69.4038C58.1101 69.4038 56.7808 68.0697 56.7808 66.4332C56.7808 65.9849 57.1414 65.623 57.5881 65.623C58.0348 65.623 58.3954 65.9849 58.3954 66.4332C58.3954 67.1786 58.9982 67.7835 59.7409 67.7835C60.4836 67.7835 61.0864 67.1786 61.0864 66.4332C61.0864 65.9849 61.447 65.623 61.8937 65.623C62.3404 65.623 62.701 65.9849 62.701 66.4332C62.701 68.0697 61.3717 69.4038 59.7409 69.4038Z" fill="black"/>
<path d="M67.8141 69.4038C66.1834 69.4038 64.854 68.0697 64.854 66.4332C64.854 65.9849 65.2146 65.623 65.6613 65.623C66.108 65.623 66.4686 65.9849 66.4686 66.4332C66.4686 67.1786 67.0714 67.7835 67.8141 67.7835C68.5569 67.7835 69.1597 67.1786 69.1597 66.4332C69.1597 65.9849 69.5202 65.623 69.967 65.623C70.4137 65.623 70.7743 65.9849 70.7743 66.4332C70.7743 68.0697 69.4449 69.4038 67.8141 69.4038Z" fill="black"/>
<path d="M63.4759 75.5988C61.9527 75.5988 60.5803 75.0425 59.5739 74.0055C59.2617 73.6868 59.2725 73.1737 59.59 72.8604C59.9076 72.5472 60.4189 72.5526 60.731 72.8766C61.4953 73.6652 62.5932 74.0541 63.8096 73.9676C65.0797 73.8758 66.3284 73.2925 67.324 72.3203C67.6416 72.0071 68.1529 72.0125 68.465 72.3365C68.7772 72.6552 68.7664 73.1683 68.4489 73.4816C67.1787 74.7238 65.5695 75.4691 63.9172 75.588C63.7665 75.5988 63.6158 75.6042 63.4705 75.6042L63.4759 75.5988Z" fill="black"/>
<path d="M69.0678 74.2646C67.6308 74.2646 66.4683 72.9306 66.4683 71.294C66.4683 70.8458 66.8289 70.4839 67.2756 70.4839C67.7223 70.4839 68.0829 70.8458 68.0829 71.294C68.0829 72.0286 68.535 72.6443 69.0678 72.6443C69.5145 72.6443 69.8751 73.0062 69.8751 73.4545C69.8751 73.9028 69.5145 74.2646 69.0678 74.2646Z" fill="black"/>
<path d="M40.5537 44.5695C38.2556 44.5695 35.796 43.4407 34.1598 41.4153C33.88 41.0697 33.9338 40.5565 34.2782 40.2757C34.6227 39.9948 35.134 40.0488 35.4138 40.3945C37.3675 42.8142 40.7206 43.6784 42.8895 42.3227C43.2663 42.0851 43.7668 42.2039 44.0036 42.5819C44.2404 42.96 44.122 43.4623 43.7453 43.7C42.8034 44.2887 41.7001 44.5695 40.5537 44.5695Z" fill="black"/>
<path d="M33.7292 42.0581C33.5623 42.0581 33.4009 42.0419 33.234 42.0149C32.7927 41.9339 32.5021 41.5126 32.5828 41.0751C32.6635 40.6322 33.0833 40.3459 33.5193 40.4216C33.8368 40.481 34.1544 40.4 34.4235 40.2001C34.7087 39.9895 34.8971 39.6762 34.967 39.3089C35.0478 38.866 35.4676 38.5798 35.9035 38.6554C36.3395 38.7364 36.6355 39.1577 36.5548 39.5952C36.4148 40.3675 36.0004 41.0427 35.3815 41.5018C34.8863 41.8636 34.3158 42.0581 33.7292 42.0581Z" fill="black"/>
<path d="M96.9612 34.6095C95.4381 34.6095 94.0657 34.0532 93.0592 33.0162C92.7471 32.6975 92.7578 32.1844 93.0754 31.8712C93.3929 31.5579 93.9042 31.5687 94.2164 31.8874C94.9806 32.6759 96.0786 33.0648 97.2949 32.9784C98.5651 32.8866 99.8137 32.3033 100.809 31.3311C101.127 31.0178 101.638 31.0232 101.95 31.3473C102.263 31.6659 102.252 32.179 101.934 32.4923C100.664 33.7345 99.0548 34.4799 97.4025 34.5987C97.2518 34.6095 97.1011 34.6149 96.9558 34.6149L96.9612 34.6095Z" fill="black"/>
<path d="M102.553 33.2754C101.116 33.2754 99.9536 31.9413 99.9536 30.3048C99.9536 29.8565 100.314 29.4946 100.761 29.4946C101.208 29.4946 101.568 29.8565 101.568 30.3048C101.568 31.0393 102.02 31.6551 102.553 31.6551C103 31.6551 103.36 32.0169 103.36 32.4652C103.36 32.9135 103 33.2754 102.553 33.2754Z" fill="black"/>
<path d="M104.529 28.9653C104.437 28.9653 104.34 28.9491 104.249 28.9167L99.028 26.994C98.7159 26.8805 98.506 26.5835 98.5006 26.2486C98.4952 25.9137 98.689 25.6113 98.9957 25.4817L104.216 23.2996C104.631 23.1268 105.099 23.3212 105.271 23.7371C105.443 24.1476 105.25 24.6229 104.835 24.7957L101.515 26.1838L104.803 27.3936C105.223 27.5503 105.438 28.0148 105.282 28.4306C105.164 28.7601 104.851 28.9599 104.523 28.9599L104.529 28.9653Z" fill="black"/>
<path d="M96.5361 26.5133H96.5307L90.8742 26.4593C90.4275 26.4593 90.0723 26.0866 90.0723 25.6437C90.0723 25.2008 90.4382 24.839 90.8796 24.839H90.885L94.4802 24.8768L91.9345 22.4679C91.6115 22.16 91.5954 21.6469 91.9022 21.3229C92.2089 20.9988 92.7202 20.9826 93.0432 21.2905L97.0905 25.1198C97.3327 25.3467 97.408 25.7031 97.2842 26.011C97.1604 26.3189 96.8644 26.5187 96.5361 26.5187V26.5133Z" fill="black"/>
<path d="M39.7571 38.2071C39.6817 38.2071 39.6118 38.1963 39.5364 38.1747C39.1059 38.0504 38.8583 37.6022 38.9821 37.1755L39.9024 33.9186C40.0262 33.4865 40.4729 33.2381 40.8981 33.3623C41.3287 33.4865 41.5762 33.9348 41.4524 34.3615L40.5321 37.6184C40.4298 37.9748 40.1069 38.2071 39.7571 38.2071Z" fill="black"/>
<path d="M43.4226 38.9417C43.3473 38.9417 43.2773 38.9309 43.202 38.9093C42.7714 38.7851 42.5238 38.3368 42.6476 37.9101L43.5679 34.6532C43.6917 34.2212 44.1331 33.9727 44.5636 34.0969C44.9942 34.2212 45.2418 34.6694 45.118 35.0961L44.1976 38.353C44.0954 38.7094 43.7725 38.9417 43.4226 38.9417Z" fill="black"/>
<path d="M28 67.1564V64.7782H40V67.1564H28ZM28.9297 62.5527L30.5946 60.9164L39.0703 69.4473L37.4054 71.1273L28.9297 62.5527ZM32.8216 60H35.1568V72H32.8216V60ZM37.4054 60.9164L39.0703 62.5527L30.5946 71.1273L28.9297 69.4255L37.4054 60.9164Z" fill="#FF9810"/>
</svg>
