<svg width="208" height="54" viewBox="0 0 208 54" fill="none" xmlns="http://www.w3.org/2000/svg">
<path d="M45.9795 21.2746C45.9795 34.9662 37.6506 42.1298 22.2906 41.3486V51.028H0.336304V0.551758H20.1587C38.6172 0.551758 45.9795 5.91452 45.9795 21.2746ZM32.3011 24.042V22.2412C27.4547 22.2412 19.9733 20.8244 16.8086 18.8779L15.6434 20.4933C19.2583 22.8106 27.4547 24.042 32.3011 24.042Z" fill="#FF1515"/>
<path d="M63.1801 53.5423H50.4021C47.5022 53.5423 45.8206 52.3771 45.8206 49.411V36.6992H63.1801V53.5423Z" fill="#FF1515"/>
<path d="M86.8033 14.2963H67.8284V0.551758H107.857V14.2963L86.5517 41.6002L87.9024 42.1828L92.0999 37.2173H109.274V50.9618H66.7955V39.6669L86.8033 14.2963Z" fill="#FF1515"/>
<path d="M131.479 14.2963H112.504V0.551758H152.533V14.2963L131.227 41.6002L132.578 42.1828L136.775 37.2173H153.949V50.9618H111.471V39.6669L131.479 14.2963Z" fill="#FF1515"/>
<path d="M178.089 50.9618H154.851L170.343 0.551758H192.297L207.79 50.9618H184.551L181.32 40.5011L178.089 50.9618ZM173.958 24.1082L172.793 25.8561C177.705 28.1733 184.286 28.756 190.417 28.756V26.8227C184.286 26.8227 178.407 26.0415 173.958 24.1082Z" fill="#FF1515"/>
</svg>
