<svg width="154" height="42" viewBox="0 0 154 42" fill="none" xmlns="http://www.w3.org/2000/svg">
<path d="M141.72 40.9324V35.2604L140.785 33.74V22.9806C140.785 21.4213 140.297 20.2323 139.323 19.4137C138.387 18.595 136.847 18.1857 134.703 18.1857C133.261 18.1857 131.799 18.4196 130.318 18.8874C128.836 19.3162 127.569 19.9204 126.517 20.7001L122.307 11.9873C124.178 10.8179 126.419 9.92124 129.031 9.29751C131.643 8.67377 134.196 8.36191 136.691 8.36191C142.188 8.36191 146.437 9.58988 149.439 12.0458C152.48 14.5018 154 18.4001 154 23.7408V40.9324H141.72ZM132.657 41.5172C130.045 41.5172 127.862 41.0689 126.107 40.1722C124.353 39.2756 123.028 38.0866 122.131 36.6053C121.235 35.0849 120.786 33.4086 120.786 31.5764C120.786 29.5103 121.313 27.7561 122.365 26.3137C123.418 24.8713 125.016 23.7798 127.16 23.0391C129.343 22.2984 132.091 21.9281 135.405 21.9281H142.071V28.3018H137.51C136.107 28.3018 135.074 28.5357 134.411 29.0035C133.787 29.4324 133.475 30.0951 133.475 30.9917C133.475 31.7324 133.748 32.3561 134.294 32.8629C134.879 33.3307 135.658 33.5646 136.633 33.5646C137.53 33.5646 138.348 33.3307 139.089 32.8629C139.869 32.3561 140.434 31.5764 140.785 30.5239L142.48 34.4417C141.974 36.8197 140.902 38.5934 139.264 39.7629C137.627 40.9324 135.424 41.5172 132.657 41.5172Z" fill="white"/>
<path d="M87.8467 40.9324V33.3307L104.863 14.3848L107.026 18.595H88.3145V8.94666H117.727V16.5484L100.711 35.4943L98.5476 31.2841H118.371V40.9324H87.8467Z" fill="white"/>
<path d="M54.4977 40.9324V33.3307L71.5139 14.3848L73.6774 18.595H54.9655V8.94666H84.3783V16.5484L67.3622 35.4943L65.1986 31.2841H85.0216V40.9324H54.4977Z" fill="white"/>
<path d="M43.8721 41.5172C41.6891 41.5172 39.8569 40.8155 38.3755 39.4121C36.8941 37.9697 36.1534 36.1375 36.1534 33.9154C36.1534 31.6544 36.8941 29.8417 38.3755 28.4773C39.8569 27.1129 41.6891 26.4307 43.8721 26.4307C46.0552 26.4307 47.8874 27.1129 49.3688 28.4773C50.8501 29.8417 51.5908 31.6544 51.5908 33.9154C51.5908 36.1375 50.8501 37.9697 49.3688 39.4121C47.8874 40.8155 46.0552 41.5172 43.8721 41.5172Z" fill="white"/>
<path d="M0 40.9324V0H19.706C23.5264 0 26.8205 0.623732 29.5883 1.8712C32.3951 3.11866 34.5587 4.91189 36.079 7.25088C37.5993 9.5509 38.3595 12.2797 38.3595 15.4374C38.3595 18.595 37.5993 21.3238 36.079 23.6239C34.5587 25.9239 32.3951 27.7171 29.5883 29.0035C26.8205 30.251 23.5264 30.8747 19.706 30.8747H7.66021L13.8001 24.9688V40.9324H0ZM13.8001 26.4891L7.66021 20.2323H18.8289C20.7391 20.2323 22.1425 19.8035 23.0391 18.9459C23.9747 18.0882 24.4425 16.9187 24.4425 15.4374C24.4425 13.956 23.9747 12.7865 23.0391 11.9289C22.1425 11.0712 20.7391 10.6424 18.8289 10.6424H7.66021L13.8001 4.38562V26.4891Z" fill="white"/>
</svg>
