<svg width="166" height="164" viewBox="0 0 166 164" fill="none" xmlns="http://www.w3.org/2000/svg">
<path d="M93 160C127.794 160 156 156.194 156 151.5C156 146.806 127.794 143 93 143C58.2061 143 30 146.806 30 151.5C30 156.194 58.2061 160 93 160Z" fill="#1E1E1E"/>
<path d="M118.496 121.484C116.823 121.299 116.442 122.317 113.828 122.762C111.062 123.234 109.503 122.429 109.085 123.114C108.638 123.864 110.045 125.576 111.271 126.669C114.798 129.798 119.456 130.113 123.952 130.363C126.652 130.511 128.04 130.576 129.637 129.937C133.154 128.539 135.568 124.919 134.884 123.975C134.57 123.54 133.772 123.928 131.091 124.262C127.298 124.725 124.808 125.03 122.488 123.975C120.283 122.975 120.33 121.688 118.477 121.484H118.496Z" fill="white"/>
<path d="M84.6652 126.245C83.5078 127.608 84.4048 128.145 83.1702 130.054C82.0996 131.718 81.0579 131.872 79.7558 134.063C79.071 135.218 79.0227 135.745 79.0035 135.973C78.9359 137.355 79.8619 139.018 81.3473 139.391C81.5402 139.437 82.2925 139.6 83.2667 139.191C85.051 138.437 85.4754 136.655 86.575 134.273C87.8675 131.472 89.4493 129.281 91.4844 126.445C93.2206 124.035 94.2816 122.944 93.9343 122.535C93.8186 122.399 93.4714 122.272 89.2467 123.935C85.5237 125.399 85.051 125.79 84.6652 126.245Z" fill="white"/>
<path d="M55.8207 72.9231C55.4404 72.2738 54.6984 72.5847 53.0567 71.9538C52.7692 71.844 49.9959 70.7376 48.4933 68.2046C47.3524 66.2751 47.7513 64.8943 46.7125 64.5102C46.2116 64.3273 45.4418 64.6748 43.9113 65.3698C42.1862 66.1562 41.3143 66.5677 41.0917 67.1438C40.6557 68.2777 41.8615 69.6768 42.8725 70.8381C44.3102 72.4933 45.182 72.7676 49.2724 75.5384C51.6561 77.1478 52.1106 77.5685 52.9454 77.4404C54.9303 77.1387 56.5535 74.1667 55.8207 72.9231Z" fill="white"/>
<path d="M81.0456 146.564C82.8109 145.702 82.9314 142.319 81.3148 139.008C79.6981 135.698 76.9565 133.714 75.1912 134.577C73.4259 135.44 73.3054 138.823 74.922 142.133C76.5387 145.443 79.2803 147.427 81.0456 146.564Z" fill="white" stroke="black" stroke-width="3" stroke-miterlimit="10"/>
<path d="M142.829 73.6285C142.37 71.5957 141.019 70.3857 139.095 68.711C137.543 67.3655 135.552 65.623 132.468 64.7034C129.461 63.8032 128.801 64.7034 124.827 63.5805C122.624 62.961 121.198 62.2253 121.016 62.5351C120.834 62.8545 122.241 63.7741 124.769 66.4846C126.129 67.9463 126.081 68.0721 126.646 68.4593C128.657 69.8532 129.988 68.7981 132.373 69.5435C134.747 70.2889 136.337 72.2442 138.961 75.4871C140.588 77.4909 141.096 78.5944 141.776 78.4492C142.724 78.2459 143.308 75.7291 142.829 73.6285Z" fill="white"/>
<path d="M135.198 113.021C138.786 112.468 141.067 107.944 140.292 102.916C139.518 97.8876 135.981 94.2599 132.394 94.813C128.806 95.3661 126.525 99.8905 127.3 104.919C128.074 109.947 131.61 113.574 135.198 113.021Z" fill="#F3FF5C" stroke="black" stroke-width="3" stroke-miterlimit="10"/>
<path d="M57.108 114.959C57.3357 113.436 57.6488 111.386 59.1194 109.25C59.9449 108.053 60.6565 107.019 62.0228 106.434C64.0153 105.582 66.0077 106.272 66.7668 106.53C68.9775 107.296 69.1862 108.417 71.4539 109.499C73.3515 110.4 75.0309 110.495 76.1789 110.553C79.7275 110.744 81.6061 109.384 85.7239 107.871C86.426 107.612 91.4831 105.793 97.1665 105.228C103.239 104.634 102.869 106.185 107.603 105.438C112.025 104.739 115.526 102.881 121 99.9598C122.471 99.1744 124.122 98.2932 126.276 96.9236C128.857 95.2858 131.494 93.3607 131.57 93.4661C131.656 93.581 127.898 95.3816 126.712 99.1169C126.152 100.879 126.39 102.393 126.617 103.906C126.817 105.218 127.386 108.925 130.261 111.645C132.272 113.541 134.047 113.666 133.999 114.595C133.952 115.6 131.807 116.07 128.249 117.353C122.756 119.336 123.524 119.795 119.634 121.012C116.323 122.046 113.182 123.033 109.159 122.717C105.279 122.41 104.245 121.174 100.639 121.586C98.5233 121.826 97.3752 122.42 94.9083 123.387C94.2631 123.646 88.6367 125.839 83.4468 126.988C77.2226 128.367 71.7101 129.593 68.2659 126.682C66.6909 125.35 66.7858 124.182 64.5466 122.774C62.3833 121.404 60.9791 121.663 58.9107 119.786C57.7437 118.723 57.2503 117.774 57.07 116.874C56.9846 116.424 56.9562 115.935 57.108 114.959Z" fill="#FF9F06" stroke="black" stroke-miterlimit="10"/>
<path d="M45.9101 126.01C46.5635 125.681 47.4061 125.484 48.4855 125.465C54.4221 125.352 58.8437 128.662 61.4475 130.674C69.647 136.994 71.891 145.485 73.1408 150.206C74.7693 156.384 73.6805 158.077 73.1408 158.726C70.5559 161.763 64.3164 159.929 63.7293 159.751C60.709 158.829 58.0863 155.002 52.8693 147.695C49.6028 143.125 47.9553 140.323 47.1316 138.865C45.4935 135.978 41.7063 128.164 45.9291 126.02L45.9101 126.01Z" fill="#262626"/>
<path d="M100.633 12.1899C103.184 10.2814 104.407 7.5193 103.656 5.53406C102.713 3.05971 99.0352 2.71445 96.9751 2.52264C93.5191 2.19656 90.8139 3.24193 88.2726 4.26811C83.9405 6.004 81.1295 8.34408 80.4749 8.90992C76.9708 11.9022 74.9492 15.2493 72.5425 20.2651C69.7989 25.9619 68.0853 30.6133 65.438 38.3432C59.5849 55.4239 58.5356 60.2096 58.1409 66.0119C58.0447 67.4696 58.0254 69.2151 58.0062 72.7252C57.8618 93.1818 60.3166 91.35 59.3635 100.567C59.171 102.408 58.6511 106.609 60.1914 107.299C61.1445 107.731 61.9339 106.378 64.0614 106.417C65.6594 106.445 66.93 107.242 68.8362 108.431C70.5016 109.476 70.5209 109.812 71.6857 110.406C73.6785 111.433 75.5844 111.452 76.4797 111.461C80.9851 111.509 82.997 108.546 88.1281 106.896C90.4289 106.158 90.1979 106.704 100.662 106.187C106.862 105.88 109.962 105.736 111.271 105.438C118.048 103.923 117.182 101.65 126.828 98.073C129.513 97.0756 131.805 96.433 132.681 94.3519C133.403 92.6351 132.806 90.7842 131.833 88.5784C128.888 81.9321 126.664 81.6252 124.363 76.9163C121.379 70.8167 123.67 68.352 119.839 62.4346C118.568 60.4781 118.26 60.6508 116.084 57.5626C115.295 56.4405 112.792 52.8153 110.501 47.857C106.804 39.8681 107.747 37.317 104.137 29.5008C102.722 26.4414 101.307 24.0917 100.421 22.7107L100.633 12.1611V12.1899Z" fill="#F3FF5C"/>
<path d="M70.3801 129.219C74.7905 129.688 79.2392 129.477 83.5922 128.597C87.9452 127.717 91.8582 125.776 96.0772 124.561C100.574 123.27 105.022 124.217 109.596 124.236C113.738 124.245 117.919 123.595 121.861 122.313C123.822 121.673 125.745 120.879 127.591 119.951C129.438 119.023 131.083 117.742 133.016 117.12C134.824 116.536 136.795 116.431 138.45 115.427C139.655 114.7 140.602 113.571 141.291 112.357C142.803 109.688 143.406 106.312 142.717 103.309C142.028 100.305 139.961 97.723 137.962 95.4849C136.489 93.8398 134.987 92.1756 133.877 90.2627C132.585 88.0533 131.495 85.7196 130.337 83.4432C127.936 78.7566 125.4 74.0987 123.305 69.259L122.789 71.2198C125.515 69.4886 128.835 70.4929 131.466 71.9562C134.097 73.4196 136.747 75.6386 138.325 78.3358C139.263 79.9235 141.741 78.4888 140.803 76.8915C138.88 73.6109 135.704 70.8946 132.346 69.173C128.988 67.4514 124.769 66.581 121.344 68.7426C120.626 69.1921 120.512 69.9668 120.827 70.7033C122.578 74.7491 124.664 78.6514 126.673 82.5728C128.682 86.4943 130.26 90.4731 132.844 93.8303C134.68 96.231 137.015 98.2969 138.545 100.918C139.32 102.237 140.009 103.586 140.105 105.136C140.201 106.561 139.981 107.967 139.521 109.315C139.12 110.511 138.479 111.716 137.522 112.558C136.211 113.696 134.259 113.763 132.652 114.222C130.825 114.738 129.256 115.752 127.61 116.68C125.965 117.608 124.118 118.468 122.272 119.128C118.531 120.477 114.599 121.242 110.629 121.338C106.352 121.443 102.085 120.525 97.828 121.204C93.2262 121.95 89.0646 124.303 84.5489 125.422C80.0332 126.541 75.1158 126.837 70.3705 126.33C68.5336 126.13 68.5527 129.009 70.3705 129.2L70.3801 129.219Z" fill="black"/>
<path d="M36.2795 66.7426C34.8147 66.3905 33.3498 67.247 31.8659 67.5324C30.3821 67.8179 26.5202 69.6831 25.7973 65.8196C25.2456 62.8601 30.0872 62.5651 30.0872 62.5651C32.3606 59.9958 28.7175 58.5398 26.9672 57.3313C23.99 55.2948 21.5644 52.5257 19.7191 49.433C18.1401 46.7875 15.4577 42.4101 16.8369 39.3079C17.2269 38.4324 17.9784 37.7187 18.901 37.4618C21.2695 36.8052 23.0007 39.0795 23.8663 41.1826C24.6558 43.1048 26.9672 47.4727 28.8031 48.4433C29.0218 48.5575 29.2692 48.6527 29.5165 48.6527C29.9065 48.6527 30.2489 48.4148 30.5723 48.2054C34.5008 45.6932 38.2866 43.5901 42.177 46.1785C44.4789 47.7106 46.2672 50.1467 46.6477 52.8873C46.933 54.9237 46.3528 57.1029 45.0592 58.673" fill="white"/>
<path d="M36.6509 65.3723C33.9115 64.906 31.5239 66.5333 28.8606 66.7902C27.995 66.8758 27.0913 66.5333 27.1674 65.4484C27.215 64.7918 27.9284 64.5254 28.4896 64.3351C28.8891 64.2018 29.2981 64.1162 29.7167 64.0401C29.8593 64.0115 29.7642 64.0496 30.0781 64.002C31.4383 63.7641 32.2659 62.2225 32.2373 60.8998C32.1708 58.1306 28.7369 56.9506 26.8916 55.5422C24.076 53.3916 22.0119 50.5844 20.2522 47.5583C19.1583 45.6836 16.3427 41.1445 18.6542 39.1937C21.1178 37.1192 22.906 42.648 23.686 44.1135C24.7609 46.1499 26.6538 49.9088 29.3267 50.061C30.4681 50.1276 31.3527 49.3949 32.2754 48.8239C33.2837 48.2054 34.311 47.5868 35.4049 47.1301C37.469 46.2546 39.5331 46.1404 41.464 47.4156C44.7457 49.5757 46.6957 54.2481 44.0513 57.6643C43.5757 58.2829 43.4616 59.0822 44.0513 59.6817C44.5364 60.1765 45.6018 60.2907 46.0679 59.6817C49.9488 54.6668 47.7895 47.7772 42.5104 44.7035C39.7043 43.0667 36.5939 43.4474 33.7498 44.7511C32.9508 45.1222 32.1803 45.5409 31.4193 45.9977C31.0388 46.2261 29.983 47.1872 29.5169 47.1777C28.8986 47.1777 28.0235 45.7407 27.6906 45.2459C26.3304 43.257 25.5979 40.9732 24.3328 38.9748C22.9441 36.7862 20.4805 35.1399 17.8742 36.3389C15.2679 37.5379 14.7447 40.3071 15.1823 42.7908C15.6198 45.2744 17.0181 47.7201 18.3403 49.9183C20.0334 52.754 22.126 55.3614 24.7133 57.4359C25.7882 58.2924 26.9391 58.968 28.0806 59.7198C28.7845 60.1861 29.7832 60.7094 29.0794 61.5659L30.0876 61.1472C26.7965 61.366 23.1343 63.431 24.7514 67.247C25.5979 69.2548 27.5479 69.8639 29.574 69.5594C30.3445 69.4452 31.0674 69.2073 31.8188 69.0169C33.0364 68.7029 34.6439 67.9131 35.8995 68.1319C37.6973 68.4365 38.4677 65.6863 36.6604 65.3818L36.6509 65.3723Z" fill="black"/>
<path d="M76.1846 80.9011C80.9117 80.8087 84.5856 72.6404 84.3905 62.6567C84.1954 52.6731 80.2052 44.6547 75.478 44.7471C70.7509 44.8396 67.077 53.0079 67.2721 62.9916C67.4672 72.9752 71.4575 80.9936 76.1846 80.9011Z" fill="#F9F9F9" stroke="black" stroke-width="2" stroke-miterlimit="10"/>
<path d="M90.4442 80.613C95.1714 80.5205 98.8453 72.3522 98.6502 62.3686C98.4551 52.3849 94.4648 44.3665 89.7377 44.459C85.0106 44.5514 81.3367 52.7197 81.5318 62.7034C81.7269 72.687 85.7171 80.7054 90.4442 80.613Z" fill="#F9F9F9" stroke="black" stroke-width="2" stroke-miterlimit="10"/>
<path d="M74.5005 57.5045L80.294 53.783C78.9919 48.4733 76.065 44.733 73.1077 45.0149C69.5953 45.3533 67.3849 51.2174 68.152 58.1154C68.9191 65.0133 72.3911 70.323 75.8934 69.9847C79.3149 69.6558 81.5051 64.0641 80.8995 57.3918L74.5005 57.4951V57.5045Z" fill="black"/>
<path d="M89.0005 58.0047L94.3483 54.1343C93.1464 48.6122 90.4446 44.7223 87.7148 45.0155C84.4726 45.3674 82.4322 51.4661 83.1403 58.64C83.8484 65.8138 87.0533 71.3359 90.2862 70.9841C93.4445 70.642 95.4663 64.8267 94.9073 57.8874L89.0005 57.9949V58.0047Z" fill="black"/>
<path d="M75.7306 88.4038C81.0547 90.8411 87.3043 91.155 92.8287 89.1239C95.672 88.0806 98.1337 86.4926 100.357 84.4892C102.58 82.4857 105.061 80.1776 105.939 77.177C106.444 75.4597 103.677 74.7211 103.181 76.4384C102.446 78.9404 100.242 80.8146 98.3341 82.5319C96.4258 84.2491 94.2218 85.7079 91.7219 86.5757C87.018 88.2099 81.713 88.0898 77.1809 86.0125C75.5207 85.2555 74.0704 87.6375 75.7401 88.4038H75.7306Z" fill="black"/>
<path d="M101.197 74.4777C102.291 76.8826 104.636 78.7393 107.258 79.4201C107.957 79.5969 108.784 79.199 108.959 78.4917C109.134 77.7844 108.738 77.0506 107.993 76.8561C107.717 76.7854 107.451 76.6969 107.184 76.5997C107.092 76.5643 106.853 76.4494 107.23 76.6174C107.156 76.582 107.092 76.5555 107.018 76.5289C106.899 76.4759 106.788 76.4229 106.669 76.361C106.421 76.2283 106.172 76.0869 105.933 75.9366C105.869 75.8924 105.804 75.8482 105.74 75.804C105.657 75.7509 105.473 75.5741 105.768 75.8305C105.666 75.7421 105.547 75.6625 105.437 75.5652C105.225 75.3884 105.013 75.1939 104.82 74.9905C104.719 74.8933 104.627 74.7872 104.535 74.6811C104.489 74.6281 104.443 74.5573 104.388 74.5043C104.462 74.5662 104.572 74.7342 104.443 74.5662C104.094 74.1153 103.809 73.629 103.57 73.1162C103.441 72.8332 103.045 72.5857 102.742 72.5061C102.411 72.4177 101.969 72.4619 101.675 72.6387C101.381 72.8156 101.123 73.0896 101.04 73.4345C100.948 73.8058 101.022 74.1153 101.178 74.4601L101.197 74.4777Z" fill="black"/>
<path d="M59.8858 72.8007C59.9814 59.1487 64.7879 45.9612 69.279 33.2288C71.5151 26.8958 73.8371 20.231 77.7358 14.6943C81.0134 10.0489 85.925 6.6738 91.429 5.17587C94.2575 4.40795 104.09 2.82469 101.787 8.59835C100.994 10.5893 99.4271 12.201 98.6913 14.2108C97.8313 16.581 97.86 19.4157 98.5289 21.8237C99.3793 24.8765 101.262 27.5026 102.915 30.1571C104.568 32.8117 105.648 35.5705 106.422 38.6138C107.196 41.657 107.865 44.7856 109.193 47.6867C110.521 50.5877 112.375 53.157 113.99 55.8684C114.735 57.1198 115.395 58.3807 115.891 59.7554C116.293 60.8457 116.675 61.9549 117.44 62.8461C118.29 63.8415 119.465 64.3156 120.755 64.4483C122.609 64.6379 124.482 64.6664 126.336 64.9034C129.671 65.3205 133.082 66.1074 135.997 67.8234C138.538 69.3213 140.536 71.4924 142.256 73.8435C143.326 75.313 145.82 73.8909 144.73 72.412C143.116 70.203 141.338 68.1457 139.131 66.4961C136.723 64.7043 133.923 63.5666 131.018 62.865C129.48 62.4953 127.913 62.2488 126.336 62.0592C124.549 61.8411 122.733 61.8601 120.956 61.6231C118.825 61.3387 118.558 58.4755 117.803 56.8733C116.408 53.9154 114.382 51.2893 112.786 48.4451C111.19 45.601 110.282 42.3302 109.48 39.0594C108.725 35.9592 107.836 32.9349 106.25 30.1477C104.664 27.3604 102.389 24.6205 101.405 21.435C100.679 19.0933 100.669 16.2871 101.845 14.2298C103.02 12.1725 104.482 10.3712 104.912 8.07692C105.38 5.55509 104.186 3.39353 101.854 2.3317C99.3698 1.213 96.5795 1.36469 93.9422 1.73443C88.1706 2.54976 82.6665 5.27068 78.5193 9.33783C73.7606 14.0023 71.0946 20.3827 68.7057 26.4692C65.8008 33.883 63.2303 41.5054 60.9847 49.1372C58.72 56.8259 57.0478 64.7327 57 72.7722C56.9905 74.602 59.8572 74.602 59.8667 72.7722L59.8858 72.8007Z" fill="black"/>
<path d="M96.1746 105.462C96.0508 104.788 95.9842 104.085 96.0032 103.372C96.1175 97.7873 100.678 93.3579 106.201 93.4638C111.723 93.5793 116.103 98.1918 115.998 103.777" fill="#FF4208"/>
<path d="M96.1746 105.462C96.0508 104.788 95.9842 104.085 96.0032 103.372C96.1175 97.7873 100.678 93.3579 106.201 93.4638C111.723 93.5793 116.103 98.1918 115.998 103.777" stroke="black" stroke-width="2" stroke-miterlimit="10"/>
<path d="M135.855 111.351C134.236 112.218 132.042 110.937 130.922 109.806C129.533 108.412 128.699 106.556 128.278 104.672C127.425 100.923 129.408 96.7686 133.096 95.2802L131.985 92.699C126.362 95.4215 121.505 99.5852 115.69 101.94C109.243 104.55 102.346 103.523 95.5734 103.853C92.2014 104.022 88.954 104.587 85.8215 105.859C82.9189 107.046 80.0834 108.666 76.9605 109.241C75.5044 109.514 73.9908 109.448 72.621 108.864C71.2511 108.28 70.0153 107.197 68.7413 106.358C66.5572 104.927 63.6642 104.126 61.1448 105.219C59.8419 105.784 58.9223 107.037 58.0027 108.063C56.9106 109.298 55.9527 110.616 55.4258 112.19C54.8606 113.895 54.8989 115.75 55.3013 117.484C55.4929 118.332 55.7419 119.227 56.2209 119.961C56.652 120.64 57.313 121.139 57.7536 121.808C58.7499 123.334 61.2405 121.911 60.2347 120.385C59.8515 119.792 59.3534 119.321 58.9127 118.784C58.5008 118.284 58.3475 117.766 58.1847 117.154C57.7536 115.534 57.7249 113.829 58.4625 112.293C59.0085 111.144 59.8994 110.202 60.752 109.279C61.6716 108.28 62.2081 107.555 63.6642 107.545C66.5476 107.545 68.4347 109.929 70.8296 111.134C73.4256 112.444 76.2612 112.434 79.02 111.653C81.913 110.833 84.5378 109.354 87.335 108.29C90.4005 107.112 93.6 106.707 96.8666 106.632C103.266 106.471 109.799 107.169 115.92 104.87C122.041 102.571 127.416 98.0591 133.441 95.1389C134.878 94.4418 133.853 91.9454 132.33 92.5577C127.004 94.7055 124.197 100.273 125.576 105.746C126.209 108.261 127.54 110.777 129.59 112.444C131.64 114.111 134.782 115.138 137.292 113.791C138.911 112.915 137.464 110.475 135.845 111.351H135.855Z" fill="black"/>
<path d="M108 61.1238C110.173 59.7595 112.78 59.1638 115.467 59.6058C121.618 60.6338 125.82 66.7732 124.864 73.3257C124.026 79.0039 119.589 83.1256 114.412 83.4619" fill="url(#paint0_linear_428_9082)"/>
<path d="M108 61.1238C110.173 59.7595 112.78 59.1638 115.467 59.6058C121.618 60.6338 125.82 66.7732 124.864 73.3257C124.026 79.0039 119.589 83.1256 114.412 83.4619" stroke="black" stroke-width="3" stroke-miterlimit="10" stroke-linecap="round"/>
<path d="M70 94.6427C67.063 96.4953 63.3216 97.0299 59.7766 95.7948C53.6969 93.6657 50.5167 87.0755 52.6773 81.0752C54.2487 76.7155 58.2146 73.8675 62.6014 73.4619" fill="url(#paint1_linear_428_9082)"/>
<path d="M70 94.6427C67.063 96.4953 63.3216 97.0299 59.7766 95.7948C53.6969 93.6657 50.5167 87.0755 52.6773 81.0752C54.2487 76.7155 58.2146 73.8675 62.6014 73.4619" stroke="black" stroke-width="3" stroke-miterlimit="10" stroke-linecap="round"/>
<path d="M96 31.4619C101.523 31.4619 106 26.9848 106 21.4619C106 15.9391 101.523 11.4619 96 11.4619C90.4772 11.4619 86 15.9391 86 21.4619C86 26.9848 90.4772 31.4619 96 31.4619Z" fill="#FF4208" stroke="black" stroke-width="2" stroke-miterlimit="10"/>
<path d="M70 40.4619C73.3137 40.4619 76 37.5518 76 33.9619C76 30.3721 73.3137 27.4619 70 27.4619C66.6863 27.4619 64 30.3721 64 33.9619C64 37.5518 66.6863 40.4619 70 40.4619Z" fill="#FF4208" stroke="black" stroke-width="2" stroke-miterlimit="10"/>
<path d="M62.5 82.4619C63.3284 82.4619 64 81.7903 64 80.9619C64 80.1335 63.3284 79.4619 62.5 79.4619C61.6716 79.4619 61 80.1335 61 80.9619C61 81.7903 61.6716 82.4619 62.5 82.4619Z" fill="black"/>
<path d="M60 90.4619C60.5523 90.4619 61 89.7903 61 88.9619C61 88.1335 60.5523 87.4619 60 87.4619C59.4477 87.4619 59 88.1335 59 88.9619C59 89.7903 59.4477 90.4619 60 90.4619Z" fill="black"/>
<path d="M66.5 88.4619C67.3284 88.4619 68 87.7903 68 86.9619C68 86.1335 67.3284 85.4619 66.5 85.4619C65.6716 85.4619 65 86.1335 65 86.9619C65 87.7903 65.6716 88.4619 66.5 88.4619Z" fill="black"/>
<path d="M111 68.4619C111.552 68.4619 112 67.7903 112 66.9619C112 66.1335 111.552 65.4619 111 65.4619C110.448 65.4619 110 66.1335 110 66.9619C110 67.7903 110.448 68.4619 111 68.4619Z" fill="black"/>
<path d="M117.5 73.4619C118.328 73.4619 119 72.7903 119 71.9619C119 71.1335 118.328 70.4619 117.5 70.4619C116.672 70.4619 116 71.1335 116 71.9619C116 72.7903 116.672 73.4619 117.5 73.4619Z" fill="black"/>
<path d="M111.5 77.4619C112.328 77.4619 113 76.7903 113 75.9619C113 75.1335 112.328 74.4619 111.5 74.4619C110.672 74.4619 110 75.1335 110 75.9619C110 76.7903 110.672 77.4619 111.5 77.4619Z" fill="black"/>
<path d="M149.787 75.2216C151.785 74.6316 153.925 74.841 155.97 75.2216C156.95 75.412 157.92 75.6404 158.843 76.021C162.229 77.4103 164.635 80.9408 164.664 84.6044C164.692 88.2681 162.324 91.8461 158.928 93.226C154.79 94.9008 150.738 92.8168 147.675 89.9429C147.333 90.6566 147.095 91.3989 146.819 92.1411C146.515 92.9786 145.906 93.8255 145.031 93.9206C144.242 94.0063 143.519 93.4448 143.034 92.8168C140.988 90.1904 141.749 87.0215 141.959 84.0049" fill="white"/>
<path d="M150.167 76.6013C152.032 76.1065 153.934 76.2778 155.808 76.6489C157.473 76.982 159.061 77.4863 160.364 78.6092C162.495 80.4553 163.712 83.4053 163.085 86.2125C162.457 89.0198 160.317 91.4939 157.463 92.2171C154.181 93.045 151.014 91.0847 148.693 88.9436C148.084 88.3822 146.848 88.3536 146.448 89.2291C146.21 89.762 145.992 90.2949 145.782 90.8468C145.63 91.256 145.506 91.9126 145.183 92.2457C144.441 93.007 143.642 91.2465 143.433 90.647C142.672 88.563 143.224 86.1649 143.385 84.0143C143.528 82.1777 140.674 82.1872 140.532 84.0143C140.265 87.4496 139.647 91.1323 142.139 93.9681C143.224 95.2052 144.926 95.8047 146.42 94.9197C147.913 94.0347 148.236 92.1696 148.912 90.6755L146.667 90.961C149.073 93.1783 151.975 95.0053 155.323 95.2432C158.671 95.4811 161.62 93.9205 163.598 91.4654C167.622 86.4885 166.442 79.2468 161.163 75.6593C159.546 74.5649 157.634 74.0606 155.722 73.737C153.601 73.3849 151.489 73.2802 149.397 73.8417C147.628 74.3175 148.379 77.0676 150.158 76.5918L150.167 76.6013Z" fill="black"/>
<path d="M116.67 123.208C122.494 126.961 129.943 127.454 136.286 124.756C137.011 124.446 137.177 123.392 136.815 122.773C136.375 122.028 135.533 121.941 134.808 122.251C129.425 124.533 123.023 123.847 118.158 120.703C116.572 119.678 115.094 122.193 116.68 123.208H116.67Z" fill="black"/>
<path d="M105.621 124.212C112.554 129.207 121.047 131.902 129.618 131.403C131.456 131.298 131.466 128.421 129.618 128.527C121.507 129.006 113.645 126.465 107.077 121.729C105.573 120.646 104.137 123.138 105.631 124.212H105.621Z" fill="black"/>
<path d="M127.995 134.192C124.619 134.354 121.166 134.535 118.036 135.829C114.916 137.123 112.129 139.768 111.625 143.109C111.378 144.783 111.711 146.496 112.243 148.095C113.518 151.873 116.229 155.403 120.053 156.555C124.057 157.763 128.49 156.088 131.629 153.319C134.768 150.55 136.87 146.82 138.915 143.166C141.826 137.96 144.936 132.489 142.711 126.389C142.34 125.361 141.826 124.371 141.055 123.591C140.009 122.525 138.316 121.831 136.88 122.497" fill="#FF4208"/>
<path d="M127.995 132.765C121.85 133.069 114.25 133.869 111.13 140.102C108.41 145.535 111.663 152.815 116.267 156.212C121.66 160.199 128.747 158.096 133.246 153.786C135.576 151.549 137.355 148.799 138.963 146.011C140.646 143.09 142.377 140.149 143.604 136.999C144.974 133.497 145.421 129.605 144.109 126.008C142.996 122.982 140.104 119.737 136.527 121.117C134.834 121.774 135.567 124.533 137.288 123.867C139.98 122.83 141.398 126.399 141.835 128.406C142.415 131.052 141.835 133.754 140.855 136.229C139.876 138.703 138.439 141.129 137.108 143.499C135.776 145.868 134.397 148.238 132.618 150.293C129.498 153.89 124.295 157.012 119.482 154.813C117.342 153.833 115.734 151.997 114.621 149.96C113.423 147.752 112.5 144.955 113.232 142.462C115.021 136.39 122.821 135.857 127.995 135.601C129.821 135.515 129.831 132.66 127.995 132.746V132.765Z" fill="black"/>
<path d="M91.2509 123.136C87.6823 128.745 84.3282 134.477 81.1789 140.322C80.3111 141.937 82.8364 143.372 83.7042 141.748C86.8535 135.903 90.2076 130.171 93.7762 124.562C94.7609 123.004 92.2356 121.578 91.2509 123.136Z" fill="black"/>
<path d="M79.5434 147.613C79.5051 147.454 79.4574 147.295 79.4096 147.127C78.0334 142.544 75.4723 137.633 73.1979 133.396C71.0572 129.411 68.1712 125.586 63.8421 123.724C60.7458 122.396 57.229 122.228 53.8843 122.705C50.8262 123.144 47.7394 124.173 45.551 126.306C44.0029 127.812 42.7988 130.057 43.0281 132.236C43.1619 133.555 43.6875 134.808 44.2896 135.996C46.7934 140.963 50.3484 145.64 53.5976 150.157C56.3116 153.936 59.2837 157.762 63.4503 159.941C66.9575 161.784 71.1815 162.111 74.6696 160.035C79.314 157.266 80.8622 152.571 79.5529 147.604L79.5434 147.613Z" fill="#FF4208" stroke="#0F0F0F" stroke-width="3" stroke-miterlimit="10"/>
<path d="M82.4977 126.477C82.4299 126.662 82.3621 126.838 82.2944 127.013C82.3367 126.902 82.3283 126.93 82.269 127.088C82.2351 127.18 82.2012 127.263 82.1588 127.356C82.0148 127.708 81.8623 128.06 81.7014 128.411C81.3879 129.106 81.049 129.791 80.6848 130.457C79.9731 131.772 79.1514 133.04 78.3635 134.095C77.9399 134.651 77.8213 135.521 78.3635 136.058C78.8295 136.53 79.7105 136.659 80.1595 136.058C82.1758 133.382 83.7684 130.439 84.9375 127.217C85.1832 126.541 84.6664 125.662 84.048 125.505C83.311 125.319 82.7518 125.754 82.4807 126.477H82.4977Z" fill="black"/>
<path d="M46.1742 128.099C49.8404 126.112 54.4906 128.205 57.7323 130.143C60.9739 132.082 63.6753 134.769 65.8654 137.793C69.6281 142.966 73.217 149.588 73.1784 156.163C73.1784 157.276 73.082 158.543 72.4452 159.493C71.8085 160.443 70.7568 160.626 69.6377 160.568C67.7757 160.462 67.7853 163.342 69.6377 163.447C76.8639 163.86 76.5648 155.376 75.2913 150.51C74.0178 145.644 71.8278 141.44 69.136 137.447C66.6662 133.79 63.6078 130.479 59.8644 128.08C55.5615 125.316 49.5992 122.974 44.7174 125.623C43.0772 126.506 44.5437 129.001 46.1742 128.109V128.099Z" fill="black"/>
<path d="M58.5042 71.4981C53.1094 71.7253 49.34 67.3602 46.8071 63.1729C45.8198 61.5335 43.2271 63.0248 44.2243 64.6641C47.2857 69.7304 52.0224 74.7275 58.5042 74.4509C59.3119 74.4213 60 73.7991 60 72.9696C60 72.1894 59.3119 71.4586 58.5042 71.4882V71.4981Z" fill="black"/>
<path d="M41.1791 69.6228C44.1288 74.2417 48.3933 77.7082 53.3598 79.3887C55.0034 79.9456 55.7053 77.1609 54.0706 76.6135C49.7971 75.1731 46.03 72.1483 43.4891 68.1728C43.0804 67.5295 42.3163 67.2414 41.6677 67.6543C41.0814 68.0288 40.7793 68.9794 41.188 69.6228H41.1791Z" fill="black"/>
<path d="M36.4031 66.5518C36.4317 66.4662 36.4602 66.371 36.4792 66.2854C37.1451 64.2109 38.3436 62.2696 40.0558 60.9183C41.7679 59.567 44.0128 58.8533 46.172 59.1769C47.1613 59.3291 48.179 59.7288 48.7688 60.5377C49.758 61.8985 48.7022 63.8683 47.1327 64.0872C46.21 64.2204 45.5062 64.1823 44.631 64.6391C43.8511 65.0483 43.1472 65.6192 42.5003 66.2187C41.844 66.8278 41.1496 67.4939 40.8167 68.3408C40.3316 69.5779 40.7596 71.0624 39.0189 71.4526C37.8585 71.7095 36.7265 70.8055 36.327 69.7587C35.9466 68.7405 36.0892 67.5986 36.3936 66.5518H36.4031Z" fill="white"/>
<path d="M37.7824 66.9327C38.4292 64.763 39.7324 62.6981 41.7109 61.5181C42.6906 60.9281 43.813 60.5569 44.964 60.5284C45.8486 60.5094 47.1042 60.6236 47.6464 61.3944C47.6844 61.4419 47.732 61.6513 47.732 61.5276C47.732 61.6227 47.7415 61.7274 47.732 61.8226C47.7415 61.5942 47.7225 61.8892 47.7035 61.9463C47.6179 62.2223 47.4942 62.384 47.2659 62.5458C46.933 62.7837 47.3515 62.5458 47.1327 62.6219C47.1232 62.6219 46.8474 62.6981 46.9235 62.6885C46.7142 62.7361 46.4003 62.7456 46.153 62.7742C45.354 62.8693 44.6406 63.0406 43.9177 63.4118C42.7572 64.0018 41.6919 64.9438 40.7977 65.8954C39.9036 66.847 39.3995 67.8177 39.1902 69.0548C39.1521 69.2736 39.1141 69.502 39.057 69.7114C39.038 69.797 39.0095 69.8731 38.9809 69.9588C39.0856 69.6828 38.9619 70.0159 38.9048 70.0635L38.9619 69.9683C39.0665 69.9017 39.076 69.9017 38.9809 69.9493C38.9048 69.9873 38.8953 69.9968 38.9809 69.9778C38.8953 70.0064 38.8192 70.0349 38.7241 70.0539C38.5624 70.0825 38.4673 70.0635 38.3341 70.0064C37.2117 69.4925 37.497 67.9224 37.7729 66.9327C38.2675 65.1627 35.5185 64.4014 35.0239 66.1714C34.5293 67.9414 34.4817 70.0254 35.7754 71.548C36.8788 72.8612 38.8478 73.3655 40.3602 72.4615C41.5872 71.7288 41.7394 70.5393 42.0343 69.2641C42.3006 68.1127 43.5752 67.0278 44.593 66.3332C45.2208 65.905 45.7916 65.6671 46.524 65.5814C47.342 65.4863 48.1125 65.4006 48.8164 64.9248C50.091 64.0684 50.7949 62.5173 50.5 60.9947C50.1766 59.3674 48.6357 58.2921 47.1042 57.9115C45.4967 57.5023 43.7274 57.626 42.177 58.1684C38.5624 59.4245 36.0893 62.5743 35.0239 66.1619C34.5008 67.9224 37.2497 68.6836 37.7729 66.9232L37.7824 66.9327Z" fill="black"/>
<path d="M148.855 74.3362C148.855 74.4313 148.855 74.517 148.836 74.6122C148.684 76.7913 147.98 78.9515 146.629 80.6739C145.278 82.3963 143.271 83.6238 141.102 83.8237C140.104 83.9188 139.019 83.7666 138.258 83.1195C136.974 82.0347 137.535 79.865 139 79.2845C139.866 78.942 140.56 78.8087 141.302 78.1521C141.968 77.5621 142.51 76.8484 143.005 76.1157C143.499 75.3639 144.013 74.5551 144.137 73.651C144.317 72.3378 143.547 70.9961 145.155 70.2062C146.22 69.6829 147.542 70.2919 148.17 71.2149C148.779 72.119 148.912 73.2514 148.864 74.3552L148.855 74.3362Z" fill="white"/>
<path d="M147.428 74.3364C147.314 76.6488 146.477 78.9802 144.774 80.598C144.013 81.3212 143.081 81.8826 142.063 82.1776C141.216 82.425 139.951 82.6534 139.2 82.0349C138.829 81.7304 138.895 81.207 139.219 80.8168C139.409 80.5884 139.894 80.4552 140.284 80.303C140.96 80.046 141.559 79.751 142.12 79.2943C143.185 78.4283 144.032 77.2198 144.707 76.0398C145.383 74.8598 145.63 73.775 145.544 72.4808C145.525 72.2429 145.516 72.0145 145.516 71.7766C145.516 71.5292 145.478 71.9574 145.516 71.7195C145.535 71.6243 145.659 71.4626 145.554 71.5863C145.668 71.4435 146.01 71.3579 146.334 71.4911C147.409 71.9193 147.447 73.3467 147.418 74.3269C147.361 76.1635 150.215 76.1635 150.272 74.3269C150.329 72.6426 149.977 70.7869 148.645 69.626C147.314 68.465 145.506 68.1795 144.061 69.1597C142.615 70.1398 142.672 71.4626 142.719 72.9756C142.757 74.3079 141.673 75.6877 140.798 76.6203C140.265 77.1912 139.752 77.4672 139.029 77.7336C138.306 78.0001 137.611 78.3141 137.088 78.9231C136.118 80.0555 135.814 81.6637 136.441 83.0341C137.944 86.3171 142.719 85.4131 145.154 83.8715C148.417 81.8065 150.072 78.0952 150.262 74.3269C150.357 72.4903 147.504 72.4998 147.409 74.3269L147.428 74.3364Z" fill="black"/>
<path d="M43.0572 133.42C42.8557 131.524 43.1532 129.619 44.487 128.186C47.6633 124.781 54.5245 127.148 57.9502 129.063C66.6922 133.939 77.5933 148.066 74.4458 158.685C74.0332 160.071 73.1311 161.363 71.7973 161.967C66.3276 164.457 58.123 156.921 54.7548 153.479C50.3502 148.981 46.5694 143.586 44.2087 137.767C43.6905 136.485 43.2011 134.948 43.038 133.42H43.0572Z" fill="#F4580B" stroke="black" stroke-width="3" stroke-miterlimit="10"/>
<path d="M58 96.8435C58.48 100.073 59.1166 103.275 59.9306 106.45C60.1184 107.177 61.0681 107.609 61.8612 107.416C62.7065 107.213 63.1448 106.45 62.957 105.714C62.2056 102.788 61.5795 99.7879 61.1412 96.8435C61.0368 96.135 60.4941 95.4265 59.5758 95.4633C58.8244 95.4909 57.8956 96.0798 58.0104 96.8435H58Z" fill="black"/>
<path d="M136.261 124.334C136.299 123.03 136.023 120.718 134.273 120.508C131.961 120.232 131.505 123.772 130.915 125.2C130.487 126.247 129.859 127.217 129.06 128.045C128.499 128.635 127.843 129.13 127.158 129.577C126.52 129.986 125.797 130.3 125.379 130.948C124.789 131.852 125.236 132.946 126.083 133.526C127.167 134.259 128.67 134.002 129.869 133.707C131.248 133.365 132.323 132.489 133.217 131.452C133.645 130.957 134.035 130.443 134.415 129.92C135.585 128.302 136.194 126.332 136.251 124.343L136.261 124.334Z" fill="white"/>
<path d="M137.688 124.334C137.707 123.116 137.545 121.745 136.889 120.699C136.089 119.433 134.596 118.767 133.131 119.185C130.687 119.88 130.382 122.735 129.583 124.724C129.07 126.018 127.919 127.35 126.635 128.207C125.227 129.149 123.581 130.015 123.705 131.994C123.819 133.755 125.303 135.068 126.977 135.334C128.651 135.601 130.506 135.191 131.942 134.373C133.654 133.412 135.015 131.709 136.032 130.062C137.05 128.416 137.611 126.332 137.688 124.324C137.754 122.488 134.9 122.488 134.834 124.324C134.729 126.96 133.474 129.292 131.59 131.09C130.734 131.908 129.726 132.346 128.565 132.508C128.052 132.584 126.511 132.66 126.539 131.785C126.539 131.908 126.587 131.69 126.625 131.651C126.758 131.499 126.901 131.395 127.082 131.28C127.605 130.947 128.128 130.643 128.623 130.272C129.821 129.387 130.848 128.311 131.6 127.008C132.104 126.142 132.427 125.228 132.713 124.277C132.827 123.896 132.941 123.525 133.084 123.154C133.074 123.182 133.245 122.754 133.169 122.935C133.093 123.116 133.283 122.697 133.274 122.725C133.369 122.526 133.483 122.335 133.616 122.154C133.398 122.449 133.949 121.736 133.702 122.04C133.731 122.002 133.864 121.926 133.902 121.917C133.597 122.04 133.949 121.898 134.006 121.888C133.788 121.898 134.159 121.907 134.197 121.917C134.016 121.85 134.216 121.917 134.254 121.945C134.491 122.069 134.235 121.879 134.396 122.069C134.235 121.869 134.634 122.516 134.539 122.297C134.634 122.526 134.701 122.773 134.748 123.02C134.824 123.354 134.796 123.211 134.824 123.591C134.843 123.829 134.843 124.077 134.834 124.315C134.796 126.151 137.649 126.151 137.688 124.315V124.334Z" fill="black"/>
<defs>
<linearGradient id="paint0_linear_428_9082" x1="108.046" y1="74.1452" x2="121.783" y2="68.4483" gradientUnits="userSpaceOnUse">
<stop offset="0.28" stop-color="#F3FF5C"/>
<stop offset="0.56" stop-color="#FF9F06"/>
<stop offset="0.85" stop-color="#FF3115"/>
</linearGradient>
<linearGradient id="paint1_linear_428_9082" x1="68.5383" y1="83.3452" x2="54.5219" y2="88.0052" gradientUnits="userSpaceOnUse">
<stop offset="0.17" stop-color="#F3FF5C"/>
<stop offset="0.42" stop-color="#FF9F06"/>
<stop offset="0.72" stop-color="#FF3115"/>
</linearGradient>
</defs>
</svg>
