<svg width="91" height="91" viewBox="0 0 91 91" fill="none" xmlns="http://www.w3.org/2000/svg">
<path d="M45.5 91C70.629 91 91 70.629 91 45.5C91 20.371 70.629 0 45.5 0C20.371 0 0 20.371 0 45.5C0 70.629 20.371 91 45.5 91Z" fill="#FF843E"/>
<path d="M19.908 21.4707C19.7766 21.4707 19.6547 21.452 19.5233 21.4144C18.7728 21.1987 18.3413 20.42 18.557 19.6789L20.1613 14.0219C20.377 13.2713 21.1557 12.8398 21.8968 13.0556C22.6473 13.2713 23.0789 14.05 22.8631 14.7911L21.2589 20.4481C21.0806 21.0673 20.5178 21.4707 19.908 21.4707Z" fill="black"/>
<path d="M26.2969 22.7471C26.1655 22.7471 26.0436 22.7283 25.9122 22.6908C25.1617 22.475 24.7302 21.6964 24.9459 20.9552L26.5502 15.2982C26.7659 14.5477 27.5352 14.1162 28.2857 14.3319C29.0363 14.5477 29.4678 15.3264 29.252 16.0675L27.6478 21.7245C27.4696 22.3437 26.9067 22.7471 26.2969 22.7471Z" fill="black"/>
<path d="M17 28.2526C20.3679 31.7144 26.4002 31.2922 30.4811 27.3145" stroke="black" stroke-width="2" stroke-miterlimit="10" stroke-linecap="round"/>
<path d="M29.4115 24.5283C29.4115 26.6016 30.8093 28.2809 32.5355 28.2809" stroke="black" stroke-width="2" stroke-miterlimit="10" stroke-linecap="round"/>
</svg>
