<svg width="287" height="195" viewBox="0 0 287 195" fill="none" xmlns="http://www.w3.org/2000/svg">
<path d="M226 29H62C57.5817 29 54 32.5817 54 37V141C54 145.418 57.5817 149 62 149H226C230.418 149 234 145.418 234 141V37C234 32.5817 230.418 29 226 29Z" fill="#FFC6A6"/>
<path d="M194 47H74C72.3431 47 71 48.3431 71 50C71 51.6569 72.3431 53 74 53H194C195.657 53 197 51.6569 197 50C197 48.3431 195.657 47 194 47Z" fill="#FF843E"/>
<path d="M158 59H74C72.3431 59 71 60.3431 71 62C71 63.6569 72.3431 65 74 65H158C159.657 65 161 63.6569 161 62C161 60.3431 159.657 59 158 59Z" fill="#FF843E"/>
<path d="M108 71H74C72.3431 71 71 72.3431 71 74C71 75.6569 72.3431 77 74 77H108C109.657 77 111 75.6569 111 74C111 72.3431 109.657 71 108 71Z" fill="#FF843E"/>
<path d="M209 83H79C74.5817 83 71 86.5817 71 91V123C71 127.418 74.5817 131 79 131H209C213.418 131 217 127.418 217 123V91C217 86.5817 213.418 83 209 83Z" fill="white"/>
<path d="M241.5 195C266.629 195 287 174.629 287 149.5C287 124.371 266.629 104 241.5 104C216.371 104 196 124.371 196 149.5C196 174.629 216.371 195 241.5 195Z" fill="#FF843E"/>
<path d="M215.908 125.471C215.777 125.471 215.655 125.452 215.523 125.414C214.773 125.199 214.341 124.42 214.557 123.679L216.161 118.022C216.377 117.271 217.156 116.84 217.897 117.056C218.647 117.271 219.079 118.05 218.863 118.791L217.259 124.448C217.081 125.067 216.518 125.471 215.908 125.471Z" fill="black"/>
<path d="M222.297 126.747C222.166 126.747 222.044 126.728 221.912 126.691C221.162 126.475 220.73 125.696 220.946 124.955L222.55 119.298C222.766 118.548 223.535 118.116 224.286 118.332C225.036 118.548 225.468 119.326 225.252 120.067L223.648 125.725C223.47 126.344 222.907 126.747 222.297 126.747Z" fill="black"/>
<path d="M213 132.253C216.368 135.714 222.4 135.292 226.481 131.314" stroke="black" stroke-width="2" stroke-miterlimit="10" stroke-linecap="round"/>
<path d="M225.411 128.528C225.411 130.602 226.809 132.281 228.536 132.281" stroke="black" stroke-width="2" stroke-miterlimit="10" stroke-linecap="round"/>
<path d="M259.339 64.9993L258.767 64.746L260.416 56.704L252.387 58.4137L252.129 57.8438L258.677 52.968L252.055 48.1555L252.304 47.5856L260.358 49.2319L258.588 41.2533L259.156 41L264.082 47.5856L268.844 41L269.416 41.2533L267.831 49.2319L275.797 47.5856L276.055 48.1555L269.506 52.968L276.129 57.8438L275.88 58.4137L267.888 56.704L269.596 64.746L269.028 64.9993L264.165 58.4137L259.339 64.9993Z" fill="#F3FF5C"/>
<path d="M0.038302 116.084L0.0570934 109.742H32.0571L32.0383 116.084H0.038302ZM2.55396 103.807L7.00653 99.4436L29.5409 122.193L25.088 126.673L2.55396 103.807ZM12.9525 97H19.1795L19.0847 129H12.8577L12.9525 97ZM25.1687 99.4436L29.5954 103.807L6.92584 126.673L2.49965 122.134L25.1687 99.4436Z" fill="#FF9559"/>
<path fill-rule="evenodd" clip-rule="evenodd" d="M23.3681 20.4763L15.5529 18.3822L16.0706 16.4503L25.8176 19.062L24.2647 24.8576L33.8362 27.4223L33.3185 29.3541L21.8152 26.2718L23.3681 20.4763Z" fill="black" stroke="#FFC6A6" stroke-width="2"/>
<path fill-rule="evenodd" clip-rule="evenodd" d="M35.6733 9.89428L31.315 3.07755L33 2.00021L38.4357 10.502L33.3806 13.734L38.7183 22.0826L37.0333 23.1599L30.6182 13.1263L35.6733 9.89428Z" fill="black" stroke="#FFC6A6" stroke-width="2"/>
</svg>
