<svg width="76" height="78" viewBox="0 0 76 78" fill="none" xmlns="http://www.w3.org/2000/svg">
<path d="M6.85769 16.1982H14.214C17.1879 16.1982 19.599 18.6099 19.599 21.585V36.7926C19.599 39.7678 17.1879 42.1794 14.214 42.1794H6.85769C3.88376 42.1794 1.47266 39.7678 1.47266 36.7926V21.585C1.47266 18.6099 3.88376 16.1982 6.85769 16.1982Z" fill="#424242" stroke="#424242"/>
<path d="M37.9997 78.0003C58.9906 78.0003 76.0072 60.9787 76.0072 39.9814C76.0072 18.9841 58.9906 1.9624 37.9997 1.9624C17.0087 1.9624 -0.0078125 18.9841 -0.0078125 39.9814C-0.0078125 60.9787 17.0087 78.0003 37.9997 78.0003Z" fill="#E0E0E0"/>
<path d="M46.5823 18.6509H53.9386C56.9125 18.6509 59.3236 21.0625 59.3236 24.0377V39.2453C59.3236 42.2205 56.9125 44.6321 53.9386 44.6321H46.5823C43.6084 44.6321 41.1973 42.2205 41.1973 39.2453V24.0377C41.1973 21.0625 43.6084 18.6509 46.5823 18.6509Z" fill="#424242" stroke="#424242"/>
<path d="M53.0997 28.4435C52.9558 28.4435 52.7611 28.2981 52.7611 28.0261C52.7611 13.3951 42.6919 1.33963 30.1432 1.33963C21.5119 1.33963 13.5397 7.30743 9.7801 16.4436C9.78011 16.4436 9.78008 16.4436 9.78002 16.4437C9.77748 16.4474 9.71912 16.5322 9.49064 16.5787C9.28893 16.6197 9.10341 16.5966 9.01106 16.5605C9.01612 16.5198 9.02996 16.4608 9.05821 16.377C9.08949 16.2842 9.13032 16.184 9.17931 16.0646C13.0946 6.57108 21.3444 0.5 30.1481 0.5C42.9169 0.5 53.4383 12.7694 53.4383 28.0261C53.4383 28.3 53.2467 28.4435 53.0997 28.4435Z" fill="#424242" stroke="#424242"/>
<path d="M16.2816 19.0268C20.1016 14.9959 21.9043 10.5014 20.3082 8.98783C18.7121 7.47431 14.3215 9.51498 10.5016 13.5458C6.68164 17.5766 4.87887 22.0712 6.47498 23.5847C8.0711 25.0982 12.4617 23.0576 16.2816 19.0268Z" fill="#E0E0E0"/>
<path d="M64.5867 52.2603L51.3867 65.4602L56.1067 70.1669L69.3067 56.9669L64.5867 52.2603Z" fill="#BDBDBD"/>
<path d="M50.3331 66.5143L49.4531 69.1676L52.3731 72.0876L55.0531 71.2209L56.1065 70.1676L51.3865 65.4609L50.3331 66.5143Z" fill="#F0F0F0"/>
<path d="M48 73.4998L52.3733 72.0865L49.4533 69.1665L48 73.4998Z" fill="#9E9E9E"/>
<path d="M71.1869 51.3143L70.2402 50.3809C69.7406 49.8843 69.0648 49.6055 68.3602 49.6055C67.6558 49.6055 66.9798 49.8843 66.4802 50.3809L64.5869 52.2609L69.307 56.9809L71.1869 55.0876C71.4349 54.8399 71.6316 54.5458 71.7658 54.2221C71.9 53.8984 71.969 53.5514 71.969 53.2009C71.969 52.8505 71.9 52.5035 71.7658 52.1797C71.6316 51.856 71.4349 51.5619 71.1869 51.3143Z" fill="#9E9E9E"/>
<path d="M16.4266 38.5272C14.6316 38.5272 13.0182 37.8747 11.8362 36.6581C11.4684 36.2804 11.4782 35.6819 11.8559 35.314C12.2335 34.9509 12.8318 34.9559 13.1996 35.3336C14.102 36.2608 15.3918 36.717 16.8238 36.614C18.3196 36.5109 19.7908 35.8242 20.9629 34.6811C21.3406 34.3181 21.9389 34.323 22.3067 34.7008C22.6745 35.0785 22.6647 35.677 22.2871 36.0449C20.7913 37.5019 18.8983 38.38 16.9562 38.5125C16.7797 38.5223 16.6031 38.5321 16.4315 38.5321L16.4266 38.5272Z" fill="black"/>
<path d="M23.0075 36.9621C21.3204 36.9621 19.9473 35.3972 19.9473 33.479C19.9473 32.9541 20.3739 32.5273 20.8987 32.5273C21.4234 32.5273 21.8501 32.9541 21.8501 33.479C21.8501 34.3375 22.3797 35.0636 23.0124 35.0636C23.5371 35.0636 23.9638 35.4904 23.9638 36.0153C23.9638 36.5402 23.5371 36.967 23.0124 36.967L23.0075 36.9621Z" fill="black"/>
<path fill-rule="evenodd" clip-rule="evenodd" d="M8 30C8.55228 30 9 29.5523 9 29C9 27.9023 9.90228 27 11 27C12.0977 27 13 27.9023 13 29C13 29.5523 13.4477 30 14 30C14.5523 30 15 29.5523 15 29C15 26.7977 13.2023 25 11 25C8.79772 25 7 26.7977 7 29C7 29.5523 7.44772 30 8 30Z" fill="black"/>
<path fill-rule="evenodd" clip-rule="evenodd" d="M20 30C20.5523 30 21 29.5523 21 29C21 27.9023 21.9023 27 23 27C24.0977 27 25 27.9023 25 29C25 29.5523 25.4477 30 26 30C26.5523 30 27 29.5523 27 29C27 26.7977 25.2023 25 23 25C20.7977 25 19 26.7977 19 29C19 29.5523 19.4477 30 20 30Z" fill="black"/>
</svg>
