<svg width="76" height="78" viewBox="0 0 76 78" fill="none" xmlns="http://www.w3.org/2000/svg">
<path d="M37.9997 77.0189C58.9906 77.0189 76.0072 59.9972 76.0072 38.9999C76.0072 18.0026 58.9906 0.980957 37.9997 0.980957C17.0087 0.980957 -0.0078125 18.0026 -0.0078125 38.9999C-0.0078125 59.9972 17.0087 77.0189 37.9997 77.0189Z" fill="#E0E0E0"/>
<path d="M16.4266 34.5452C14.6316 34.5452 13.0182 33.8928 11.8362 32.6762C11.4684 32.2984 11.4782 31.7 11.8559 31.332C12.2335 30.969 12.8318 30.9739 13.1996 31.3517C14.102 32.2788 15.3918 32.7351 16.8238 32.632C18.3196 32.529 19.7908 31.8422 20.9629 30.6992C21.3406 30.3362 21.9389 30.3411 22.3067 30.7188C22.6745 31.0966 22.6647 31.6951 22.2871 32.063C20.7913 33.52 18.8983 34.3981 16.9562 34.5305C16.7797 34.5403 16.6031 34.5502 16.4315 34.5502L16.4266 34.5452Z" fill="black"/>
<path d="M23.0075 32.9806C21.3204 32.9806 19.9473 31.4157 19.9473 29.4976C19.9473 28.9727 20.3739 28.5459 20.8987 28.5459C21.4234 28.5459 21.8501 28.9727 21.8501 29.4976C21.8501 30.3561 22.3797 31.0821 23.0124 31.0821C23.5371 31.0821 23.9638 31.5089 23.9638 32.0338C23.9638 32.5587 23.5371 32.9855 23.0124 32.9855L23.0075 32.9806Z" fill="black"/>
<path d="M25.332 27.928C25.2241 27.928 25.1113 27.9083 25.0034 27.8691L18.8585 25.6125C18.4907 25.48 18.2455 25.1317 18.2356 24.7393C18.2258 24.3468 18.4612 23.9936 18.8192 23.8415L24.9642 21.2808C25.4497 21.0796 26.0039 21.3102 26.205 21.791C26.406 22.2766 26.1755 22.831 25.6949 23.0321L21.7863 24.6608L25.6557 26.0785C26.1461 26.26 26.4011 26.8046 26.2197 27.3C26.0775 27.6827 25.7145 27.9231 25.3271 27.9231L25.332 27.928Z" fill="black"/>
<path d="M16.2816 18.0453C20.1016 14.0145 21.9043 9.51991 20.3082 8.00639C18.7121 6.49286 14.3215 8.53353 10.5016 12.5643C6.68164 16.5952 4.87887 21.0897 6.47498 22.6033C8.0711 24.1168 12.4617 22.0761 16.2816 18.0453Z" fill="#E0E0E0"/>
<path d="M15.9209 25.0483H15.9111L9.25122 24.9846C8.72647 24.9797 8.30471 24.548 8.30961 24.023C8.31452 23.503 8.74118 23.0812 9.26103 23.0812H9.27083L13.5032 23.1253L10.5067 20.2996C10.1242 19.9415 10.1095 19.3381 10.4675 18.9555C10.8255 18.5728 11.4287 18.5581 11.8112 18.9162L16.5732 23.4098C16.8576 23.6797 16.9508 24.0917 16.8037 24.4547C16.6565 24.8129 16.3084 25.0483 15.9209 25.0483Z" fill="black"/>
<path d="M67.9997 47.1851H51.9997C50.5269 47.1851 49.333 48.379 49.333 49.8517V71.1851C49.333 72.6579 50.5269 73.8517 51.9997 73.8517H67.9997C69.4725 73.8517 70.6663 72.6579 70.6663 71.1851V49.8517C70.6663 48.379 69.4725 47.1851 67.9997 47.1851Z" fill="#9E9E9E"/>
<path d="M57.9867 55.1851H52.6667C52.2985 55.1851 52 55.4835 52 55.8517V57.1851C52 57.5532 52.2985 57.8517 52.6667 57.8517H57.9867C58.3548 57.8517 58.6533 57.5532 58.6533 57.1851V55.8517C58.6533 55.4835 58.3548 55.1851 57.9867 55.1851Z" fill="white"/>
<path fill-rule="evenodd" clip-rule="evenodd" d="M64.0001 55.9664L67.0573 52.9092L68.9429 54.7948L64.0001 59.7376L60.3906 56.1281L62.2762 54.2425L64.0001 55.9664Z" fill="white"/>
<path fill-rule="evenodd" clip-rule="evenodd" d="M64.0001 63.9664L67.0573 60.9092L68.9429 62.7948L64.0001 67.7376L60.3906 64.1281L62.2762 62.2425L64.0001 63.9664Z" fill="white"/>
<path d="M57.9994 63.1851H52.6794C52.3112 63.1851 52.0127 63.4836 52.0127 63.8517V65.2251C52.0127 65.5932 52.3112 65.8917 52.6794 65.8917H57.9994C58.3675 65.8917 58.6661 65.5932 58.6661 65.2251V63.8517C58.6661 63.4836 58.3675 63.1851 57.9994 63.1851Z" fill="white"/>
</svg>
